<?xml version="1.0" encoding="utf-8"?>
<!-- Generator: Adobe Illustrator 23.0.5, SVG Export Plug-In . SVG Version: 6.00 Build 0)  -->
<svg version="1.1" id="Capa_1" xmlns="http://www.w3.org/2000/svg" xmlns:xlink="http://www.w3.org/1999/xlink" x="0px" y="0px"
	 viewBox="0 0 150 150" style="enable-background:new 0 0 150 150;" xml:space="preserve">
<style type="text/css">
	.st0{fill:none;stroke:#FFFFFF;stroke-width:3;stroke-miterlimit:10;}
</style>
<polyline class="st0" points="14.09,49.3 31.65,58.88 18.88,66.86 36.44,74.84 "/>
<line class="st0" x1="49.21" y1="74.84" x2="98.69" y2="74.84"/>
<polyline class="st0" points="109.86,76.44 129.02,66.86 114.65,58.88 133.81,49.3 "/>
<line class="st0" x1="60.38" y1="137.09" x2="60.38" y2="116.34"/>
<path class="st0" d="M85.92,137.09c0-6.92,0-13.83,0-20.75v-1.6c0.77,0.1,1.88,0.17,3.19,0c0.34-0.05,6.49-0.96,9.58-6.38
	c1.59-2.8,1.59-5.43,1.6-7.98c0-2.02,0-4.86-1.6-7.98c-2.03-3.95-5.31-5.8-6.38-6.38c-1.63-0.89-5.91-2.85-11.17-1.6
	c-4.33,1.03-6.98,3.67-7.98,4.79l0,0c-6.72-4.4-7.98-4.79-7.98-4.79c-3.47-1.07-7.75-0.55-11.17,1.6c-4.56,2.86-5.82,7.51-6.38,9.58
	c-0.52,1.91-1.15,5.46,0,9.58c0.48,1.72,1.46,5.21,4.79,7.98c3.16,2.62,6.61,3.08,7.98,3.19"/>
<path class="st0" d="M61.26,13.64c-0.03,6.92-0.05,13.83-0.08,20.75l-0.01,1.6c-0.77-0.1-1.88-0.18-3.19-0.01
	c-0.34,0.04-6.49,0.93-9.6,6.35c-1.6,2.79-1.61,5.42-1.63,7.97c-0.01,2.02-0.02,4.86,1.57,7.99c2.01,3.96,5.29,5.82,6.36,6.41
	c1.63,0.89,5.9,2.87,11.17,1.64c4.33-1.01,6.99-3.65,8-4.76l0,0c6.7,4.43,7.96,4.82,7.96,4.82c3.47,1.08,7.75,0.58,11.18-1.56
	c4.57-2.84,5.85-7.49,6.42-9.55c0.53-1.91,1.17-5.45,0.04-9.58c-0.47-1.72-1.44-5.22-4.76-8c-3.15-2.63-6.6-3.11-7.97-3.22"/>
<line class="st0" x1="86.72" y1="35.74" x2="86.72" y2="14.99"/>
</svg>
