<?xml version="1.0" encoding="utf-8"?>
<!-- Generator: Adobe Illustrator 23.0.5, SVG Export Plug-In . SVG Version: 6.00 Build 0)  -->
<svg version="1.1" id="Capa_1" xmlns="http://www.w3.org/2000/svg" xmlns:xlink="http://www.w3.org/1999/xlink" x="0px" y="0px"
	 viewBox="0 0 300 250" style="enable-background:new 0 0 300 250;" xml:space="preserve">
<style type="text/css">
	.st0{fill:#FFFFFF;}
</style>
<g>
	<g>
		<path class="st0" d="M147.64,26.57c0.23,8.74,0.37,17.5,0.69,26.24c0.08,2.21,0.36,4.54,1.53,6.47c1.25,2.06,3.23,3.37,5.51,4.07
			c0.76,0.23,1.54,0.36,2.31,0.52c0.36,0.07,0.72,0.15,1.08,0.24c0.17,0.05,0.35,0.13,0.52,0.15c0.54,0.08-0.59-0.38,0.02-0.01
			c0.09,0.05,0.64,0.45,0.7,0.42c-0.2,0.07-0.75-0.67-0.09-0.03c0.17,0.16,0.74,0.92,0.35,0.34c-0.41-0.61,0.16,0.27,0.26,0.43
			c0.32,0.52,0.56,1.07,0.83,1.61c0.21,0.43-0.19-0.4-0.18-0.41c-0.01,0.01,0.15,0.37,0.16,0.41c0.13,0.37,0.27,0.73,0.4,1.1
			c0.43,1.22,0.81,2.45,1.28,3.65c1.26,3.24,2.92,6.2,5.94,8.09c3.5,2.19,8.15,2.39,12.12,3.06c4.33,0.73,8.66,1.46,12.99,2.18
			c9.8,1.65,19.61,3.3,29.41,4.95c2.31,0.39,4.96-0.61,5.54-3.14c0.5-2.18-0.66-5.12-3.14-5.54c-8.33-1.4-16.66-2.8-25-4.2
			c-8.2-1.38-16.5-2.49-24.65-4.17c-0.4-0.08-0.8-0.17-1.19-0.28c-0.26-0.07-0.52-0.15-0.78-0.24c-0.06-0.02-0.65-0.28-0.21-0.07
			c0.37,0.17-0.54-0.35-0.7-0.44c-0.55-0.28,0.32,0.16,0.3,0.25c0.01-0.03-0.37-0.33-0.41-0.37c-0.07-0.07-0.5-0.62-0.56-0.61
			c0.04-0.01,0.51,0.76,0.28,0.36c-0.07-0.12-0.16-0.23-0.24-0.35c-0.34-0.52-0.62-1.06-0.89-1.62c-0.46-0.93,0.21,0.61-0.06-0.13
			c-0.1-0.28-0.21-0.55-0.31-0.83c-0.22-0.61-0.43-1.22-0.63-1.83c-0.49-1.44-1.01-2.85-1.62-4.24c-1.18-2.69-3.18-5.2-5.93-6.4
			c-1.69-0.74-3.39-0.98-5.15-1.46c-0.17-0.05-0.34-0.1-0.51-0.15c-0.14-0.04-0.57-0.29-0.11-0.03c0.5,0.29-0.01-0.03-0.08-0.08
			c0.07,0.04,0.52,0.55,0.22,0.17c-0.33-0.41,0.11,0.2,0.11,0.21c0.01-0.09-0.41-0.57-0.12-0.11c0.29,0.47-0.05-0.16-0.09-0.33
			c-0.07-0.24-0.11-0.49-0.16-0.74c-0.12-0.51,0.04,0.18,0.04,0.25c0-0.26-0.04-0.51-0.05-0.77c-0.02-0.5-0.03-1-0.05-1.51
			c-0.03-1.16-0.06-2.32-0.09-3.48c-0.06-2.4-0.13-4.81-0.19-7.21c-0.13-4.81-0.25-9.61-0.38-14.42c-0.06-2.35-2.03-4.61-4.5-4.5
			C149.76,22.18,147.58,24.05,147.64,26.57L147.64,26.57z"/>
	</g>
</g>
<g>
	<g>
		<path class="st0" d="M152.11,54.19c-3.04-0.48-5.93-0.02-8.53,1.72c-2.37,1.58-4.08,3.61-5.75,5.88
			c-0.31,0.42-0.62,0.85-0.93,1.28c-0.16,0.21-0.31,0.42-0.47,0.63c0.11-0.14,0.53-0.64-0.02,0.02c-0.33,0.4-0.67,0.8-1.02,1.17
			c-0.18,0.19-0.36,0.37-0.55,0.55c-0.08,0.08-0.89,0.74-0.43,0.39c0.53-0.39-0.52,0.32-0.5,0.31c-0.23,0.14-0.47,0.26-0.71,0.38
			c0.78-0.4-0.56,0.16-0.8,0.23c-0.26,0.07-0.52,0.12-0.78,0.17c-0.2,0.05-0.85,0.06,0,0.01c-0.61,0.04-1.22,0.09-1.84,0.09
			c-2.39,0-4.76-0.37-7.12-0.67c-2.78-0.36-5.56-0.71-8.35-1.07c-5.56-0.71-11.13-1.42-16.69-2.13c-6.22-0.79-12.44-1.59-18.65-2.38
			c-2.81-0.36-5.24,3.18-4.34,5.7c11.04,30.87,22.08,61.75,33.12,92.62c3.08,8.62,6.16,17.24,9.25,25.86c1.45-1.9,2.89-3.8,4.34-5.7
			c-22.06,0.19-44.12,0.38-66.18,0.58c-6.24,0.05-12.49,0.11-18.73,0.16c1.45,1.9,2.89,3.8,4.34,5.7
			c10.86-30.58,21.73-61.16,32.59-91.73c3.06-8.62,6.13-17.25,9.19-25.87c0.79-2.22-0.89-5.02-3.14-5.54
			c-2.52-0.57-4.69,0.76-5.54,3.14c-10.86,30.58-21.73,61.16-32.59,91.73c-3.06,8.62-6.13,17.25-9.19,25.87
			c-0.99,2.78,1.58,5.72,4.34,5.7c22.06-0.19,44.12-0.38,66.18-0.58c6.24-0.05,12.49-0.11,18.73-0.16c2.74-0.02,5.34-2.88,4.34-5.7
			c-11.04-30.87-22.08-61.75-33.12-92.62c-3.08-8.62-6.16-17.24-9.25-25.86c-1.45,1.9-2.89,3.8-4.34,5.7
			c10.96,1.4,21.93,2.8,32.89,4.2c5.2,0.66,10.42,1.52,15.64,1.95c5.28,0.43,10.5-0.71,14.26-4.66c1.03-1.08,1.92-2.29,2.8-3.49
			c0.35-0.48,0.7-0.96,1.05-1.44c0.16-0.21,0.31-0.42,0.47-0.63c-0.59,0.77,0.22-0.25,0.28-0.32c0.4-0.45,0.82-0.89,1.26-1.29
			c0.09-0.08,0.74-0.62,0.32-0.29c-0.43,0.33,0.43-0.28,0.52-0.33c0.22-0.13,0.47-0.24,0.68-0.38c-0.68,0.45,0.05,0.01,0.35-0.1
			c0.26-0.09,0.78-0.05-0.09-0.04c0.25,0,1.35,0.08,0.32-0.08c2.32,0.36,4.95-0.59,5.54-3.14
			C155.74,57.57,154.59,54.58,152.11,54.19L152.11,54.19z"/>
	</g>
</g>
<g>
	<g>
		<path class="st0" d="M32.71,185.74c1.12,17.18,19.83,25.72,34.74,28.08c15.01,2.38,30.66-0.14,43.92-7.72
			c8.02-4.58,17.38-12.29,14.41-22.75c-0.64-2.26-3.21-3.9-5.54-3.14c-2.3,0.75-3.83,3.11-3.14,5.54c0.04,0.13,0.3,1.44,0.17,0.42
			c0.05,0.41,0.02,0.82,0.04,1.24c0.08,1.17,0.24-0.7-0.03,0.45c-0.1,0.41-0.18,0.81-0.31,1.21c-0.03,0.1-0.56,1.32-0.16,0.49
			c-0.18,0.38-0.38,0.75-0.59,1.11c-0.21,0.36-0.45,0.7-0.69,1.04c0.51-0.71-0.5,0.56-0.62,0.69c-0.57,0.61-1.17,1.18-1.81,1.72
			c-0.32,0.27-0.64,0.54-0.97,0.79c0.73-0.57-0.37,0.26-0.43,0.3c-1.41,1.01-2.87,1.95-4.36,2.83c-1.37,0.8-2.77,1.55-4.2,2.23
			c-0.6,0.29-1.2,0.55-1.8,0.83c-1.19,0.55,0.83-0.32-0.38,0.17c-0.49,0.2-0.98,0.39-1.48,0.58c-3.09,1.17-6.28,2.09-9.52,2.76
			c-0.78,0.16-1.56,0.31-2.34,0.44c-0.39,0.07-0.78,0.12-1.18,0.18c-1.31,0.21,0.94-0.09-0.38,0.05c-1.71,0.19-3.42,0.35-5.15,0.42
			c-3.17,0.13-6.36,0.01-9.51-0.34c-0.14-0.02-1.46-0.19-0.38-0.04c-0.39-0.05-0.79-0.11-1.18-0.18c-0.78-0.12-1.56-0.26-2.34-0.42
			c-1.69-0.34-3.36-0.74-5.01-1.22c-1.52-0.44-3.03-0.95-4.51-1.51c-0.37-0.14-0.74-0.29-1.11-0.44c-0.81-0.32-0.19-0.08-0.02-0.01
			c-0.91-0.39-1.8-0.8-2.69-1.24c-1.78-0.89-3.51-1.89-5.14-3.04c-0.04-0.03-1.15-0.88-0.45-0.32c-0.44-0.35-0.88-0.72-1.3-1.1
			c-0.72-0.65-1.4-1.34-2.04-2.07c-0.06-0.07-0.89-1.11-0.31-0.34c-0.33-0.43-0.63-0.87-0.92-1.32c-0.51-0.79-0.95-1.62-1.35-2.47
			c0.43,0.89-0.11-0.29-0.15-0.41c-0.18-0.5-0.34-1.01-0.47-1.53c-0.1-0.39-0.17-0.78-0.26-1.17c-0.09-0.53-0.09-0.52-0.01,0.01
			c-0.03-0.27-0.05-0.53-0.06-0.8c-0.15-2.34-1.96-4.61-4.5-4.5C34.91,181.34,32.55,183.22,32.71,185.74L32.71,185.74z"/>
	</g>
</g>
<g>
	<g>
		<path class="st0" d="M221.37,85.44c-10.8,30.96-21.6,61.91-32.4,92.87c-3.07,8.8-6.14,17.6-9.21,26.4
			c-0.96,2.75,1.56,5.75,4.34,5.7c13.77-0.29,27.53-0.58,41.3-0.87c6.8-0.14,13.6-0.29,20.4-0.43c3.48-0.07,6.97-0.15,10.45-0.22
			c1.5-0.03,3-0.11,4.5-0.07c0.25,0.01,0.51,0.03,0.76,0.04c1.17,0.04-0.81-0.28,0.29,0.06c0.24,0.07,0.47,0.13,0.7,0.21
			c-0.51-0.23-0.54-0.22-0.09,0.02c-0.4-0.35-0.42-0.36-0.06-0.02c-0.08-0.06-0.56-0.79-0.07-0.07c0.64,0.94-0.32-0.84,0.08,0.23
			c0.11,0.31-0.01,0.71,0.01-0.13c-0.01,0.29-0.01,0.62,0,0.91c0.03,0.59,0.34-0.91-0.03,0.06c0,0-0.4,1.14-0.16,0.56
			c0.25-0.59-0.32,0.57-0.3,0.54c-0.2,0.35-0.43,0.68-0.66,1.01c0.54-0.77-0.24,0.28-0.31,0.36c-0.18,0.2-0.36,0.4-0.55,0.6
			c-0.45,0.49-0.92,0.96-1.4,1.42c-1.03,1.01-2.12,1.96-3.24,2.87c0.03-0.02-0.98,0.78-0.47,0.38c0.51-0.4-0.51,0.38-0.49,0.36
			c-0.53,0.39-1.06,0.77-1.61,1.13c-1.19,0.81-2.42,1.57-3.68,2.27c-1.09,0.61-2.2,1.18-3.33,1.71c-0.3,0.14-0.6,0.28-0.89,0.41
			c0.03-0.01-1.16,0.49-0.55,0.24c0.61-0.25-0.58,0.23-0.56,0.22c-0.37,0.14-0.73,0.28-1.1,0.42c-2.59,0.95-5.25,1.7-7.95,2.23
			c-0.64,0.13-1.29,0.24-1.94,0.34c-0.26,0.04-0.52,0.08-0.78,0.12c1.09-0.15-0.22,0.02-0.37,0.03c-1.43,0.16-2.87,0.25-4.32,0.29
			c-1.25,0.03-2.49,0.01-3.74-0.06c-0.66-0.03-1.31-0.08-1.96-0.14c-0.33-0.03-0.65-0.07-0.98-0.1c-1.08-0.1,0.67,0.12-0.31-0.04
			c-2.64-0.41-5.23-0.99-7.77-1.8c-0.72-0.23-1.44-0.48-2.16-0.74c-0.24-0.09-0.48-0.18-0.71-0.27c-0.12-0.05-1.39-0.55-0.87-0.34
			c0.63,0.26-0.52-0.23-0.51-0.23c-0.35-0.15-0.69-0.31-1.04-0.48c-0.69-0.33-1.37-0.67-2.04-1.02c-2.58-1.36-5.05-2.94-7.37-4.71
			c0.82,0.63-0.18-0.15-0.29-0.24c-0.3-0.24-0.59-0.48-0.88-0.73c-0.58-0.49-1.15-1-1.71-1.52c-1.02-0.95-2.01-1.94-2.95-2.97
			c-0.51-0.56-1.01-1.13-1.5-1.72c-0.24-0.29-0.48-0.59-0.72-0.88c-0.61-0.74,0.39,0.55-0.23-0.29c-0.9-1.23-1.76-2.48-2.56-3.78
			c-1.23-2-4.08-2.95-6.16-1.61c-2.01,1.3-2.93,4.01-1.61,6.16c6.39,10.39,16.06,18.22,27.33,22.76c11.21,4.52,23.94,4.88,35.5,1.42
			c5.88-1.77,11.56-4.47,16.54-8.07c5.2-3.76,11.62-8.79,12.33-15.62c0.39-3.73-1.34-7.58-4.69-9.41c-3.24-1.77-7.09-1.38-10.64-1.3
			c-7.38,0.16-14.76,0.31-22.14,0.47c-16.59,0.35-33.17,0.7-49.76,1.05c1.45,1.9,2.89,3.8,4.34,5.7
			c10.8-30.96,21.6-61.91,32.4-92.87c3.07-8.8,6.14-17.6,9.21-26.4c0.78-2.23-0.88-5.02-3.14-5.54
			C224.4,81.72,222.2,83.06,221.37,85.44L221.37,85.44z"/>
	</g>
</g>
<g>
	<g>
		<path class="st0" d="M221.46,89.03c5.79,15.97,11.58,31.94,17.37,47.91c5.82,16.05,11.64,32.1,17.45,48.15
			c1.61,4.43,3.25,8.85,4.82,13.3c0.73,2.07,1.41,4.16,1.83,6.32c0.04,0.23,0.08,0.46,0.12,0.69c0.05,0.32,0.05,0.3,0-0.05
			c0.02,0.15,0.03,0.3,0.05,0.46c0.04,0.53,0.07,1.06,0.07,1.6c0,0.53-0.02,1.06-0.08,1.59c0.01-0.12,0.13-0.57,0-0.07
			c-0.1,0.37-0.16,0.75-0.26,1.12c-0.59,2.28,0.75,4.99,3.14,5.54c2.35,0.53,4.91-0.7,5.54-3.14c2.23-8.65-2.04-17.31-4.93-25.27
			c-2.92-8.06-5.85-16.13-8.77-24.19c-5.9-16.28-11.81-32.57-17.71-48.85c-3.32-9.16-6.64-18.32-9.96-27.48
			c-0.8-2.21-3.1-3.93-5.54-3.14C222.44,84.19,220.61,86.66,221.46,89.03L221.46,89.03z"/>
	</g>
</g>
<g>
	<g>
		<path class="st0" d="M152.14,32.76c3.08,0,6.31-1.34,8.49-3.51c2.08-2.08,3.65-5.5,3.51-8.49c-0.29-6.5-5.27-12-12-12
			c-3.08,0-6.31,1.34-8.49,3.51c-2.08,2.08-3.65,5.5-3.51,8.49C140.44,27.27,145.42,32.76,152.14,32.76L152.14,32.76z"/>
	</g>
</g>
<g>
	<g>
		<g>
			<path class="st0" d="M151.79,87.26c3.85,0,7.89-1.67,10.61-4.39c2.6-2.6,4.56-6.87,4.39-10.61c-0.17-3.88-1.45-7.9-4.39-10.61
				c-2.93-2.69-6.54-4.39-10.61-4.39c-3.85,0-7.89,1.67-10.61,4.39c-2.6,2.6-4.56,6.87-4.39,10.61c0.17,3.88,1.45,7.9,4.39,10.61
				C144.12,85.56,147.73,87.26,151.79,87.26L151.79,87.26z"/>
		</g>
	</g>
</g>
</svg>
