<?xml version="1.0" encoding="utf-8"?>
<!-- Generator: Adobe Illustrator 23.0.5, SVG Export Plug-In . SVG Version: 6.00 Build 0)  -->
<svg version="1.1" id="Capa_1" xmlns="http://www.w3.org/2000/svg" xmlns:xlink="http://www.w3.org/1999/xlink" x="0px" y="0px"
	 viewBox="0 0 150 150" style="enable-background:new 0 0 150 150;" xml:space="preserve">
<style type="text/css">
	.st0{fill:none;stroke:#FFFFFF;stroke-width:3;stroke-miterlimit:10;}
</style>
<path class="st0" d="M54.79,22.83c0.98,0.56,0.01,2.76,0,8.15c-0.01,5.12,0.91,8.53,1.69,11.41c0.51,1.88,1.3,4.32,3.39,6.52
	c0.43,0.46,0.78,0.76,0.85,0.82c1.93,1.7,18.35,21.1,57.62,68.48l-18.64,16.3l-27.12-30.98l-27.12,30.98l-18.64-14.67l31.62-30.98
	l-19.97-21.2l-1.66-1.63c-0.73-2.3-1.54-5.67-1.66-9.78c-0.1-3.4,0.19-9.54,3.33-16.3c1.66-3.57,3.44-5.77,6.66-9.78
	c0.39-0.49,2.15-2.65,4.99-4.89C52.14,23.69,53.89,22.31,54.79,22.83z"/>
<path class="st0" d="M89.23,39.95c-0.25,1.23-0.71,3.01-1.66,5c-1.15,2.4-2.45,3.95-3.33,5c-2.48,2.96-5.19,6.23-8.32,10
	l14.98,18.32c3.33-3.89,6.66-7.77,9.98-11.66"/>
<path class="st0" d="M100.88,66.85c2.16-3.46,4.47-8.45,4.99-14.67c0.99-11.8-4.85-23.07-13.31-29.35c-1.54-1.14-4.92-3.6-9.98-4.89
	c-2.75-0.7-6.82-0.47-14.98,0c-4.25,0.24-5.7,0.46-6.66,1.63c-0.76,0.93-0.49,1.71,0,8.15c0.47,6.14,1.18,8.58,1.66,9.78
	c0.58,1.43,1.21,2.54,1.66,3.26l24.93,0.13"/>
</svg>
