<?xml version="1.0" encoding="utf-8"?>
<!-- Generator: Adobe Illustrator 23.0.5, SVG Export Plug-In . SVG Version: 6.00 Build 0)  -->
<svg version="1.1" id="Capa_1" xmlns="http://www.w3.org/2000/svg" xmlns:xlink="http://www.w3.org/1999/xlink" x="0px" y="0px"
	 viewBox="0 0 150 150" style="enable-background:new 0 0 150 150;" xml:space="preserve">
<style type="text/css">
	.st0{fill:none;stroke:#FFFFFF;stroke-width:3;stroke-miterlimit:10;}
</style>
<path class="st0" d="M27.93,54.68c-0.79,4.08-1.62,8.49-1.31,14.39c0.38,7.15,2.22,12.32,3.92,17.01
	c1.52,4.17,4.28,11.59,10.47,19.62c4.49,5.84,8.66,9.13,17.01,15.7c6.38,5.03,9.59,6.72,13.08,7.85c2.48,0.8,6.53,2.05,11.77,1.31
	c1.9-0.27,7.32-1.11,11.77-5.23c3.69-3.42,2.04-4.75,7.85-13.08c1.92-2.76,2.93-3.8,2.62-5.23c-0.64-2.86-5.65-3.14-10.47-5.23
	c-6.56-2.86-9.98-7.9-14.39-14.39c-6.94-10.22-3.83-12.95-10.47-23.55c-4.81-7.67-10.18-12.2-14.39-15.7
	C47.7,41.75,39.8,35.2,34.47,37.68C30.92,39.33,29.92,44.44,27.93,54.68z"/>
<path class="st0" d="M41.06,29.69c-0.13,0.67,4.05,1.64,10.24,4.49c6.02,2.77,9.37,5.21,10.16,5.8c3.59,2.65,5.76,5.05,6.25,5.58
	c1.59,1.77,2.28,2.89,4.87,6.82c6.96,10.58,7.52,11.01,8.43,13.56c1.91,5.36,0.6,6.73,2.18,7.98c4.68,3.68,19.35-5.7,28.43-16.79
	c3.23-3.94,10.24-12.51,7.53-17.93c-2.18-4.37-8.91-3.14-11.33-8.48c-1.87-4.13,1.15-7.06-0.73-10.52c-1.2-2.2-4.31-4.48-12.85-4.63
	l-3.11,9l-5.3,1.02l0.57-10.45L74.64,14.5l-0.5,9.14l-7.98,2.18l-2.04-10.59l-11.9,1.97c1.84,3.3,3.92,8.02,2.04,10.59
	C51.45,31.65,41.26,28.65,41.06,29.69z"/>
<path class="st0" d="M88.71,83.46c1.69-4.71,7.66-5.28,13.08-7.85c14.13-6.7,16.49-23.23,19.62-22.24
	c3.54,1.12-0.62,21.91-1.35,25.53c-2.03,10.13-4.69,23.45-10.43,24.18c-1.93,0.25-1.98-1.22-9.16-5.23
	c-6.72-3.76-9.34-3.97-11.04-7.17C89.26,90.35,87.48,86.88,88.71,83.46z"/>
</svg>
