<?xml version="1.0" encoding="utf-8"?>
<!-- Generator: Adobe Illustrator 23.0.5, SVG Export Plug-In . SVG Version: 6.00 Build 0)  -->
<svg version="1.1" id="Capa_1" xmlns="http://www.w3.org/2000/svg" xmlns:xlink="http://www.w3.org/1999/xlink" x="0px" y="0px"
	 viewBox="0 0 150 150" style="enable-background:new 0 0 150 150;" xml:space="preserve">
<style type="text/css">
	.st0{fill:none;stroke:#FFFFFF;stroke-width:3;stroke-miterlimit:10;}
</style>
<path class="st0" d="M97.78,51.99c0,0,11.54-2.83,28.74-10.14c3.44-1.46,5.76-2.63,6.76-5.07c1.14-2.78-0.02-5.79-1.69-10.14
	c-1.51-3.93-2.72-4.74-3.38-5.07c-2.02-1.02-4.29-0.26-5.07,0c-29.57,9.68-46.19,15.47-79.45,27.05c-1.16,0.4-8.54,2.95-15.21,8.45
	c-1.22,1-3.2,2.59-5.07,5.07c-2.66,3.53-4.19,5.56-5.07,8.45c-0.99,3.24-0.73,6.11,0,10.14c2.59,14.23,7.19,21.44,11.83,33.81
	c0.23,0.62,0.7,1.89,1.69,3.38c2.28,3.45,5.38,5.14,8.45,6.76c2.78,1.47,5.22,2.77,8.45,3.38c3.78,0.72,6.79,0.16,13.52-1.69
	c9.15-2.52,15.24-5.09,27.05-10.14c2.04-0.87,4.87-2.12,6.76-5.07c0.38-0.59,3.02-4.59,1.69-8.45c-1.29-3.77-5.34-4.43-5.07-6.76
	c0.15-1.33,1.49-1.37,3.38-3.38c0.43-0.46,4.63-5.05,3.38-10.14c-0.1-0.4-0.85-3.32-3.38-5.07c-1.76-1.22-2.76-0.75-3.38-1.69
	c-1.43-2.18,3.54-5.39,3.38-10.14c-0.17-5.03-5.95-7.15-5.07-10.14C91.59,53.44,94.44,52.81,97.78,51.99z"/>
<path class="st0" d="M123.14,51.99c-1.51,0.12-2.68,2.44-8.45,21.97l0,0l0,0c-0.16,0.75-0.3,1.96,0,3.38
	c0.62,2.91,2.7,4.55,3.38,5.07c3.75,2.87,8.18,1.76,8.45,1.69c0.74-0.2,3.24-0.91,5.07-3.38c2.15-2.9,1.78-6.08,1.69-6.76l0,0
	c0,0,0,0,0,0C128.23,55.09,125.02,51.84,123.14,51.99z"/>
</svg>
