<?xml version="1.0" encoding="utf-8"?>
<!-- Generator: Adobe Illustrator 23.0.5, SVG Export Plug-In . SVG Version: 6.00 Build 0)  -->
<svg version="1.1" id="Capa_1" xmlns="http://www.w3.org/2000/svg" xmlns:xlink="http://www.w3.org/1999/xlink" x="0px" y="0px"
	 viewBox="0 0 300 250" style="enable-background:new 0 0 300 250;" xml:space="preserve">
<style type="text/css">
	.st0{fill:#FFFFFF;}
	.st1{fill:none;stroke:#FFFFFF;stroke-width:10;stroke-miterlimit:10;}
</style>
<g>
	<g>
		<path class="st0" d="M247.32,169.89c1.13-0.54-0.83,0.2,0.37-0.16c0.38-0.11,0.74-0.24,1.13-0.34c0.38-0.1,0.77-0.17,1.15-0.24
			c-1.07,0.18,0.2,0.01,0.37,0c0.39-0.02,0.79-0.02,1.18,0c0.16,0.01,1.45,0.15,0.37-0.01c0.91,0.13,1.78,0.39,2.66,0.68
			c1.14,0.38-0.66-0.45,0.36,0.18c0.34,0.2,0.69,0.37,1.02,0.58c0.13,0.08,1.11,0.86,0.31,0.18c0.28,0.24,0.56,0.48,0.83,0.74
			c0.27,0.26,0.51,0.54,0.76,0.81c0.8,0.85-0.41-0.73,0.2,0.27c0.46,0.75,0.92,1.47,1.27,2.27c-0.43-0.99,0.02,0.16,0.07,0.32
			c0.09,0.3,0.18,0.59,0.25,0.9c0.07,0.3,0.13,0.61,0.19,0.91c-0.23-1.1,0,0.06,0.01,0.28c0.04,0.75,0.02,1.5-0.07,2.24
			c0.14-1.12-0.06,0.12-0.1,0.29c-0.11,0.49-0.25,0.96-0.41,1.44c-0.06,0.16-0.54,1.28-0.09,0.31c-0.16,0.34-0.32,0.68-0.49,1.01
			c-0.35,0.67-0.75,1.31-1.17,1.93c-0.22,0.31-0.44,0.63-0.67,0.93c0.62-0.81-0.18,0.19-0.26,0.29c-0.59,0.69-1.21,1.36-1.86,2
			c-2.3,2.29-4.87,4.3-7.43,6.3c-0.35,0.28-0.71,0.55-1.06,0.83c0.66-0.51-0.51,0.39-0.51,0.39c-0.71,0.55-1.43,1.09-2.15,1.63
			c-1.56,1.17-3.13,2.32-4.72,3.45c-5.97,4.26-12.13,8.25-18.54,11.81c-3.27,1.81-6.59,3.52-9.99,5.08
			c-0.68,0.31-1.36,0.62-2.04,0.92c-0.42,0.19-0.85,0.37-1.27,0.55c-1.39,0.6,0.77-0.31-0.63,0.26c-1.85,0.76-3.72,1.49-5.61,2.16
			c-7.1,2.54-14.44,4.44-21.91,5.49c0.89-0.13-0.61,0.08-0.63,0.08c-0.46,0.06-0.91,0.11-1.37,0.16c-0.92,0.1-1.83,0.18-2.75,0.25
			c-1.99,0.15-3.98,0.25-5.98,0.27c-3.63,0.04-7.26-0.14-10.87-0.55c-0.44-0.05-0.88-0.1-1.32-0.16c0.94,0.12-0.5-0.07-0.56-0.08
			c-0.88-0.13-1.75-0.27-2.63-0.42c-1.89-0.33-3.77-0.72-5.64-1.15c-3.45-0.81-6.87-1.79-10.23-2.9c-1.97-0.65-3.93-1.35-5.87-2.09
			c-0.97-0.37-1.94-0.75-2.91-1.14c-0.41-0.17-0.83-0.34-1.24-0.51c-0.28-0.11-0.55-0.23-0.83-0.34c0.39,0.16,0.33,0.14-0.16-0.07
			c-3.72-1.61-7.39-3.31-11.02-5.11c-7.53-3.73-14.89-7.82-22.23-11.92c-2.06-1.15-5.01-0.56-6.16,1.61
			c-1.12,2.12-0.58,4.93,1.61,6.16c13.87,7.75,27.86,15.43,42.84,20.85c15,5.43,30.94,8.06,46.86,6.2
			c16.49-1.92,32.18-7.63,46.68-15.63c6.81-3.76,13.35-8.01,19.66-12.55c3.35-2.41,6.64-4.91,9.89-7.46c2.8-2.19,5.6-4.4,8.03-7.01
			c5.18-5.56,8.61-13.25,5.87-20.82c-2.79-7.71-10.37-13.01-18.7-12c-2.29,0.28-4.3,0.86-6.38,1.86c-2.13,1.02-2.86,4.23-1.61,6.16
			C242.57,170.46,245.05,170.99,247.32,169.89L247.32,169.89z"/>
	</g>
</g>
<g>
	<g>
		<path class="st0" d="M94.24,155.75c0.73-0.18,1.47-0.34,2.21-0.47c0.29-0.05,0.59-0.1,0.89-0.15c1.4-0.22-0.48,0.01,0.36-0.04
			c1.42-0.08,2.81-0.23,4.23-0.22c1.42,0,2.83,0.08,4.24,0.22c0.37,0.04,0.74,0.08,1.12,0.12c-0.2-0.02-0.78-0.12,0.14,0.02
			c0.74,0.12,1.49,0.24,2.23,0.38c2.84,0.55,5.63,1.32,8.38,2.23c1.38,0.46,2.75,0.95,4.11,1.48c0.64,0.25,1.28,0.5,1.92,0.76
			c0.28,0.12,0.57,0.23,0.85,0.35c-0.69-0.29,0.48,0.21,0.61,0.26c10.63,4.62,20.81,10.5,32.06,13.55
			c5.86,1.59,11.85,2.03,17.88,2.41c1.46,0.09,2.92,0.19,4.38,0.33c0.69,0.07,1.37,0.14,2.06,0.23c-0.71-0.09,0.06,0.01,0.17,0.03
			c0.45,0.08,0.91,0.15,1.36,0.23c1.42,0.26,2.83,0.6,4.21,1.04c0.33,0.1,0.65,0.23,0.98,0.33c0.14,0.04,0.8,0.32,0.08,0.01
			c0.63,0.27,1.25,0.59,1.84,0.95c-0.05-0.03,1.04,0.73,0.55,0.35c-0.49-0.38,0.51,0.49,0.48,0.45c0.19,0.19,0.36,0.38,0.53,0.58
			c-0.59-0.68-0.07-0.06,0.06,0.16c0.13,0.21,0.48,0.97,0.13,0.1c0.09,0.23,0.17,0.47,0.24,0.71c0.07,0.24,0.12,0.48,0.16,0.72
			c-0.18-1.07-0.08-0.01-0.08,0.27c0.02-0.98-0.03-0.23-0.07,0.06c-0.09,0.61,0.49-0.81-0.06,0.09c-0.42,0.7-0.05,0.1,0.07-0.03
			c-0.2,0.23-0.44,0.42-0.64,0.65c-0.4,0.45,0.83-0.41-0.12,0.07c-0.22,0.11-0.44,0.25-0.65,0.37c-0.72,0.4-0.12,0.05,0.05-0.01
			c-0.38,0.13-0.76,0.25-1.16,0.34c-0.03,0.01-1.5,0.23-0.64,0.14c-0.31,0.03-0.62,0.05-0.93,0.06c-0.7,0.03-1.4,0.03-2.11,0.01
			c-1.54-0.04-3.07-0.13-4.61-0.2c-3.13-0.15-6.27-0.29-9.4-0.44c-14.19-0.66-28.38-1.33-42.57-1.99c-2.35-0.11-4.61,2.15-4.5,4.5
			c0.12,2.65,1.98,4.24,4.5,4.5c10.11,1.05,20.22,2.1,30.33,3.15c9.14,0.95,18.33,2.18,27.54,2.24c9.09,0.07,18.23-1.2,26.49-5.17
			c4.23-2.03,7.97-4.9,11.57-7.88c1.75-1.45,3.47-2.96,5.2-4.43c0.77-0.65,1.54-1.3,2.32-1.94c0.45-0.36,0.9-0.72,1.35-1.08
			c-0.57,0.45,0.63-0.47,0.81-0.6c1.96-1.44,4.01-2.76,6.18-3.85c0.25-0.13,0.51-0.25,0.77-0.37c0.09-0.04,1.11-0.49,0.63-0.29
			c-0.47,0.2,0.35-0.13,0.46-0.17c0.33-0.13,0.67-0.25,1.01-0.36c1.06-0.35,2.15-0.63,3.25-0.83c0.2-0.03,0.39-0.06,0.59-0.1
			c-0.94,0.16-0.02,0.01,0.18-0.01c0.59-0.05,1.18-0.08,1.78-0.09c0.52,0,1.05,0.01,1.57,0.05c0.26,0.02,0.52,0.04,0.78,0.07
			c-0.65-0.06-0.27-0.04,0.16,0.04c1.08,0.2,2.14,0.5,3.16,0.9c-0.85-0.34,0.42,0.23,0.67,0.37c0.57,0.32,1.11,0.67,1.63,1.06
			c1.91,1.39,5.1,0.39,6.16-1.61c1.23-2.34,0.42-4.67-1.61-6.16c-7.81-5.68-18.44-4.17-26.48,0.11c-4.13,2.2-7.83,5.18-11.39,8.2
			c-1.68,1.43-3.34,2.88-5.03,4.29c-0.84,0.71-1.7,1.4-2.56,2.09c-0.58,0.46,0.46-0.34-0.13,0.1c-0.23,0.18-0.47,0.35-0.7,0.53
			c-0.53,0.39-1.07,0.77-1.61,1.14c-1.79,1.22-3.66,2.31-5.62,3.22c-0.25,0.12-0.51,0.23-0.77,0.35c-0.13,0.06-0.8,0.31-0.08,0.04
			c-0.46,0.17-0.91,0.36-1.37,0.52c-1.05,0.38-2.11,0.72-3.18,1.02c-2.09,0.58-4.21,1-6.35,1.32c0.92-0.14-0.7,0.08-0.89,0.1
			c-0.49,0.05-0.98,0.1-1.47,0.14c-1.13,0.1-2.26,0.17-3.39,0.21c-9.07,0.35-18.12-0.78-27.13-1.72c-11.6-1.2-23.21-2.41-34.81-3.61
			c0,3,0,6,0,9c13.36,0.63,26.73,1.25,40.09,1.88c3.46,0.16,6.93,0.32,10.39,0.49c3.17,0.15,6.42,0.51,9.59,0.15
			c3.38-0.38,6.72-1.54,9.06-4.15c2.45-2.73,3.34-6.53,2.25-10.05c-2.08-6.73-8.96-9.61-15.34-10.79c-3.26-0.61-6.58-0.9-9.89-1.11
			c-1.54-0.1-3.08-0.18-4.62-0.29c-0.77-0.05-1.54-0.11-2.31-0.18c-0.31-0.03-0.61-0.06-0.92-0.09c-0.31-0.03-0.61-0.06-0.92-0.1
			c-0.51-0.06-0.61-0.08-0.32-0.03c0.6,0.07-0.86-0.13-0.76-0.11c-0.37-0.06-0.74-0.12-1.1-0.19c-0.66-0.12-1.32-0.25-1.97-0.39
			c-1.6-0.35-3.18-0.76-4.74-1.23c-2.85-0.86-5.64-1.9-8.4-3.03c-1.33-0.55,0.41,0.18-0.37-0.16c-0.34-0.15-0.69-0.3-1.03-0.45
			c-0.69-0.3-1.37-0.61-2.05-0.91c-1.37-0.62-2.73-1.25-4.09-1.89c-2.85-1.35-5.69-2.72-8.55-4.04
			c-13.05-6.04-27.45-11.03-41.92-7.53c-2.29,0.55-3.88,3.27-3.14,5.54C89.47,154.98,91.78,156.34,94.24,155.75L94.24,155.75z"/>
	</g>
</g>
<g>
	<g>
		<path class="st0" d="M181.05,142.78c0-0.39,0-0.78,0.03-1.17c0.02-0.26,0.04-0.51,0.07-0.77c-0.01,0.07-0.15,0.76-0.02,0.25
			c0.21-0.87,0.37-1.73,0.67-2.58c0.06-0.18,0.13-0.36,0.19-0.54c0.02-0.07,0.27-0.65,0.06-0.17c-0.19,0.43,0.35-0.72,0.42-0.86
			c0.42-0.81,0.88-1.59,1.39-2.34c0.22-0.33,0.45-0.65,0.68-0.97c0.49-0.68-0.27,0.3,0.27-0.34c0.6-0.72,1.21-1.42,1.85-2.09
			c1.24-1.3,2.56-2.51,3.94-3.65c5.77-4.81,12.08-8.9,16.36-15.22c2.27-3.35,3.66-7.25,4.85-11.09c0.58-1.88,1.11-3.78,1.72-5.65
			c0.29-0.9,0.6-1.79,0.93-2.68c0.07-0.18,0.47-1.2,0.31-0.8c-0.2,0.47,0.06-0.13,0.08-0.19c0.14-0.3,0.27-0.6,0.41-0.89
			c0.73-1.54,1.56-3.03,2.48-4.47c0.46-0.72,0.94-1.42,1.45-2.11c0.16-0.22,0.73-0.92,0.25-0.34c0.33-0.4,0.66-0.82,1-1.21
			c1.15-1.34,2.4-2.61,3.72-3.79c0.64-0.57,1.29-1.11,1.96-1.65c-0.59,0.47,0.12-0.08,0.35-0.25c0.37-0.27,0.75-0.53,1.13-0.79
			c1.76-1.18,3.62-2.22,5.54-3.11c0.2-0.09,0.4-0.18,0.59-0.27c-0.68,0.31,0.19-0.08,0.33-0.13c0.47-0.19,0.94-0.36,1.42-0.53
			c1.02-0.36,2.06-0.68,3.11-0.96c1.05-0.28,2.11-0.52,3.17-0.71c0.21-0.04,0.43-0.08,0.64-0.11c0.31-0.05,0.97-0.15,0.31-0.06
			c0.5-0.07,1-0.12,1.51-0.16c2.23-0.2,4.48-0.2,6.71-0.04c-1.45-1.1-2.89-2.2-4.34-3.3c0.1,0.5,0.19,1.01,0.26,1.52
			c-0.16-1.11,0.04,0.68,0.06,0.9c0.08,1.14,0.09,2.29,0.04,3.43c-0.02,0.51-0.06,1.01-0.11,1.52c-0.02,0.25-0.06,0.51-0.08,0.76
			c-0.08,0.75,0.21-1.08-0.03,0.13c-0.2,1.07-0.4,2.13-0.68,3.18c-0.28,1.05-0.61,2.09-0.98,3.11c-0.1,0.26-0.63,1.58-0.26,0.71
			c-0.25,0.59-0.52,1.18-0.81,1.75c-0.97,1.97-2.11,3.85-3.41,5.62c-0.15,0.21-0.31,0.42-0.46,0.62c0.51-0.67,0.09-0.12-0.02,0
			c-0.33,0.4-0.66,0.8-1,1.18c-0.77,0.87-1.57,1.71-2.42,2.51c-0.82,0.77-1.68,1.49-2.55,2.2c-0.55,0.45,0.51-0.36-0.06,0.05
			c-0.28,0.2-0.55,0.41-0.83,0.6c-0.5,0.36-1.01,0.7-1.52,1.03c-2,1.3-4.11,2.43-6.29,3.41c-0.25,0.11-0.5,0.22-0.75,0.33
			c0.17-0.07,0.76-0.3-0.06,0.02c-0.51,0.2-1.02,0.4-1.53,0.58c-1.16,0.42-2.34,0.8-3.52,1.14c-2.52,0.72-5.08,1.25-7.67,1.64
			c-0.89,0.13-0.22,0.03-0.03,0.01c-0.41,0.05-0.82,0.1-1.23,0.14c-0.69,0.07-1.37,0.13-2.06,0.18c-1.37,0.1-2.74,0.15-4.12,0.17
			c-2.35,0.03-4.61,2.05-4.5,4.5c0.11,2.41,1.98,4.53,4.5,4.5c10.69-0.15,21.58-2.6,30.77-8.2c9.02-5.5,16-14,19.12-24.14
			c1.75-5.69,2.03-11.67,0.91-17.5c-0.39-2.03-2.47-3.17-4.34-3.3c-16.68-1.23-32.98,7.39-41.57,21.69
			c-2.1,3.5-3.62,7.32-4.83,11.22c-0.6,1.95-1.16,3.91-1.78,5.85c-0.29,0.9-0.59,1.79-0.93,2.67c-0.1,0.27-0.21,0.54-0.31,0.81
			c0.03-0.08,0.25-0.55,0.03-0.08c-0.24,0.53-0.48,1.05-0.74,1.56c-0.42,0.82-0.87,1.62-1.38,2.39c-0.26,0.39-0.54,0.77-0.81,1.16
			c-0.28,0.42,0.04-0.05,0.09-0.11c-0.17,0.21-0.34,0.42-0.51,0.62c-1.21,1.44-2.55,2.77-3.95,4.02c-2.85,2.54-5.94,4.77-8.91,7.16
			c-6.92,5.57-13.3,13.13-13.27,22.49c0.01,2.35,2.06,4.61,4.5,4.5C178.98,147.17,181.06,145.3,181.05,142.78L181.05,142.78z"/>
	</g>
</g>
<g>
	<g>
		<path class="st0" d="M181.63,132.35c-4.28-11.89-8.57-23.85-10.96-36.29c-0.28-1.47-0.54-2.95-0.76-4.42
			c-0.06-0.39-0.12-0.78-0.17-1.17c0.09,0.67-0.02-0.12-0.03-0.21c-0.12-0.94-0.22-1.88-0.32-2.82c-0.31-3.23-0.46-6.47-0.69-9.71
			c-0.42-5.96-1.17-11.9-3.04-17.59c-6.9-20.99-24.49-36.78-45.3-43.44c-12.81-4.1-26.44-4.73-39.7-2.81
			c-2.09,0.3-3.1,2.54-3.3,4.34c-2.13,18.75,3.59,37.92,15.24,52.69c5.31,6.73,11.93,12.47,19.27,16.9
			c7.8,4.72,16.32,7.64,25.22,9.43c5.39,1.08,10.84,1.98,16.03,3.83c0.52,0.18,1.03,0.38,1.54,0.58c0.82,0.32,0.23,0.09,0.06,0.02
			c0.31,0.13,0.62,0.27,0.93,0.42c1.11,0.51,2.2,1.08,3.24,1.71c0.52,0.31,1.03,0.64,1.54,0.99c0.22,0.15,0.44,0.31,0.66,0.47
			c0.67,0.47-0.16-0.17,0.21,0.16c0.96,0.87,1.91,1.7,2.78,2.66c1.58,1.75,4.78,1.73,6.36,0c1.72-1.87,1.68-4.49,0-6.36
			c-6.38-7.09-15.81-10.08-24.87-11.94c-4.74-0.98-9.53-1.76-14.19-3.12c-2-0.58-3.97-1.26-5.91-2.03c-0.26-0.1-1.57-0.66-0.73-0.29
			c-0.42-0.18-0.84-0.36-1.25-0.55c-0.95-0.43-1.89-0.88-2.81-1.36c-3.65-1.87-7.13-4.07-10.4-6.55c0.73,0.56-0.46-0.37-0.63-0.5
			c-0.35-0.29-0.71-0.58-1.05-0.87c-0.85-0.71-1.68-1.45-2.49-2.2c-1.48-1.37-2.9-2.81-4.25-4.31c-0.65-0.73-1.29-1.46-1.91-2.22
			c-0.33-0.4-0.65-0.81-0.98-1.22c0.04,0.05,0.41,0.55,0.11,0.14c-0.2-0.26-0.39-0.52-0.59-0.78c-1.3-1.76-2.51-3.58-3.63-5.46
			c-1.12-1.89-2.15-3.83-3.08-5.82c-0.21-0.45-0.42-0.9-0.62-1.35c-0.11-0.26-0.23-0.52-0.34-0.78c0.29,0.7,0.01,0.02-0.04-0.1
			c-0.41-1.06-0.82-2.11-1.2-3.18c-0.84-2.41-1.54-4.87-2.11-7.35c-0.27-1.17-0.5-2.36-0.71-3.54c-0.11-0.63-0.21-1.26-0.3-1.89
			c-0.02-0.15-0.1-0.89-0.01-0.07c-0.04-0.35-0.09-0.7-0.12-1.06c-0.55-5.01-0.53-10.06,0.04-15.06c-1.1,1.45-2.2,2.89-3.3,4.34
			c-0.06,0.01,1.33-0.18,0.68-0.1c-0.65,0.08,0.74-0.09,0.68-0.08c0.64-0.07,1.28-0.14,1.92-0.2c1.5-0.14,3-0.25,4.5-0.31
			c2.72-0.12,5.44-0.11,8.16,0.03c1.29,0.07,2.57,0.16,3.85,0.29c0.71,0.07,1.42,0.15,2.13,0.24c0.91,0.11,0.27,0.04,0.08,0.01
			c0.42,0.06,0.85,0.12,1.27,0.19c2.82,0.44,5.61,1.03,8.37,1.78c2.61,0.71,5.18,1.55,7.7,2.54c0.26,0.1,0.53,0.21,0.79,0.32
			c1.3,0.51-0.78-0.36,0.5,0.21c0.52,0.23,1.04,0.46,1.56,0.7c1.29,0.6,2.57,1.24,3.82,1.92c2.3,1.24,4.52,2.62,6.66,4.13
			c0.41,0.29,0.82,0.59,1.23,0.89c0.11,0.08,1.11,0.86,0.3,0.22c0.2,0.16,0.4,0.31,0.6,0.47c0.99,0.79,1.96,1.61,2.9,2.46
			c1.84,1.65,3.58,3.41,5.22,5.27c0.8,0.9,1.56,1.83,2.31,2.77c0.11,0.14,0.5,0.68-0.01-0.01c0.15,0.2,0.3,0.4,0.46,0.61
			c0.45,0.61,0.89,1.23,1.32,1.85c1.36,1.98,2.6,4.03,3.71,6.16c0.53,1,1.02,2.02,1.49,3.06c0.16,0.34,0.31,0.69,0.46,1.04
			c-0.07-0.15-0.33-0.82-0.02-0.03c0.26,0.64,0.51,1.29,0.74,1.94c0.84,2.31,1.52,4.67,2.04,7.07c0.66,3.03,0.83,4.72,1.09,7.79
			c0.53,6.5,0.81,12.97,1.85,19.41c2.21,13.6,6.89,26.63,11.53,39.55c0.79,2.21,3.1,3.93,5.54,3.14
			C180.67,137.18,182.49,134.72,181.63,132.35L181.63,132.35z"/>
	</g>
</g>
<path class="st1" d="M86.55,229.7H38.27c-1.37,0-2.49-1.12-2.49-2.49v-92.67c0-1.37,1.12-2.49,2.49-2.49h48.28
	c1.37,0,2.49,1.12,2.49,2.49v92.67C89.04,228.58,87.92,229.7,86.55,229.7z"/>
</svg>
