<?xml version="1.0" encoding="utf-8"?>
<!-- Generator: Adobe Illustrator 23.0.5, SVG Export Plug-In . SVG Version: 6.00 Build 0)  -->
<svg version="1.1" id="Capa_1" xmlns="http://www.w3.org/2000/svg" xmlns:xlink="http://www.w3.org/1999/xlink" x="0px" y="0px"
	 viewBox="0 0 450 400" style="enable-background:new 0 0 450 400;" xml:space="preserve">
<style type="text/css">
	.st0{fill:#FFFFFF;}
	.st1{fill:#EBEBEB;}
	.st2{opacity:0.54;fill:#29AAE1;}
	.st3{fill:#29AAE1;}
	.st4{fill:#009145;}
	.st5{fill:#39B44A;}
	.st6{fill:#FFAFB5;}
	.st7{fill:#FFD97F;}
	.st8{fill:#FFB1B4;}
	.st9{fill:#B5C57F;}
	.st10{fill:#FFD780;}
	.st11{fill:#6151BB;}
	.st12{fill:#605CAA;}
	.st13{fill:#006837;}
	.st14{fill:#6463AC;stroke:#6463AC;stroke-width:0.25;stroke-miterlimit:10;}
</style>
<g>
	<g>
		<path class="st0" d="M136.37,207.75c1.93,0,1.93-3,0-3C134.44,204.75,134.44,207.75,136.37,207.75L136.37,207.75z"/>
	</g>
</g>
<g>
	<g>
		<path class="st0" d="M144.03,182.42c1.93,0,1.93-3,0-3C142.1,179.42,142.1,182.42,144.03,182.42L144.03,182.42z"/>
	</g>
</g>
<g>
	<g>
		<path class="st0" d="M304.09,302.89c21.83-7.68,45.36-16.73,58.42-37.11c7.25-11.31,10.09-25.44,8.94-38.73
			c-1.22-14-6.15-27.33-13.28-39.38c-11.87-20.05-29.71-36.66-50.39-47.36c-21.19-10.96-45.28-15.97-69.07-13.49
			c-24.89,2.59-48.42,12.11-67.93,27.8c-2.28,1.83-4.48,3.76-6.62,5.76c-2.87,2.69-2.92,7.93,0,10.61c3.07,2.82,7.55,2.87,10.61,0
			c2.52-2.37,5.15-4.6,7.87-6.75c1.18-0.93-1.46,1.1-0.25,0.2c0.32-0.24,0.64-0.48,0.96-0.72c0.75-0.55,1.5-1.1,2.26-1.64
			c1.36-0.96,2.73-1.89,4.13-2.79c5.76-3.71,11.84-6.89,18.14-9.57c-0.6,0.25-1.19,0.5-1.79,0.76c9.94-4.18,20.39-7.05,31.07-8.51
			c-0.66,0.09-1.33,0.18-1.99,0.27c10.29-1.37,20.71-1.41,31-0.03c-0.66-0.09-1.33-0.18-1.99-0.27c10.06,1.38,19.88,4.12,29.24,8.04
			c-0.6-0.25-1.19-0.5-1.79-0.76c5.25,2.22,10.35,4.8,15.24,7.73c2.39,1.43,4.73,2.95,7.02,4.55c1.14,0.8,2.27,1.61,3.39,2.45
			c0.5,0.37,2.26,1.82,0.29,0.21c0.59,0.48,1.2,0.94,1.79,1.42c4.38,3.55,8.51,7.4,12.35,11.53c1.94,2.09,3.8,4.24,5.59,6.47
			c0.39,0.48,1.76,2.31,0.24,0.27c0.38,0.51,0.77,1.01,1.15,1.51c0.91,1.22,1.79,2.46,2.65,3.71c3.95,5.78,7.38,11.93,10.13,18.38
			c-0.25-0.6-0.5-1.19-0.76-1.79c2.75,6.52,4.75,13.33,5.71,20.35c-0.09-0.66-0.18-1.33-0.27-1.99c0.72,5.54,0.76,11.13,0.03,16.67
			c0.09-0.66,0.18-1.33,0.27-1.99c-0.66,4.79-1.89,9.48-3.75,13.94c0.25-0.6,0.5-1.19,0.76-1.79c-1.45,3.4-3.26,6.64-5.43,9.64
			c-0.23,0.32-0.61,0.68-0.77,1.04c-0.05,0.11,1.1-1.39,0.61-0.79c-0.12,0.14-0.23,0.29-0.34,0.43c-0.54,0.67-1.09,1.32-1.66,1.96
			c-1.13,1.27-2.33,2.5-3.58,3.66c-1.2,1.13-2.45,2.21-3.74,3.24c-0.19,0.15-0.39,0.3-0.58,0.46c-0.6,0.48,0.9-0.66,0.79-0.61
			c-0.3,0.13-0.62,0.47-0.89,0.66c-0.74,0.55-1.5,1.08-2.26,1.6c-2.83,1.93-5.79,3.68-8.82,5.28c-3.47,1.84-7.05,3.49-10.66,5.02
			c0.6-0.25,1.19-0.5,1.79-0.76c-5.84,2.46-11.8,4.63-17.78,6.73c-1.86,0.65-3.46,1.7-4.48,3.45c-0.94,1.61-1.34,3.98-0.76,5.78
			C296.05,301.3,300.13,304.28,304.09,302.89L304.09,302.89z"/>
	</g>
</g>
<g>
	<g>
		<path class="st0" d="M202.02,257.09c3.73-0.73,7.46-1.46,11.19-2.19c-0.47-0.36-0.95-0.72-1.42-1.08
			c0.15,3.17,0.76,6.29,1.63,9.34c0.44,1.55,0.94,3.08,1.47,4.6c0.45,1.29,1.41,2.99,1.28,4.39c-0.11,1.23-1.47,1.74-2.55,1.72
			c-1.52-0.02-2.97-0.77-4.38-1.25c-2.97-1.01-6.11-1.5-9.25-1.5c-1.45,0-1.45,2.25,0,2.25c3.67,0.01,7,0.85,10.43,2.07
			c2.51,0.89,5.96,1.17,7.51-1.53c0.74-1.29,0.48-2.79,0.03-4.14c-0.59-1.77-1.24-3.51-1.8-5.28c-1.1-3.47-1.95-7.02-2.13-10.67
			c-0.04-0.77-0.69-1.23-1.42-1.08c-3.73,0.73-7.46,1.46-11.19,2.19C200,255.2,200.6,257.37,202.02,257.09L202.02,257.09z"/>
	</g>
</g>
<g>
	<g>
		<path class="st0" d="M298.2,165.71c1.61,1.04,3.19,2.11,4.76,3.22c0.75,0.53,1.5,1.08,2.24,1.63c0.4,0.3,0.79,0.59,1.19,0.9
			c0.17,0.13,0.34,0.25,0.51,0.39c-0.2-0.17-1.3-1.01-0.51-0.39c3,2.38,5.92,4.86,8.71,7.49c2.79,2.62,5.47,5.37,8.02,8.22
			c1.27,1.43,2.52,2.89,3.73,4.37c0.57,0.7,1.22,1.4,1.73,2.16c-0.06-0.08-1.13-1.48-0.39-0.51c0.13,0.17,0.26,0.34,0.39,0.51
			c0.3,0.4,0.6,0.79,0.89,1.19c2.65,3.59,5.12,7.33,6.87,11.45c-0.25-0.6-0.5-1.19-0.76-1.79c0.93,2.27,1.6,4.61,1.94,7.04
			c-0.09-0.66-0.18-1.33-0.27-1.99c0.31,2.65,0.22,5.29-0.11,7.93c0.09-0.66,0.18-1.33,0.27-1.99c-0.75,5.41-2.3,10.72-3.94,15.92
			c-1.62,5.13-3.51,10.17-5.6,15.13c0.25-0.6,0.5-1.19,0.76-1.79c-3.8,8.94-8.28,17.57-13.28,25.89c-2.02,3.37-0.86,8.39,2.69,10.26
			c3.8,2.01,7.9,0.78,10.26-2.69c10.62-15.58,21.23-31.15,31.85-46.73c2.22-3.25,0.72-8.46-2.69-10.26
			c-3.8-2.01-7.9-0.78-10.26,2.69c-10.62,15.58-21.23,31.15-31.85,46.73c4.32,2.52,8.63,5.05,12.95,7.57
			c9.86-16.41,18.03-34.28,22.47-52.95c1.21-5.1,2.09-10.46,1.49-15.7c-0.64-5.52-2.49-10.63-5.27-15.44
			c-2.46-4.27-5.52-8.21-8.58-12.06c-2.7-3.38-5.56-6.63-8.58-9.73c-7.22-7.41-15.35-13.98-24.03-19.6
			c-3.3-2.14-8.43-0.78-10.26,2.69C293.54,159.18,294.68,163.43,298.2,165.71L298.2,165.71z"/>
	</g>
</g>
<g>
	<g>
		<path class="st0" d="M124.47,158.88c1.93,0,1.93-3,0-3C122.54,155.88,122.54,158.88,124.47,158.88L124.47,158.88z"/>
	</g>
</g>
<g>
	<g>
		<path class="st0" d="M132.14,133.55c1.93,0,1.93-3,0-3C130.21,130.55,130.2,133.55,132.14,133.55L132.14,133.55z"/>
	</g>
</g>
<g>
	<g>
		<path class="st0" d="M190.12,208.22c3.73-0.73,7.46-1.46,11.19-2.19c-0.47-0.36-0.95-0.72-1.42-1.08
			c0.15,3.17,0.76,6.29,1.63,9.34c0.44,1.55,0.94,3.08,1.47,4.6c0.45,1.29,1.41,2.99,1.28,4.39c-0.11,1.23-1.47,1.74-2.55,1.72
			c-1.52-0.02-2.97-0.77-4.38-1.25c-2.97-1.01-6.11-1.5-9.25-1.5c-1.45,0-1.45,2.25,0,2.25c3.67,0.01,7,0.85,10.43,2.07
			c2.51,0.89,5.96,1.17,7.51-1.53c0.74-1.29,0.48-2.79,0.03-4.14c-0.59-1.77-1.24-3.51-1.8-5.28c-1.1-3.47-1.95-7.02-2.13-10.67
			c-0.04-0.77-0.69-1.23-1.42-1.08c-3.73,0.73-7.46,1.46-11.19,2.19C188.1,206.33,188.7,208.5,190.12,208.22L190.12,208.22z"/>
	</g>
</g>
<g>
	<g>
		<path class="st0" d="M186.97,87.47c3.07-2.2,6.14-4.41,9.21-6.61c1.38-0.99,2.93-2.55,4.58-3.04c1.59-0.47,3.5,0.46,5.08,0.66
			c3.58,0.45,7.34-0.14,10.92-0.39c3.86-0.26,7.72-0.52,11.57-0.78c-0.32-0.56-0.65-1.13-0.97-1.69c-0.95,1.38-2.72,1.78-4.25,2.17
			c-1.84,0.47-3.68,0.92-5.54,1.3c-3.93,0.8-8.05,1.25-12.02,0.42c-0.96-0.2-1.9-0.47-2.82-0.82c-0.78-0.3-1.53-0.68-2.37-0.78
			c-1.3-0.15-2.71,0.41-3.16,1.73c-0.46,1.36,0.48,2.69,1.71,3.22c1.47,0.63,3.37-0.27,4.67,0.7c1.16,0.86,2.29-1.09,1.14-1.94
			c-1.09-0.81-2.36-0.73-3.65-0.69c-0.38,0.01-1,0.07-1.34-0.14c-0.54-0.34-0.29-0.6,0.2-0.66c0.67-0.08,1.59,0.51,2.2,0.74
			c3.14,1.19,6.58,1.49,9.91,1.27c3.41-0.22,6.75-0.96,10.06-1.77c2.67-0.66,5.54-1.2,7.21-3.6c0.47-0.68-0.15-1.75-0.97-1.69
			c-3.94,0.27-7.88,0.53-11.82,0.8c-3.82,0.26-8,1.02-11.77,0.15c-1.57-0.36-3.18-0.81-4.77-0.29c-1.6,0.52-2.99,1.8-4.33,2.77
			c-3.27,2.35-6.54,4.69-9.81,7.04C184.67,86.37,185.8,88.32,186.97,87.47L186.97,87.47z"/>
	</g>
</g>
<g>
	<g>
		<path class="st0" d="M286.3,116.84c1.61,1.04,3.19,2.11,4.76,3.22c0.75,0.53,1.5,1.08,2.24,1.63c0.4,0.3,0.79,0.59,1.19,0.9
			c0.17,0.13,0.34,0.25,0.51,0.39c-0.2-0.17-1.3-1.01-0.51-0.39c3,2.38,5.92,4.86,8.71,7.49c2.79,2.62,5.47,5.37,8.02,8.22
			c1.27,1.43,2.52,2.89,3.73,4.37c0.57,0.7,1.22,1.4,1.72,2.16c-0.06-0.08-1.13-1.48-0.39-0.51c0.13,0.17,0.26,0.34,0.39,0.51
			c0.3,0.4,0.6,0.79,0.89,1.19c2.65,3.59,5.12,7.33,6.87,11.45c-0.25-0.6-0.5-1.19-0.76-1.79c0.93,2.27,1.6,4.61,1.94,7.04
			c-0.09-0.66-0.18-1.33-0.27-1.99c0.31,2.65,0.22,5.29-0.11,7.93c0.09-0.66,0.18-1.33,0.27-1.99c-0.75,5.41-2.3,10.72-3.94,15.92
			c-1.62,5.13-3.51,10.17-5.6,15.13c0.25-0.6,0.5-1.19,0.76-1.79c-3.8,8.94-8.28,17.57-13.28,25.89c-2.02,3.37-0.86,8.39,2.69,10.26
			c3.8,2.01,7.9,0.78,10.26-2.69c10.62-15.58,21.23-31.15,31.85-46.73c2.22-3.25,0.72-8.46-2.69-10.26
			c-3.8-2.01-7.9-0.78-10.26,2.69c-10.62,15.58-21.23,31.15-31.85,46.73c4.32,2.52,8.63,5.05,12.95,7.57
			c9.86-16.41,18.03-34.28,22.47-52.95c1.21-5.1,2.09-10.46,1.49-15.7c-0.64-5.52-2.49-10.63-5.27-15.44
			c-2.46-4.27-5.52-8.21-8.58-12.06c-2.7-3.38-5.56-6.63-8.58-9.73c-7.22-7.41-15.35-13.98-24.03-19.6
			c-3.3-2.14-8.43-0.78-10.26,2.69C281.64,110.32,282.78,114.56,286.3,116.84L286.3,116.84z"/>
	</g>
</g>
<g>
	<g>
		<path class="st0" d="M155.17,212.26c-4.5-1.12-9-2.31-13.29-4.12c0.6,0.25,1.19,0.5,1.79,0.76c-1.47-0.63-2.91-1.33-4.3-2.13
			c-0.68-0.4-1.35-0.82-2-1.27c-0.5-0.35-1.57-1.36,0.21,0.21c-0.27-0.24-0.56-0.45-0.84-0.69c-0.55-0.47-1.08-0.97-1.58-1.49
			c-0.29-0.31-0.58-0.62-0.86-0.94c-0.12-0.14-0.24-0.28-0.35-0.42c-0.48-0.59-0.31-0.38,0.5,0.65c-0.39-0.74-0.96-1.4-1.38-2.13
			c-0.5-0.88-0.93-1.8-1.33-2.73c0.25,0.6,0.5,1.19,0.76,1.79c-1.51-3.7-2.31-7.63-2.84-11.58c0.09,0.66,0.18,1.33,0.27,1.99
			c-0.78-6.09-0.76-12.24,0.05-18.34c-0.09,0.66-0.18,1.33-0.27,1.99c0.65-4.71,1.76-9.34,3.34-13.83
			c-4.82-1.33-9.64-2.66-14.46-3.99c-2.28,8.13-4.56,16.26-6.84,24.39c-1.14,4.06-2.28,8.11-3.41,12.17
			c-1.18,4.25-2.34,8.83-1.92,13.27c0.48,5.16,2.28,10.54,6.45,13.92c1.53,1.23,3.23,2.29,5.3,2.2c1.69-0.08,3.2-0.57,4.54-1.61
			c2.72-2.11,4.12-6.63,1.93-9.68c-2.03-2.83-3.72-5.86-5.09-9.06c0.25,0.6,0.5,1.19,0.76,1.79c-1.65-3.96-2.78-8.09-3.38-12.33
			c0.09,0.66,0.18,1.33,0.27,1.99c-0.59-4.38-0.6-8.8-0.02-13.18c-0.09,0.66-0.18,1.33-0.27,1.99c0.41-2.92,1.08-5.77,2.01-8.57
			c1.25-3.72-1.44-8.36-5.24-9.23c-4.15-0.94-7.89,1.25-9.23,5.24c-5.4,16.1-2.67,35.1,7.24,48.92c3.93-3.03,7.85-6.06,11.78-9.09
			c-0.29-0.24-0.58-0.48-0.85-0.75c-0.18-0.18-0.35-0.36-0.51-0.55c0.73,0.99,0.93,1.25,0.59,0.78c-0.45-0.7-0.86-1.38-1.2-2.14
			c0.25,0.6,0.5,1.19,0.76,1.79c-0.5-1.19-0.82-2.41-1.02-3.68c0.09,0.66,0.18,1.33,0.27,1.99c-0.23-1.75-0.17-3.49,0.04-5.25
			c-0.09,0.66-0.18,1.33-0.27,1.99c0.52-3.69,1.65-7.26,2.66-10.84c1.01-3.59,2.01-7.17,3.02-10.76c2.03-7.25,4.07-14.51,6.1-21.76
			c1.06-3.77-1.3-8.33-5.24-9.23c-4.19-0.95-7.83,1.27-9.23,5.24c-4.23,12.06-5.1,24.93-3.19,37.52c0.89,5.87,2.57,12.01,6.11,16.86
			c3.36,4.61,7.74,8.24,12.9,10.7c5.37,2.56,11.02,4.21,16.77,5.64c3.8,0.94,8.31-1.22,9.23-5.24
			C161.29,217.6,159.24,213.27,155.17,212.26L155.17,212.26z"/>
	</g>
</g>
<path class="st1" d="M-6.7,377.89c0.4,5.09,32.98,8.18,98.14,14.36c88.82,8.43,156.05,7.69,181.91,7.18
	c50.77-1,180.78-3.55,181.91-19.15c0.84-11.59-69.68-26.74-112.5-33.51C162.66,318.28-7.94,361.92-6.7,377.89z"/>
<circle class="st2" cx="213.51" cy="124.18" r="124.46"/>
<g>
	<g>
		<path class="st3" d="M159.77,163.55c1.93,0,1.93-3,0-3C157.84,160.55,157.84,163.55,159.77,163.55L159.77,163.55z"/>
	</g>
</g>
<g>
	<path class="st4" d="M202.38,227.35c-8.4-0.29-15.18-7.13-19.24-14.48c-4.06-7.36-6.36-15.64-11.03-22.63
		c-4.78-7.16-11.75-12.53-18.41-18c-6.65-5.47-13.29-11.4-17.01-19.17s-3.87-17.85,1.81-24.33c3.59-4.1,8.89-6.2,13.98-8.16
		c8.02-3.08,16.03-6.16,24.05-9.24c3.44-1.32,7.16-2.66,10.73-1.74c8.52,2.2,9.76,14.85,17.59,18.87c4.15,2.13,9.12,1.29,13.78,0.97
		c4.66-0.33,10.06,0.28,12.73,4.11c2.03,2.92,1.78,7,0.15,10.16s-4.4,5.58-7.28,7.68c-5.38,3.93-11.34,7.05-16.54,11.21
		c-5.2,4.16-9.75,9.67-10.86,16.24c-1.1,6.54,1.33,13.15,4.34,19.06c3.01,5.9,6.69,11.57,8.38,17.99c0.68,2.58,1,5.43-0.11,7.86
		s-4.08,4.16-6.54,3.11"/>
	<g>
		<path class="st5" d="M202.38,225.85c-11.67-0.54-17.84-12.66-21.86-21.99c-2.37-5.51-4.64-11.11-8.23-15.96
			c-3.54-4.8-7.95-8.81-12.52-12.61c-8.62-7.17-19.03-14.46-22.83-25.55c-1.64-4.81-1.99-10.16-0.26-15
			c1.89-5.3,6.4-8.5,11.34-10.74c5.94-2.69,12.18-4.79,18.27-7.13c3.16-1.21,6.32-2.43,9.48-3.64c2.94-1.13,6.03-2.51,9.24-2.44
			c4.4,0.1,7.11,3.61,9.23,7.04c2.16,3.49,4.05,7.38,7.21,10.1c4.35,3.76,9.84,3.61,15.26,3.15c4.43-0.37,10.81-0.84,13.56,3.53
			c3.27,5.2-1.22,11-5.13,14.2c-4.88,3.99-10.55,6.9-15.67,10.57c-4.47,3.2-8.65,6.99-11.41,11.81c-2.99,5.22-3.63,11.1-2.27,16.93
			c1.43,6.16,4.69,11.65,7.64,17.17c1.46,2.74,2.87,5.52,3.9,8.46c0.93,2.68,1.88,5.79,1.03,8.61c-0.64,2.13-2.8,3.89-5.06,3.04
			c-1.81-0.68-2.59,2.22-0.8,2.89c2.46,0.92,5.24-0.08,6.97-1.97c2.03-2.21,2.43-5.27,2.06-8.15c-0.84-6.44-4.37-12.3-7.41-17.92
			c-3.12-5.77-6.26-12.02-6.05-18.75c0.18-5.99,3.52-11.2,7.72-15.26c4.68-4.53,10.44-7.68,15.84-11.25
			c4.91-3.25,10.45-7.08,12.17-13.05c0.78-2.69,0.68-5.68-0.57-8.2c-1.17-2.35-3.34-3.95-5.76-4.86c-5.59-2.1-11.44-0.22-17.18-0.57
			c-2.68-0.17-5.16-1.05-7.13-2.9c-1.55-1.45-2.74-3.21-3.85-5.01c-2.23-3.62-4.19-7.66-7.64-10.3c-5.08-3.87-11.06-1.95-16.46,0.12
			c-6.78,2.61-13.57,5.21-20.35,7.82c-5.58,2.14-11.54,4.09-16.03,8.19c-4.08,3.72-6.09,9.08-6.27,14.53
			c-0.41,12.4,8.02,22.2,16.88,29.83c4.77,4.1,9.83,7.87,14.37,12.23c4.66,4.48,8.24,9.51,10.98,15.36
			c4.9,10.46,8.63,23.02,19.78,28.6c2.45,1.23,5.07,1.93,7.82,2.05C204.32,228.94,204.31,225.94,202.38,225.85L202.38,225.85z"/>
	</g>
</g>
<g>
	<path class="st4" d="M299.15,209.27c-2.62,0.28-6.68-0.18-8.51-2.78c-2.34-3.31,0.22-8.58,0.74-10.51
		c6.28-22.98,6.54-47.59,0.74-70.7c-0.89-3.54-2.01-7.21-4.59-9.79c-3.9-3.9-10.03-4.31-15.53-3.98c-8.15,0.5-16.41,2.12-24.41,0.45
		c-8-1.67-15.87-7.92-15.96-16.09c-0.03-2.75,0.81-5.43,1.65-8.05c0.71-2.21,1.41-4.43,2.12-6.64c2.35-7.38,4.85-15.01,10.07-20.74
		c5.22-5.72,13.98-8.99,20.92-5.55c3.34,1.66,5.92,4.66,9.37,6.08c3.45,1.42,8.57,0.1,8.9-3.62c0.21-2.33-2.07-4.08-4.09-7.02
		c-5.49-7.99-4.11-21.38,0.31-23.86c6.14-3.45,20.7,12.94,24.77,17.51c3.21,3.6,13.5,15.63,21.54,35.9
		c3.13,7.9,8.85,22.68,9.57,43.08c0.74,20.75-4.1,36.03-7.18,45.48c0,0-6.68,20.46-21.54,35.9
		C306.57,205.9,303.55,208.79,299.15,209.27z"/>
	<g>
		<path class="st5" d="M299.15,207.77c-3.59,0.35-8.13-0.62-7.97-5.04c0.06-1.76,0.68-3.47,1.25-5.12c0.73-2.09,1.22-4.27,1.71-6.43
			c2.44-10.52,3.66-21.33,3.65-32.13c-0.01-10.72-1.24-21.45-3.67-31.89c-1.07-4.58-2.23-9.64-5.79-12.99
			c-3.21-3.02-7.65-4.03-11.93-4.22c-10.34-0.44-21.04,3.27-31.17-0.19c-3.8-1.3-7.5-3.72-9.8-7.06c-1.13-1.64-1.94-3.49-2.21-5.47
			c-0.33-2.45,0.26-4.9,0.96-7.24c1.52-5.07,3.11-10.16,4.92-15.13c1.63-4.46,3.66-8.91,6.74-12.56c2.79-3.3,6.5-5.81,10.72-6.85
			c4.47-1.09,8.45-0.01,12.1,2.67c3.41,2.5,6.74,5.4,11.26,4.83c3.45-0.43,7.03-3.13,6.11-7.02c-0.49-2.04-2.1-3.61-3.35-5.22
			c-1.25-1.62-2.26-3.37-2.92-5.31c-1.24-3.58-1.63-7.55-1.05-11.3c0.31-2.04,1.15-5.64,3.06-6.41c0.83-0.34,1.64-0.2,2.57,0.07
			c1.19,0.35,2.3,0.95,3.36,1.59c5.44,3.32,10.01,8.17,14.29,12.83c8.46,9.2,15.32,19.56,20.63,30.9
			c6.99,14.93,11.61,31.02,12.53,47.52c0.9,16.27-1.87,32.18-7.06,47.55c-1.39,4.11-3.2,8.1-5.15,11.97
			c-3.91,7.76-8.67,15.18-14.53,21.62C305.9,204.55,303.08,207.27,299.15,207.77c-1.89,0.24-1.91,3.24,0,3
			c4.13-0.53,7.43-2.69,10.25-5.66c3.37-3.55,6.41-7.42,9.15-11.48c4.23-6.26,7.76-12.99,10.65-19.97
			c4.79-11.55,7.68-24.16,8.73-36.58c1.56-18.45-1.39-36.94-7.96-54.2c-5.33-14-12.43-27.43-22.25-38.82
			c-3.5-4.06-7.19-8.02-11.17-11.62c-2.46-2.23-5.07-4.42-7.96-6.06c-2.16-1.23-4.85-2.38-7.37-1.66c-2.77,0.79-4.18,3.79-4.9,6.33
			c-1.05,3.71-1.04,7.73-0.37,11.51c0.36,2.04,0.98,4.02,1.85,5.9c0.97,2.1,2.38,3.85,3.81,5.65c0.98,1.23,2.26,2.82,1.1,4.36
			c-0.98,1.3-2.91,1.64-4.44,1.55c-2.14-0.13-3.99-1.45-5.66-2.68c-1.92-1.42-3.75-2.98-5.94-3.96c-4-1.79-8.54-1.73-12.64-0.3
			c-9.46,3.3-14.54,12.05-17.8,20.98c-1.87,5.11-3.54,10.35-5.05,15.57c-1.33,4.58-1.45,9.17,0.95,13.41
			c4.79,8.49,14.92,11.27,24.04,11.16c5.69-0.07,11.32-1.02,17-1.24c4.32-0.17,9.36,0.09,12.79,3.08c3.8,3.32,4.69,9.06,5.71,13.74
			c1.2,5.5,2.06,11.07,2.57,16.67c1.01,11.1,0.72,22.35-0.95,33.37c-0.81,5.34-1.81,10.75-3.38,15.93
			c-1.06,3.5-2.76,7.37-0.89,10.93c1.86,3.53,6.51,4.44,10.15,4.09C301.06,210.59,301.08,207.58,299.15,207.77z"/>
	</g>
</g>
<g>
	<path class="st4" d="M104.53,75.69c3.36,2.69,5.97,6.09,6.98,8.08c1.76,3.45,0.21,4.43,0.6,11.28c0.22,3.77,1.27,7.79,4.24,10.12
		c2.96,2.33,8.2,1.84,9.62-1.65c2.16-5.31-5.51-9.75-5.99-15.46c-0.37-4.37,3.8-8,8.1-8.86c4.29-0.86,8.7,0.23,13.04,0.85
		c18.37,2.64,37.82-3.71,51.09-16.69c2.36-2.3,4.68-5.57,3.45-8.63c-1.2-2.98-5.06-3.79-8.27-3.58c-3.21,0.21-6.63,0.97-9.5-0.46
		c-4.09-2.04-5.03-7.87-2.99-11.95c2.05-4.08,6.2-6.66,10.38-8.5c10.84-4.78,23.25-5.92,34.79-3.2c5,1.18,9.87,3.06,14.98,3.46
		c5.12,0.4,10.78-1.03,13.78-5.2c3.31-4.59-2.59-11.99-3.19-12.81c-1.66-2.26-3.51-3.67-4.61-4.41c-9.02-6.07-24.57-5.51-33.51-4.79
		c-9.57,0.77-17.78,1.44-28.72,4.79c-15.75,4.82-26.33,11.88-33.51,16.75c-26.53,18.01-31.34,33.95-40.69,43.08
		c-0.66,0.64-2.75,2.63-2.39,4.79C102.44,74.12,103.6,74.94,104.53,75.69z"/>
	<g>
		<path class="st5" d="M103.47,76.75c2.7,2.2,5.86,5.16,7.09,8.54c0.83,2.28-0.01,5.19-0.01,7.6c0.01,4.04,0.56,8.39,3.11,11.67
			c2.17,2.8,5.71,4.18,9.2,3.28c3.26-0.84,5.38-3.83,4.91-7.19c-0.45-3.25-2.87-5.79-4.56-8.46c-0.82-1.3-1.63-2.73-1.74-4.3
			c-0.13-1.85,0.81-3.51,2.12-4.75c3.42-3.24,8.36-2.99,12.69-2.33c4.5,0.68,8.92,1.37,13.48,1.34c4.21-0.02,8.42-0.49,12.54-1.35
			c8.22-1.71,16.15-5.08,23.06-9.87c3.41-2.36,6.94-5.06,9.55-8.31c2.46-3.07,3.93-7.64,0.57-10.69c-2.91-2.64-7.02-2.38-10.64-2.04
			c-2.14,0.2-4.53,0.45-6.49-0.64c-1.4-0.78-2.29-2.18-2.71-3.7c-2.37-8.64,8.1-13.45,14.58-15.62c9.08-3.05,18.97-3.69,28.35-1.68
			c8.64,1.85,17.52,6.07,26.23,2.14c3.17-1.43,6.24-4.19,6.5-7.85c0.22-3.11-1.3-6.22-2.94-8.77c-1.56-2.43-3.43-4.65-5.75-6.39
			c-2.82-2.11-6.19-3.44-9.58-4.32c-7.26-1.88-14.95-1.94-22.39-1.49c-8.23,0.49-16.55,1.24-24.61,3.04
			c-9.03,2.02-17.81,5.27-26.03,9.51c-6.31,3.25-12.32,7.12-18.1,11.24c-6.94,4.94-13.44,10.51-19.13,16.85
			c-4.1,4.56-7.71,9.5-11.22,14.51c-1.38,1.97-2.75,3.95-4.23,5.84c-1.41,1.81-3.02,3.37-4.54,5.07c-1.09,1.22-2.07,2.72-2.12,4.41
			C100.6,74.13,101.95,75.54,103.47,76.75c1.5,1.19,3.63-0.92,2.12-2.12c-0.63-0.5-1.47-1.03-1.79-1.8
			c-0.34-0.82,0.05-1.64,0.51-2.32c0.64-0.96,1.56-1.71,2.34-2.54c1.55-1.65,2.95-3.44,4.3-5.25c3.1-4.18,5.94-8.53,9.14-12.63
			c9.16-11.71,20.72-20.98,33.32-28.77c6.75-4.17,13.89-7.69,21.38-10.33c8.51-3,17.27-4.77,26.24-5.63
			c7.1-0.68,14.25-1.27,21.39-0.84c6.79,0.41,14.58,1.61,19.78,6.4c1.82,1.67,3.32,3.77,4.5,5.93c1.3,2.38,2.54,5.59,0.62,7.97
			c-2.32,2.88-6.17,4.09-9.76,4.24c-4.62,0.19-9.1-1.27-13.5-2.5c-8.97-2.51-18.16-3.16-27.34-1.42c-4.39,0.83-8.67,2.2-12.74,4.06
			c-3.58,1.63-6.98,3.82-9.32,7.04c-4.17,5.74-2.6,15.5,5.35,16.67c3.83,0.57,7.78-1.01,11.54,0.2c1.54,0.49,2.86,1.59,2.92,3.31
			c0.08,2.04-1.46,3.94-2.78,5.33c-11.17,11.75-28.26,17.92-44.3,17.37c-4.41-0.15-8.68-1.11-13.05-1.56
			c-4.27-0.45-8.6,0.03-12.06,2.76c-2.87,2.27-4.49,5.82-3.52,9.46c0.83,3.11,3.09,5.53,4.74,8.21c1.35,2.18,2.29,5.45-0.76,6.74
			c-3.25,1.37-6.35-0.78-7.75-3.66c-1.64-3.36-1.63-7.48-1.33-11.13c0.2-2.5,0.32-4.62-0.86-6.92c-1.66-3.25-4.42-6.11-7.22-8.39
			C104.11,73.42,101.97,75.53,103.47,76.75z"/>
	</g>
</g>
<g>
	<g>
		<path class="st5" d="M104.49,73.54c1.93,0,1.93-3,0-3C102.56,70.54,102.56,73.54,104.49,73.54L104.49,73.54z"/>
	</g>
</g>
<g>
	<path class="st6" d="M307.31,223.66c0.41,0.34,1.06,0.21,1.45-0.14c0.39-0.35,0.59-0.87,0.74-1.38c0.68-2.33,0.66-4.86-0.05-7.18
		c-0.19-0.62-0.44-1.24-0.86-1.73c-0.42-0.49-1.05-0.84-1.7-0.8c-0.6,0.04-1.14,0.4-1.52,0.87s-0.62,1.02-0.85,1.58
		c-0.34,0.81-0.67,1.63-0.74,2.51c-0.07,0.87,0.18,1.81,0.83,2.39c0.57,0.51,1.44,0.75,1.76,1.45c0.23,0.5,0.1,1.08,0.2,1.61
		c0.1,0.54,0.66,1.09,1.13,0.82c0.44-0.25,0.32-0.92,0.12-1.38c-0.2-0.47-0.4-1.08-0.03-1.42"/>
	<g>
		<path class="st6" d="M307.12,223.99c0.96,0.65,2.03-0.07,2.46-0.99c0.53-1.13,0.71-2.51,0.77-3.74c0.07-1.34-0.08-2.7-0.43-4
			c-0.3-1.11-0.76-2.32-1.83-2.9c-2.47-1.34-3.88,1.93-4.43,3.75c-0.33,1.09-0.41,2.36,0.22,3.37c0.25,0.4,0.59,0.7,0.99,0.95
			c0.51,0.33,1.13,0.59,1.25,1.24c0.13,0.67-0.05,1.33,0.39,1.91c0.27,0.35,0.71,0.61,1.16,0.49c0.49-0.13,0.72-0.62,0.7-1.1
			c-0.02-0.49-0.67-1.45-0.32-1.86c0.31-0.36-0.21-0.9-0.53-0.53c-0.52,0.61-0.25,1.25-0.02,1.92c0.06,0.16,0.14,0.37,0.11,0.54
			c-0.07,0.46-0.38,0.28-0.56,0.03c-0.27-0.39-0.14-0.98-0.2-1.43c-0.11-0.81-0.63-1.25-1.29-1.66c-0.82-0.51-1.35-1.09-1.42-2.1
			c-0.07-1.03,0.36-2.05,0.76-2.98c0.35-0.81,0.81-1.82,1.75-2.05c1.11-0.27,1.9,0.82,2.24,1.71c0.36,0.95,0.57,1.97,0.66,2.98
			c0.1,1.17,0.04,2.37-0.19,3.52c-0.15,0.73-0.66,3.1-1.88,2.28C307.09,223.07,306.72,223.72,307.12,223.99L307.12,223.99z"/>
	</g>
</g>
<g>
	<path class="st7" d="M311.61,218.51c-1.09-2.05-0.29-4.88,1.7-6.07c-1.97-0.2-3.85-1.15-5.19-2.62c-0.79,1.39-3.3,0.97-3.97,2.42
		c-0.44,0.96,0.17,2.33-0.64,3c0.19-1.64,1.6-3.05,3.23-3.26s3.34,0.81,3.94,2.35"/>
	<g>
		<path class="st7" d="M311.93,218.32c-0.97-1.91-0.25-4.43,1.56-5.56c0.34-0.21,0.17-0.66-0.19-0.7c-1.89-0.21-3.63-1.12-4.92-2.51
			c-0.17-0.18-0.47-0.12-0.59,0.08c-0.66,1.07-2.32,0.96-3.28,1.64c-0.53,0.37-0.82,0.9-0.89,1.53c-0.08,0.68,0.18,1.66-0.38,2.17
			c0.21,0.12,0.42,0.24,0.63,0.36c0.2-1.46,1.34-2.74,2.83-2.97c1.48-0.23,3.05,0.69,3.61,2.07c0.18,0.44,0.91,0.25,0.72-0.2
			c-0.69-1.69-2.46-2.84-4.3-2.62c-1.81,0.21-3.34,1.73-3.59,3.53c-0.05,0.36,0.33,0.64,0.63,0.36c1.12-1.04-0.09-2.96,1.38-3.75
			c1.11-0.6,2.56-0.56,3.29-1.75c-0.2,0.03-0.39,0.05-0.59,0.08c1.44,1.54,3.37,2.49,5.45,2.72c-0.06-0.23-0.13-0.47-0.19-0.7
			c-2.18,1.35-2.99,4.3-1.83,6.58C311.5,219.13,312.15,218.75,311.93,218.32L311.93,218.32z"/>
	</g>
</g>
<g>
	<g>
		<path class="st8" d="M87.71,220.88c1.93,0,1.93-3,0-3C85.78,217.88,85.77,220.88,87.71,220.88L87.71,220.88z"/>
	</g>
</g>
<g>
	<g>
		<path class="st8" d="M86.2,223.77c-0.62,1.59-0.11,3.57,1.18,4.67c0.3,0.26,0.77,0.31,1.06,0c0.26-0.28,0.32-0.79,0-1.06
			c-0.13-0.11-0.25-0.23-0.36-0.36c-0.01-0.02-0.12-0.14-0.05-0.05c0.06,0.08-0.01-0.02-0.03-0.04c-0.05-0.07-0.1-0.14-0.14-0.21
			c-0.04-0.07-0.09-0.15-0.12-0.22c-0.02-0.04-0.04-0.08-0.06-0.13c-0.05-0.1-0.02,0.01,0.01,0.02c-0.04-0.03-0.08-0.22-0.1-0.26
			c-0.03-0.08-0.05-0.16-0.07-0.24c-0.02-0.08-0.04-0.16-0.05-0.25c0-0.02,0-0.09-0.02-0.11c0.04,0.04,0.02,0.14,0,0
			c-0.02-0.17-0.02-0.34-0.01-0.51c0-0.08,0-0.17,0.02-0.25c-0.01,0.05-0.02,0.13,0,0.03c0.01-0.05,0.02-0.09,0.03-0.14
			c0.04-0.17,0.09-0.34,0.16-0.51c0.14-0.37-0.16-0.84-0.52-0.92C86.69,223.15,86.35,223.38,86.2,223.77L86.2,223.77z"/>
	</g>
</g>
<g>
	<g>
		<path class="st8" d="M87.53,223.68c0.69-0.88,1.38-1.77,2.06-2.65c0.13-0.16,0.22-0.31,0.22-0.53c0-0.18-0.08-0.4-0.22-0.53
			c-0.14-0.13-0.33-0.23-0.53-0.22c-0.18,0.01-0.41,0.07-0.53,0.22c-0.69,0.88-1.38,1.77-2.06,2.65c-0.13,0.16-0.22,0.31-0.22,0.53
			c0,0.18,0.08,0.4,0.22,0.53c0.14,0.13,0.33,0.23,0.53,0.22C87.18,223.9,87.41,223.84,87.53,223.68L87.53,223.68z"/>
	</g>
</g>
<g>
	<path class="st9" d="M290.41,275.81c-5.87,31.35-5.05,63.93,2.39,94.94c0.29,1.23,0.91,2.72,2.17,2.75
		c1.39,0.03,2.02-1.7,2.23-3.08c3.76-24.26,5.32-48.8,6.88-73.3c3.7,4.92,3.71,11.56,4.37,17.68c2.15,20.03,12.57,38.1,22.76,55.48
		c0.56,0.96,1.15,1.94,2.04,2.61c0.89,0.66,2.18,0.93,3.12,0.34c1.37-0.86,1.29-2.84,1.05-4.44c-4.58-30.47-9.17-60.93-13.75-91.4
		c-10.68,2.84-22.14,2.64-32.71-0.58"/>
	<g>
		<path class="st10" d="M288.97,275.41c-4.41,23.7-5.12,48.04-1.99,71.95c0.78,5.95,1.78,11.88,3.01,17.75
			c0.29,1.4,0.6,2.79,0.92,4.18c0.29,1.26,0.51,2.61,1.15,3.76c1.07,1.92,3.53,2.66,5.18,0.96c1.7-1.75,1.66-4.86,1.99-7.11
			c0.45-3.07,0.86-6.14,1.25-9.21c0.77-6.13,1.43-12.27,2-18.42c1.31-14.03,2.21-28.09,3.1-42.16c-0.93,0.25-1.86,0.5-2.8,0.76
			c3.24,4.45,3.51,10.04,4.01,15.32c0.55,5.81,1.67,11.52,3.37,17.1c3.47,11.35,8.97,21.97,14.82,32.25
			c1.47,2.59,2.97,5.16,4.48,7.73c1.32,2.25,2.89,4.88,5.87,4.78c2.64-0.08,3.79-2.6,3.72-4.93c-0.09-3.03-0.85-6.14-1.3-9.14
			c-1.98-13.17-3.96-26.35-5.95-39.52c-2.23-14.82-4.46-29.64-6.69-44.46c-0.12-0.81-1.14-1.23-1.85-1.05
			c-10.48,2.75-21.54,2.54-31.91-0.58c-1.85-0.56-2.64,2.34-0.8,2.89c10.88,3.27,22.53,3.46,33.51,0.58
			c-0.62-0.35-1.23-0.7-1.85-1.05c3.75,24.95,7.51,49.9,11.26,74.85c0.47,3.13,0.94,6.26,1.41,9.39c0.22,1.48,0.45,2.96,0.67,4.45
			c0.2,1.31,0.51,2.66,0.49,3.99c-0.02,1.01-0.39,1.98-1.58,1.41c-1.17-0.55-1.8-2.06-2.42-3.12c-1.43-2.44-2.85-4.88-4.25-7.34
			c-5.59-9.8-10.89-19.88-14.35-30.66c-1.88-5.86-3.13-11.85-3.7-17.97c-0.52-5.66-0.91-11.68-4.38-16.43
			c-0.87-1.2-2.7-0.79-2.8,0.76c-1.49,23.37-2.96,46.79-6.39,69.97c-0.17,1.17-0.29,2.38-0.56,3.54c-0.07,0.3-0.19,1-0.46,1.19
			c-0.32,0.22-0.13,0.23-0.44-0.14c-0.64-0.74-0.71-2.26-0.93-3.18c-0.32-1.39-0.63-2.79-0.92-4.18
			c-1.17-5.53-2.13-11.11-2.88-16.72c-1.47-11.09-2.11-22.29-1.94-33.47c0.2-12.72,1.46-25.41,3.79-37.92
			C292.21,274.32,289.32,273.51,288.97,275.41L288.97,275.41z"/>
	</g>
</g>
<g>
	<path class="st11" d="M243.18,224.35c6.6,11.86,19.02,20.31,32.48,22.09c4,0.53,8.27,0.56,11.71,2.68
		c3.66,2.26,5.73,6.86,4.98,11.1c-0.62,3.51-2.96,6.87-2.11,10.33c1.03,4.19,5.96,5.86,10.16,6.84c4.63,1.08,9.35,2.17,14.08,1.71
		s9.54-2.75,11.8-6.93c3.08-5.7,0.62-12.63-0.03-19.08c-0.71-6.97,0.88-14.16,4.45-20.19c3.09-5.21,7.56-9.48,10.65-14.69
		c7.53-12.68,5.19-30.38-5.37-40.67c1.21,12.56,2.14,26.3-5.01,36.69c-4.4,6.4-11.68,10.74-19.4,11.57
		c-3.92,0.42-7.94-0.01-11.79,0.89c-4.64,1.09-8.6,4.01-12.91,6.07c-13.42,6.41-30.73,3.47-41.28-7.01"/>
	<g>
		<path class="st12" d="M241.88,225.11c7.08,12.57,20.1,21.18,34.4,22.91c3.75,0.45,8.1,0.5,11.19,3c2.55,2.07,3.95,5.55,3.43,8.8
			c-0.6,3.82-3.16,7.28-2.06,11.29c0.88,3.19,3.66,5.13,6.58,6.32c3.49,1.43,7.41,2.18,11.12,2.77c4.02,0.64,8.2,0.82,12.13-0.42
			c3.32-1.05,6.37-3,8.35-5.92c2.17-3.2,2.51-7.2,2.15-10.95c-0.39-4.08-1.45-8.07-1.57-12.17c-0.12-4.1,0.57-8.17,1.98-12.02
			c2.85-7.78,9.31-13.15,13.34-20.21c6.69-11.74,5.52-27.48-2.59-38.26c-1.01-1.34-2.09-2.59-3.28-3.77
			c-0.86-0.84-2.69-0.29-2.56,1.06c0.82,8.56,1.62,17.47-0.44,25.92c-2,8.2-7.08,15.08-14.82,18.68c-4.03,1.88-8.24,2.3-12.63,2.4
			c-2.48,0.06-5,0.16-7.42,0.76c-2.15,0.53-4.19,1.45-6.15,2.47c-3.85,1.99-7.46,4.27-11.65,5.49c-3.67,1.07-7.49,1.5-11.31,1.34
			c-8.68-0.35-17.19-3.81-23.41-9.91c-1.38-1.35-3.5,0.77-2.12,2.12c5.86,5.75,13.56,9.34,21.67,10.44
			c8.45,1.15,16.67-0.52,24.13-4.6c2.09-1.14,4.15-2.38,6.34-3.34c2.34-1.02,4.77-1.54,7.31-1.68c4.89-0.28,9.61-0.16,14.28-1.87
			c8.24-3.02,14.5-9.5,17.52-17.7c3.57-9.7,2.67-20.45,1.7-30.52c-0.85,0.35-1.71,0.71-2.56,1.06c9.14,9.01,11.93,23.75,6.84,35.53
			c-3.01,6.97-8.96,12.02-12.67,18.57c-3.83,6.77-5.16,14.59-4.1,22.27c0.96,6.95,3.52,15.72-3.65,20.3
			c-6.57,4.2-15.18,2.19-22.18,0.26c-2.61-0.72-5.98-1.84-7.19-4.53c-1.5-3.33,1.25-7.13,1.82-10.39c0.57-3.22-0.17-6.63-2.05-9.31
			c-2.05-2.94-5.13-4.63-8.6-5.37c-3.63-0.77-7.36-0.81-10.98-1.65c-3.3-0.76-6.51-1.91-9.53-3.44
			c-6.04-3.05-11.43-7.49-15.42-12.97c-1-1.37-1.91-2.8-2.74-4.28C243.53,221.91,240.94,223.42,241.88,225.11L241.88,225.11z"/>
	</g>
</g>
<g>
	<path class="st13" d="M71.75,267.77c-4.16,3.6-5.97,9.22-6.75,14.66c-0.78,5.44-0.71,11.02-1.98,16.37
		c-2.21,9.22-8.2,16.98-13.36,24.94c-5.16,7.96-9.76,17.08-8.61,26.5c0.28,2.34,1.15,4.91,3.28,5.9c1.64,0.76,3.64,0.35,5.16-0.62
		c1.53-0.97,2.68-2.42,3.78-3.85c13.44-17.41,24.52-36.65,32.83-57.01c3.69,3.06,5.03,8.3,4.44,13.05
		c-0.59,4.76-2.85,9.14-5.33,13.24s-5.26,8.07-7.06,12.51c-2.82,6.93-3.11,14.86-0.8,21.97c0.57,1.74,1.69,3.73,3.52,3.71
		c1.57-0.01,2.66-1.51,3.46-2.87c14.14-24.02,19.81-52.91,15.79-80.49c-0.47-3.22-1.14-6.58-3.21-9.09
		c-2.54-3.08-6.79-4.31-10.77-4.13c-3.98,0.18-7.8,1.58-11.53,2.97"/>
	<g>
		<path class="st13" d="M70.69,266.71c-9.41,8.36-6.4,22.05-9.44,32.94c-3.19,11.43-11.82,20.21-17.13,30.59
			c-2.66,5.19-4.67,10.86-4.74,16.75c-0.05,4.55,1.25,11.38,7.2,11.03c2.85-0.17,5.11-2.02,6.86-4.14c1.91-2.32,3.68-4.77,5.45-7.2
			c3.56-4.9,6.94-9.94,10.12-15.1c7.19-11.64,13.38-23.87,18.56-36.52c-0.84,0.22-1.67,0.44-2.51,0.66
			c4.85,4.16,4.82,11.05,2.82,16.64c-2.36,6.6-7.08,12.02-10.1,18.3c-2.94,6.1-4.05,12.89-3.12,19.61c0.4,2.89,0.97,6.45,2.93,8.75
			c1.96,2.29,4.97,1.97,6.84-0.23c1.99-2.35,3.34-5.43,4.73-8.16c1.49-2.93,2.86-5.92,4.12-8.96c2.59-6.23,4.67-12.68,6.21-19.25
			c3.06-12.99,4.1-26.47,2.93-39.77c-0.58-6.61-0.83-15.12-6.94-19.2c-6.52-4.35-14.59-1.81-21.27,0.66
			c-1.8,0.66-1.02,3.56,0.8,2.89c5.58-2.07,12.29-4.58,18.01-1.53c5.43,2.9,5.69,10.05,6.24,15.47c1.27,12.44,0.61,25.07-1.92,37.32
			c-2.53,12.26-6.9,24.12-13.01,35.04c-0.77,1.37-2.79,6.13-4.69,3.52c-0.72-1-1.03-2.28-1.34-3.45c-0.45-1.72-0.76-3.46-0.9-5.23
			c-0.51-6.48,1.06-12.68,4.19-18.33c3.47-6.27,8.16-12.03,9.92-19.11c1.47-5.94,0.51-12.9-4.35-17.07
			c-0.92-0.79-2.07-0.41-2.51,0.66c-4.32,10.54-9.38,20.78-15.13,30.61c-2.87,4.91-5.91,9.72-9.11,14.42
			c-1.6,2.35-3.24,4.67-4.93,6.96c-1.64,2.23-3.23,4.61-5.15,6.61c-1.53,1.59-4.36,3.29-6.27,1.27c-1.54-1.63-1.67-4.38-1.7-6.49
			c-0.08-5.58,1.81-10.98,4.33-15.89c4.98-9.72,12.58-17.94,16.44-28.26c2.32-6.19,2.4-12.7,3.13-19.19
			c0.63-5.64,2.15-11.57,6.55-15.47C74.25,267.54,72.12,265.43,70.69,266.71L70.69,266.71z"/>
	</g>
</g>
<g>
	<path class="st10" d="M125.23,228.18c-4.57,6.36-11.36,11.1-18.9,13.2c-1.76,0.49-3.61,0.84-5.4,0.47
		c-1.79-0.36-3.5-1.58-3.98-3.34c-0.81-2.95,1.88-5.56,4.04-7.73c4.64-4.67,7.9-10.77,8.87-17.28c0.97-6.51-0.43-13.41-4.12-18.86
		c1.98,14.29-4.89,29.44-16.94,37.36c-2.2,1.45-4.59,2.7-6.35,4.66c-3.08,3.41-3.71,8.28-4.57,12.8c-0.86,4.51-2.4,9.42-6.38,11.72
		c5.7,0.67,11.5,0.58,17.18-0.28c1.67-0.25,3.35-0.58,4.84-1.38c1.48-0.8,2.76-2.14,3.1-3.79c0.35-1.68-0.3-3.43-1.35-4.79
		c-1.05-1.35-2.46-2.37-3.85-3.37c-1.87-1.34-4.08-2.75-6.3-2.16c-2.14,0.57-3.36,2.75-4.34,4.73c-0.79,1.59-1.5,3.71-0.23,4.94
		c0.98,0.95,2.69,0.7,3.74-0.17c1.05-0.87,1.61-2.19,2.13-3.45c2.4-5.83,4.81-11.66,7.21-17.5c-2.07,2.6-1.69,6.6,0.3,9.26
		s5.25,4.12,8.53,4.69c5.48,0.94,11.32-0.45,15.8-3.75c4.47-3.3,7.52-8.48,8.24-13.99c-3.58,11.14-13.77,19.87-25.33,21.7
		c-2.91,0.46-6.31,0.34-8.24-1.89c-1.24-1.44-1.94-3.75-3.83-3.99c-1.44-0.18-2.64,1.04-3.58,2.14c-2.18,2.57-4.36,5.15-6.54,7.72"
		/>
	<g>
		<path class="st10" d="M123.93,227.42c-3,4.13-6.96,7.52-11.47,9.91c-2.34,1.24-4.84,2.22-7.42,2.83c-2.14,0.5-5.51,0.72-6.57-1.78
			c-0.97-2.3,1.75-4.71,3.16-6.13c1.84-1.86,3.52-3.85,4.94-6.05c2.85-4.42,4.64-9.54,5.01-14.8c0.43-6.13-1.14-12.4-4.55-17.53
			c-0.73-1.1-3.01-0.85-2.8,0.76c1.31,9.82-1.48,19.86-7.41,27.77c-3.1,4.13-6.96,7.1-11.26,9.86c-2.29,1.47-4.39,3.14-5.8,5.5
			c-1.35,2.25-2.07,4.82-2.6,7.37c-1.06,5.09-1.49,11.74-6.43,14.73c-1.37,0.83-0.65,2.63,0.76,2.8c3.57,0.41,7.16,0.54,10.75,0.36
			c3.26-0.16,6.78-0.37,9.92-1.35c2.66-0.83,5.25-2.68,5.9-5.55c0.67-3-1.03-5.87-3.21-7.79c-2.19-1.93-5.07-4.24-8.08-4.53
			c-2.92-0.28-5.06,1.64-6.45,4c-1.23,2.08-2.81,5.11-1.47,7.49c1.43,2.54,4.9,2.26,6.78,0.42c1.09-1.07,1.67-2.48,2.24-3.87
			c0.83-1.99,1.64-3.99,2.47-5.99c1.58-3.84,3.16-7.67,4.74-11.51c0.28-0.69-0.25-1.51-0.87-1.77c-0.74-0.31-1.42,0.01-1.87,0.61
			c-2.16,2.89-1.98,7-0.19,10.03c1.92,3.26,5.56,5.2,9.16,5.97c7.7,1.66,16.1-1.06,21.28-7.02c2.85-3.28,4.75-7.32,5.36-11.63
			c0.26-1.87-2.27-2.68-2.89-0.8c-2.53,7.69-8.24,14.09-15.42,17.77c-3.41,1.75-7.48,3.13-11.35,3.04
			c-1.94-0.04-3.63-0.63-4.74-2.28c-0.98-1.46-1.89-3.22-3.75-3.7c-2.6-0.67-4.46,1.44-5.96,3.21c-1.97,2.33-3.95,4.66-5.92,6.98
			c-1.24,1.46,0.87,3.6,2.12,2.12c1.77-2.08,3.53-4.17,5.3-6.25c0.93-1.1,2.91-4.39,4.47-2.57c1.28,1.49,1.91,3.23,3.68,4.28
			c1.75,1.04,3.89,1.3,5.89,1.19c8.19-0.45,16.21-5.01,21.61-11.02c3.12-3.48,5.5-7.53,6.96-11.98c-0.96-0.27-1.93-0.53-2.89-0.8
			c-1.18,8.43-7.48,15.16-15.91,16.66c-3.95,0.7-8.43,0.21-11.82-2.04c-3.15-2.09-4.84-6.4-2.4-9.66c-0.91-0.39-1.83-0.77-2.74-1.16
			c-2.09,5.06-4.17,10.13-6.26,15.19c-0.64,1.56-1.42,4.97-3.39,5.39c-2.39,0.5-0.41-3.38,0.03-4.19c0.93-1.72,2.2-3.58,4.43-3.08
			c2.18,0.5,4.45,2.37,6.06,3.87c1.47,1.37,2.87,3.54,1.77,5.55c-1.11,2.02-3.61,2.64-5.71,3.01c-5.79,1.01-11.78,1.02-17.61,0.36
			c0.25,0.93,0.5,1.86,0.76,2.8c4.56-2.76,6.21-8.05,7.14-13c0.5-2.66,0.92-5.36,1.88-7.91c1-2.69,2.76-4.65,5.12-6.23
			c2.28-1.53,4.61-2.91,6.73-4.68c1.98-1.65,3.79-3.52,5.39-5.54c3.16-3.97,5.57-8.47,7.13-13.3c1.78-5.51,2.36-11.42,1.6-17.16
			c-0.93,0.25-1.86,0.5-2.8,0.76c6.66,10.01,4.94,23.21-2.61,32.24c-2.94,3.51-9.45,8.4-5.16,13.42c3.94,4.61,11.24,1.76,15.75-0.35
			c5.64-2.64,10.47-6.74,14.12-11.77C127.66,227.37,125.06,225.88,123.93,227.42L123.93,227.42z"/>
	</g>
</g>
<path class="st14" d="M87.05,222.38c0.53,1.59-1.1,3.72-2.19,4.76c-1.03,0.98-1.54,0.94-4.39,2.38c-3.24,1.64-2.89,1.85-4.39,2.38
	c-1.41,0.49-4.71,1.65-6.58,0c-0.97-0.86-1.02-2-2.19-2.38c-1.1-0.35-1.88,0.38-2.19,0c-0.35-0.41,0.22-1.73,2.19-4.76
	c3.04-4.66,4.01-5.06,4.39-7.13c0.47-2.54-0.73-3.23,0-4.76c1.6-3.33,8.48-2.42,8.78-2.38c0.71,0.1,2.67,0.86,6.58,2.38
	c3.16,1.22,4.43,1.79,4.39,2.38c-0.05,0.67-1.78,0.66-4.39,2.38c-1.13,0.75-2.25,1.51-2.19,2.38
	C84.92,221.05,86.6,221.04,87.05,222.38z"/>
</svg>
