<?xml version="1.0" encoding="utf-8"?>
<!-- Generator: Adobe Illustrator 23.0.5, SVG Export Plug-In . SVG Version: 6.00 Build 0)  -->
<svg version="1.1" id="Capa_1" xmlns="http://www.w3.org/2000/svg" xmlns:xlink="http://www.w3.org/1999/xlink" x="0px" y="0px"
	 viewBox="0 0 110 45" style="enable-background:new 0 0 110 45;" xml:space="preserve">
<style type="text/css">
	.st0{fill:none;}
	.st1{fill:#609235;}
	.st2{fill:url(#SVGID_1_);}
	.st3{fill:url(#SVGID_2_);}
	.st4{fill:url(#SVGID_3_);}
	.st5{fill:#EDC500;}
	.st6{fill:url(#SVGID_4_);}
	.st7{fill:url(#SVGID_5_);}
	.st8{fill:url(#SVGID_6_);}
	.st9{fill:url(#SVGID_7_);}
	.st10{fill:url(#SVGID_8_);}
	.st11{fill:url(#SVGID_9_);}
	.st12{fill:url(#SVGID_10_);}
	.st13{fill:url(#SVGID_11_);}
	.st14{fill:url(#SVGID_12_);}
	.st15{fill:url(#SVGID_13_);}
	.st16{fill:url(#SVGID_14_);}
	.st17{fill:url(#SVGID_15_);}
	.st18{fill:url(#SVGID_16_);}
	.st19{fill:url(#SVGID_17_);}
	.st20{fill:url(#SVGID_18_);}
	.st21{fill:url(#SVGID_19_);}
	.st22{fill:url(#SVGID_20_);}
	.st23{fill:url(#SVGID_21_);}
	.st24{fill:url(#Follaje);stroke:url(#Follaje);stroke-miterlimit:10;}
	.st25{fill:#70A83B;stroke:#336535;stroke-width:0.25;stroke-miterlimit:10;}
	.st26{font-family:'MVBoli';}
	.st27{font-size:22px;}
	.st28{letter-spacing:-1;}
	.st29{fill:#336535;stroke:#000000;stroke-width:0.25;stroke-miterlimit:10;}
</style>
<pattern  x="30" y="-5" width="446.64" height="259.18" patternUnits="userSpaceOnUse" id="Follaje" viewBox="146.56 -378.06 446.64 259.18" style="overflow:visible;">
	<g>
		<rect x="146.56" y="-378.06" class="st0" width="446.64" height="259.18"/>
		<g>
			<path class="st1" d="M525.4-187.37c5.52,4.58,10.66,12.46,11.44,22.75c1.08-10.23,3.2-18.13,8.21-23.96c0,0-6.33,3.1-8.62,9.15
				C533.47-184.68,525.4-187.37,525.4-187.37z"/>
			<path class="st1" d="M511.4-238.26c1.22,5.97,6.31,11.18,12.92,13.73c-2.71-6.99-1.7-13.8,2.15-19.79
				c-0.9,7.77,1.47,13.21,5.79,18.04c-1.36-4.83-1.24-9.27,1.08-13.87c-0.94,8.48,6.17,12.79,15.62,18.44
				c12.66,7.58,17.28,16.04,19.25,27.23c-3.45-6.87-9.9-13.14-27.86-17.29C518.05-216.92,509.95-224.18,511.4-238.26z"/>
			
				<linearGradient id="SVGID_1_" gradientUnits="userSpaceOnUse" x1="-38891.8867" y1="-53399.1367" x2="-38915.1836" y2="-53391.1992" gradientTransform="matrix(1 0 0 -1 39406.5586 -53548.4453)">
				<stop  offset="0.2331" style="stop-color:#E2A900"/>
				<stop  offset="0.7607" style="stop-color:#EDC500"/>
			</linearGradient>
			<path class="st2" d="M511.67-146.05c-4.69-4.6-6.91-12.18-7.27-21.72c-0.47-12.53-5.41-17.66-13.33-18.53
				c11.8,4.58,4.44,17.12,7.94,25.85c-6.44-4.79-4.38-20.68-17.63-21.4c9.78,3.2,2.83,16.68,9.29,24.5
				c-7.81-0.11-11.4,6.13-21.54,3.23c4.71,3.64,9.96,5.92,18.85,5.92c-6.25,3.86-9,8.63-11.31,15.35
				C486.79-143.45,501.52-147.52,511.67-146.05z"/>
			
				<radialGradient id="SVGID_2_" cx="-38813.3633" cy="-53429.5664" r="133.4365" gradientTransform="matrix(1 0 0 -1 39406.5586 -53548.4453)" gradientUnits="userSpaceOnUse">
				<stop  offset="0.3479" style="stop-color:#7CA535"/>
				<stop  offset="0.7607" style="stop-color:#99B833"/>
			</radialGradient>
			<path class="st3" d="M629.04-111.6c29.44,4.02,46.23,20.79,49.15,36.55c-3.92-9.25-12.98-15.22-23.6-18.63
				c10.62,14.01,7.19,31.87,21.12,41.7c-10.37-11.04-7.21-24.46-14.9-36.73c12.26,6.9,14.12,16.67,17.02,27.15
				c4.38,15.84,11.54,20.09,17.22,22.18c-11.7,0.45-28.66-4.53-36.78-20.1c-8.61-16.51-1.45-34.41-22.48-43.77
				c9.6,8.06,14.73,19.52,8.69,34.42c2.26-21.92-20.63-25.5-24.31-40.45c-0.63,11.53,7.18,21.22,14.55,25.9
				c-10.29-3.37-19.21-8.99-23.42-21.82c-6.92,21.39,5.31,38.45,12.9,38.45c2.63,0,4.54-1.67,4.54-4.16
				c0-6.45-11.64-6.45-14.6-18.85c5.32,10.82,25.55,8.87,25.55,20.76c0,9.74-13.64,14.04-22.36,7.98
				c6.39,8.34,21.26,8.62,25.55-1.42c0.66,4.31-1.31,10.76-7.45,13.13c-6.99,2.7-13.48-2.48-13.48-2.48
				c7.64,11.01,20.94,3.67,34.07,3.9c10.87,0.19,18.11,5.82,21.29,11.18c-2.97-1.49-4.64-1.89-7.63-1.95
				c6.29,3.88,10.85,12.8,9.05,21.47c-1.3-6.25-8.57-10.68-22.36-11.63c-15.56-1.08-23.81-3.57-29.1-9.3
				c11.2,4.96,28.94-1.91,40.99,6.03c-7.45-8.54-23.93-6.09-35.71-7.98c-20.71-3.32-33.32-38.29-31.71-53.63
				c-5.66,23.42,9.46,36.2,12.79,49.13c3.63,14.13-3.37,23.83-9.95,28.8c10.28-15.4-7.42-24.63-4.61-44.36
				c-5.23,19.19,4.44,24.66,4.44,34.6c0,9.76-8.58,12.99-10.29,25.55c-1.71-12.55-10.29-15.79-10.29-25.55
				c0-9.94,9.66-15.41,4.44-34.6c2.8,19.73-14.89,28.96-4.61,44.36c-6.58-4.98-13.58-14.67-9.95-28.8
				c3.32-12.93,18.44-25.71,12.79-49.13c1.62,15.35-11,50.31-31.71,53.63c-11.78,1.89-28.26-0.56-35.72,7.98
				c12.05-7.94,29.78-1.08,40.99-6.03c-5.29,5.73-13.54,8.23-29.1,9.3c-13.79,0.96-21.06,5.38-22.36,11.63
				c-1.8-8.67,2.75-17.59,9.05-21.47c-2.99,0.07-4.66,0.46-7.63,1.95c3.19-5.36,10.42-10.99,21.29-11.18
				c13.13-0.23,26.42,7.11,34.07-3.9c0,0-6.5,5.18-13.48,2.48c-6.15-2.37-8.12-8.82-7.45-13.13c4.29,10.04,19.16,9.76,25.55,1.42
				c-8.72,6.05-22.36,1.75-22.36-7.98c0-11.89,20.23-9.94,25.55-20.76c-2.96,12.41-14.6,12.41-14.6,18.85
				c0,2.49,1.91,4.16,4.54,4.16c7.58,0,19.82-17.06,12.9-38.45c-4.2,12.83-13.13,18.45-23.42,21.82
				c7.37-4.68,15.18-14.37,14.55-25.9c-3.68,14.95-26.56,18.53-24.31,40.45c-6.03-14.9-0.91-26.37,8.7-34.42
				C529.58-93.9,536.74-76,528.13-59.49c-8.12,15.57-25.08,20.55-36.78,20.1c5.67-2.09,12.84-6.33,17.22-22.18
				c2.9-10.48,4.77-20.25,17.02-27.15c-7.69,12.27-4.54,25.69-14.9,36.73c13.92-9.83,10.5-27.68,21.11-41.7
				c-10.62,3.41-19.68,9.38-23.6,18.63c2.91-15.76,19.71-32.53,49.15-36.55c-30.33-1.29-36.17,15.55-51.46,16.16
				c-9.68,0.38-18.14-8.39-28.03-13.68c12.11,3.07,31.11,11.33,41.16-2.13c0,0-6.19,5.26-18.28,3.73
				c-12.27-1.56-23.46-9.4-54.12-11.36c30.65-1.96,41.84-9.8,54.12-11.36c12.08-1.54,18.28,3.72,18.28,3.72
				c-10.06-13.46-29.05-5.2-41.16-2.13c9.9-5.29,18.35-14.06,28.03-13.68c15.28,0.61,21.13,17.45,51.46,16.16
				c-29.44-4.02-46.23-20.79-49.15-36.55c3.92,9.25,12.98,15.22,23.6,18.63c-10.62-14.01-7.19-31.87-21.11-41.7
				c10.37,11.04,7.21,24.46,14.9,36.73c-12.26-6.89-14.13-16.67-17.02-27.15c-4.38-15.85-11.55-20.09-17.22-22.18
				c11.7-0.45,28.66,4.53,36.78,20.1c8.61,16.51,1.45,34.41,22.48,43.77c-9.6-8.06-14.73-19.52-8.7-34.42
				c-2.25,21.92,20.63,25.5,24.31,40.45c0.63-11.53-7.18-21.22-14.55-25.9c10.29,3.37,19.22,8.99,23.42,21.82
				c6.93-21.39-5.31-38.46-12.9-38.46c-2.63,0-4.54,1.67-4.54,4.16c0,6.45,11.64,6.45,14.6,18.85
				c-5.32-10.82-25.55-8.87-25.55-20.76c0-9.74,13.64-14.04,22.36-7.99c-6.39-8.34-21.26-8.62-25.55,1.42
				c-0.66-4.31,1.31-10.76,7.45-13.13c6.98-2.7,13.48,2.48,13.48,2.48c-7.64-11.01-20.94-3.67-34.07-3.9
				c-10.87-0.19-18.11-5.82-21.29-11.18c2.97,1.48,4.64,1.88,7.63,1.95c-6.29-3.88-10.85-12.8-9.05-21.47
				c1.3,6.25,8.57,10.68,22.36,11.63c15.56,1.08,23.81,3.57,29.1,9.3c-11.2-4.96-28.94,1.91-40.99-6.03
				c7.45,8.54,23.93,6.09,35.72,7.98c20.71,3.32,33.32,38.29,31.71,53.63c5.65-23.42-9.46-36.2-12.79-49.13
				c-3.63-14.13,3.37-23.83,9.95-28.8c-10.28,15.4,7.42,24.63,4.61,44.36c5.23-19.19-4.44-24.66-4.44-34.6
				c0-9.76,8.59-13,10.29-25.55c1.71,12.55,10.29,15.79,10.29,25.55c0,9.94-9.66,15.41-4.44,34.6c-2.8-19.73,14.89-28.96,4.61-44.36
				c6.58,4.98,13.58,14.67,9.95,28.8c-3.33,12.93-18.44,25.71-12.79,49.13c-1.62-15.35,11-50.31,31.71-53.63
				c11.78-1.89,28.26,0.56,35.71-7.98c-12.05,7.94-29.79,1.07-40.99,6.03c5.29-5.74,13.54-8.23,29.1-9.3
				c13.78-0.95,21.06-5.38,22.36-11.63c1.8,8.67-2.76,17.59-9.05,21.47c2.99-0.07,4.66-0.47,7.63-1.95
				c-3.19,5.36-10.42,10.99-21.29,11.18c-13.13,0.23-26.43-7.11-34.07,3.9c0,0,6.5-5.18,13.48-2.48c6.14,2.37,8.12,8.82,7.45,13.13
				c-4.29-10.04-19.16-9.76-25.55-1.42c8.72-6.05,22.36-1.75,22.36,7.99c0,11.89-20.23,9.94-25.55,20.76
				c2.96-12.4,14.6-12.4,14.6-18.85c0-2.49-1.91-4.16-4.54-4.16c-7.59,0-19.82,17.06-12.9,38.46c4.21-12.83,13.13-18.45,23.42-21.82
				c-7.37,4.68-15.18,14.37-14.55,25.9c3.68-14.95,26.56-18.53,24.31-40.45c6.03,14.9,0.91,26.37-8.69,34.42
				c21.03-9.36,13.87-27.26,22.48-43.77c8.12-15.57,25.08-20.55,36.78-20.1c-5.68,2.09-12.84,6.33-17.22,22.18
				c-2.9,10.48-4.77,20.25-17.02,27.15c7.69-12.26,4.54-25.69,14.9-36.73c-13.92,9.83-10.5,27.68-21.12,41.7
				c10.62-3.41,19.68-9.38,23.6-18.63c-2.92,15.76-19.71,32.53-49.15,36.55c30.33,1.29,36.17-15.55,51.45-16.16
				c9.68-0.38,18.14,8.39,28.04,13.68c-12.11-3.07-31.11-11.33-41.16,2.13c0,0,6.19-5.26,18.28-3.72
				c12.27,1.56,23.46,9.4,54.12,11.36c-30.65,1.96-41.84,9.8-54.12,11.36c-12.08,1.53-18.28-3.73-18.28-3.73
				c10.06,13.46,29.05,5.2,41.16,2.13c-9.9,5.29-18.35,14.06-28.04,13.68C665.21-96.05,659.37-112.89,629.04-111.6z M662.39-118.88
				c4.61,1.24,8.63,3.77,14.49,3.77c7.11,0,11.07-2.75,16.74-3.77c-5.67-1.02-9.63-3.77-16.74-3.77
				C671.03-122.65,667.01-120.12,662.39-118.88z M590.18-209.19c0,5.12,3.02,8.4,3.02,12.12c0-3.73,3.02-7,3.02-12.12
				c0-4.57-2.25-6.65-3.02-11.43C592.43-215.84,590.18-213.76,590.18-209.19z M524-118.88c-4.61-1.24-8.63-3.77-14.49-3.77
				c-7.11,0-11.07,2.75-16.74,3.77c5.67,1.02,9.63,3.77,16.74,3.77C515.37-115.11,519.39-117.63,524-118.88z M596.21-28.57
				c0-5.12-3.02-8.4-3.02-12.12c0,3.72-3.02,7-3.02,12.12c0,4.57,2.25,6.65,3.02,11.43C593.96-21.91,596.21-24,596.21-28.57z
				 M638.27-118.88c-9.94,0-24.09-4.98-34.95-3.02c3.45-2.1,4.98-3.67,7.45-6.74c-4.41,0.43-6.76,0.8-10.11,2.31
				c2.66-6.02,3.19-9.4,3.72-15.44c-3.07,3.57-4.64,5.74-6.56,10.65c0.71-12.42-4.26-15.25-4.61-31.76
				c-0.36,16.51-5.32,19.34-4.61,31.76c-1.92-4.91-3.49-7.08-6.56-10.65c0.53,6.04,1.06,9.42,3.73,15.44
				c-3.36-1.51-5.71-1.87-10.12-2.31c2.47,3.07,4,4.64,7.45,6.74c-10.87-1.97-25.02,3.02-34.95,3.02c9.94,0,24.09,4.98,34.95,3.02
				c-3.45,2.1-4.98,3.67-7.45,6.74c4.41-0.43,6.76-0.8,10.12-2.31c-2.66,6.02-3.2,9.4-3.73,15.44c3.07-3.57,4.64-5.74,6.56-10.65
				c-0.71,12.42,4.26,15.25,4.61,31.76c0.36-16.51,5.32-19.34,4.61-31.76c1.93,4.91,3.5,7.08,6.56,10.65
				c-0.53-6.04-1.06-9.42-3.72-15.44c3.36,1.51,5.71,1.87,10.11,2.31c-2.47-3.07-4-4.64-7.45-6.74
				C614.18-113.9,628.33-118.88,638.27-118.88z"/>
			
				<linearGradient id="SVGID_3_" gradientUnits="userSpaceOnUse" x1="55266.75" y1="-53343.3164" x2="55266.75" y2="-53315.207" gradientTransform="matrix(-1 0 0 -1 55830.9844 -53548.4453)">
				<stop  offset="0.2331" style="stop-color:#E2A900"/>
				<stop  offset="0.7607" style="stop-color:#EDC500"/>
			</linearGradient>
			<path class="st4" d="M538.32-240.14c2.64,13.83,25.37,16.26,30.29,34.06c3.77-19.12,21.29-19.87,21.54-33.11
				c-3.18,7.8-10.84,5.79-15.88,12.12c0.85-6.15,4.63-11.89,12.38-15.08c-7.67-1.08-15.63,1.83-19.12,9.56
				c-2.56-4.17-2.81-8.45-0.67-13.87c-4.71,3.63-7.49,9.3-5.65,16.56C553.94-237.18,543.3-233.14,538.32-240.14z"/>
			<path class="st5" d="M611.42-118.88c-4.26-0.66-9.39-3.2-14.13-1.22c2.32-1.8,1.14-3.51,2.53-5.2c-1.92,1.39-3.51,0.5-4.99,2.75
				c1.54-5.31-0.53-8.14-1.63-14.12c-1.1,5.98-3.17,8.81-1.63,14.12c-1.47-2.24-3.07-1.36-4.98-2.75c1.38,1.68,0.21,3.39,2.53,5.2
				c-4.74-1.98-9.88,0.56-14.13,1.22c4.26,0.67,9.39,3.2,14.13,1.22c-2.32,1.8-1.14,3.52-2.53,5.2c1.92-1.39,3.51-0.5,4.98-2.74
				c-1.54,5.31,0.53,8.14,1.63,14.12c1.1-5.98,3.17-8.81,1.63-14.12c1.48,2.24,3.07,1.36,4.99,2.74c-1.38-1.68-0.21-3.39-2.53-5.2
				C602.03-115.68,607.16-118.21,611.42-118.88z"/>
		</g>
		<g>
			
				<linearGradient id="SVGID_4_" gradientUnits="userSpaceOnUse" x1="55605.9023" y1="-53399.1367" x2="55582.6016" y2="-53391.1992" gradientTransform="matrix(-1 0 0 -1 55830.9844 -53548.4453)">
				<stop  offset="0.2331" style="stop-color:#E2A900"/>
				<stop  offset="0.7607" style="stop-color:#EDC500"/>
			</linearGradient>
			<path class="st6" d="M228.09-146.05c4.69-4.6,6.91-12.18,7.27-21.72c0.47-12.53,5.41-17.66,13.33-18.53
				c-11.8,4.58-4.44,17.12-7.94,25.85c6.44-4.79,4.38-20.68,17.63-21.4c-9.78,3.2-2.84,16.68-9.29,24.5
				c7.81-0.11,11.4,6.13,21.54,3.23c-4.72,3.64-9.96,5.92-18.85,5.92c6.25,3.86,9,8.63,11.31,15.35
				C252.96-143.45,238.24-147.52,228.09-146.05z"/>
			<path class="st1" d="M214.36-187.37c-5.52,4.58-10.66,12.46-11.44,22.75c-1.08-10.23-3.2-18.13-8.21-23.96
				c0,0,6.33,3.1,8.62,9.15C206.28-184.68,214.36-187.37,214.36-187.37z"/>
			<path class="st1" d="M228.36-238.26c-1.22,5.97-6.31,11.18-12.92,13.73c2.71-6.99,1.7-13.8-2.15-19.79
				c0.9,7.77-1.47,13.21-5.79,18.04c1.36-4.83,1.24-9.27-1.08-13.87c0.94,8.48-6.17,12.79-15.62,18.44
				c-12.66,7.58-17.28,16.04-19.25,27.23c3.45-6.87,9.9-13.14,27.86-17.29C221.71-216.92,229.8-224.18,228.36-238.26z"/>
			
				<linearGradient id="SVGID_5_" gradientUnits="userSpaceOnUse" x1="-39231.0352" y1="-53343.3164" x2="-39231.0352" y2="-53315.207" gradientTransform="matrix(1 0 0 -1 39406.5586 -53548.4453)">
				<stop  offset="0.2331" style="stop-color:#E2A900"/>
				<stop  offset="0.7607" style="stop-color:#EDC500"/>
			</linearGradient>
			<path class="st7" d="M201.44-240.14c-2.64,13.83-25.37,16.26-30.29,34.06c-3.77-19.12-21.29-19.87-21.54-33.11
				c3.18,7.8,10.84,5.79,15.88,12.12c-0.85-6.15-4.63-11.89-12.38-15.08c7.67-1.08,15.63,1.83,19.12,9.56
				c2.56-4.17,2.81-8.45,0.67-13.87c4.71,3.63,7.49,9.3,5.65,16.56C185.82-237.18,196.46-233.14,201.44-240.14z"/>
			
				<radialGradient id="SVGID_6_" cx="-39260.0039" cy="-53429.5664" r="133.4365" gradientTransform="matrix(1 0 0 -1 39406.5586 -53548.4453)" gradientUnits="userSpaceOnUse">
				<stop  offset="0.3479" style="stop-color:#7CA535"/>
				<stop  offset="0.7607" style="stop-color:#99B833"/>
			</radialGradient>
			<path class="st8" d="M182.4-111.6c29.44,4.02,46.23,20.79,49.15,36.55c-3.92-9.25-12.98-15.22-23.6-18.63
				c10.62,14.01,7.19,31.87,21.12,41.7c-10.37-11.04-7.21-24.46-14.9-36.73c12.26,6.9,14.12,16.67,17.02,27.15
				c4.38,15.84,11.54,20.09,17.22,22.18c-11.7,0.45-28.66-4.53-36.78-20.1c-8.61-16.51-1.45-34.41-22.48-43.77
				c9.6,8.06,14.73,19.52,8.69,34.42c2.26-21.92-20.63-25.5-24.31-40.45c-0.63,11.53,7.18,21.22,14.55,25.9
				c-10.29-3.37-19.21-8.99-23.42-21.82c-6.92,21.39,5.31,38.45,12.9,38.45c2.63,0,4.54-1.67,4.54-4.16
				c0-6.45-11.64-6.45-14.6-18.85c5.32,10.82,25.55,8.87,25.55,20.76c0,9.74-13.64,14.04-22.36,7.98
				c6.39,8.34,21.26,8.62,25.55-1.42c0.66,4.31-1.31,10.76-7.45,13.13c-6.99,2.7-13.48-2.48-13.48-2.48
				c7.64,11.01,20.94,3.67,34.07,3.9c10.87,0.19,18.11,5.82,21.29,11.18c-2.97-1.49-4.64-1.89-7.63-1.95
				c6.29,3.88,10.85,12.8,9.05,21.47c-1.3-6.25-8.57-10.68-22.36-11.63c-15.56-1.08-23.81-3.57-29.1-9.3
				c11.2,4.96,28.94-1.91,40.99,6.03c-7.45-8.54-23.93-6.09-35.71-7.98c-20.71-3.32-33.32-38.29-31.71-53.63
				c-5.66,23.42,9.46,36.2,12.79,49.13c3.63,14.13-3.37,23.83-9.95,28.8c10.28-15.4-7.42-24.63-4.61-44.36
				c-5.23,19.19,4.44,24.66,4.44,34.6c0,9.76-8.58,12.99-10.29,25.55c-1.71-12.55-10.29-15.79-10.29-25.55
				c0-9.94,9.66-15.41,4.44-34.6c2.8,19.73-14.89,28.96-4.61,44.36c-6.58-4.98-13.58-14.67-9.95-28.8
				c3.32-12.93,18.44-25.71,12.79-49.13c1.62,15.35-11,50.31-31.71,53.63c-11.78,1.89-28.26-0.56-35.72,7.98
				c12.05-7.94,29.78-1.08,40.99-6.03c-5.29,5.73-13.54,8.23-29.1,9.3c-13.79,0.96-21.06,5.38-22.36,11.63
				c-1.8-8.67,2.75-17.59,9.05-21.47c-2.99,0.07-4.66,0.46-7.63,1.95c3.19-5.36,10.42-10.99,21.29-11.18
				c13.13-0.23,26.42,7.11,34.07-3.9c0,0-6.5,5.18-13.48,2.48c-6.15-2.37-8.12-8.82-7.45-13.13c4.29,10.04,19.16,9.76,25.55,1.42
				c-8.72,6.05-22.36,1.75-22.36-7.98c0-11.89,20.23-9.94,25.55-20.76c-2.96,12.41-14.6,12.41-14.6,18.85
				c0,2.49,1.91,4.16,4.54,4.16c7.58,0,19.82-17.06,12.9-38.45c-4.2,12.83-13.13,18.45-23.42,21.82
				c7.37-4.68,15.18-14.37,14.55-25.9c-3.68,14.95-26.56,18.53-24.31,40.45c-6.03-14.9-0.91-26.37,8.7-34.42
				C82.94-93.9,90.1-76,81.49-59.49c-8.12,15.57-25.08,20.55-36.78,20.1c5.67-2.09,12.84-6.33,17.22-22.18
				c2.9-10.48,4.77-20.25,17.02-27.15c-7.69,12.27-4.54,25.69-14.9,36.73c13.92-9.83,10.5-27.68,21.11-41.7
				c-10.62,3.41-19.68,9.38-23.6,18.63c2.91-15.76,19.71-32.53,49.15-36.55c-30.33-1.29-36.17,15.55-51.46,16.16
				c-9.68,0.38-18.14-8.39-28.03-13.68c12.11,3.07,31.11,11.33,41.16-2.13c0,0-6.19,5.26-18.28,3.73
				c-12.27-1.56-23.46-9.4-54.12-11.36c30.65-1.96,41.84-9.8,54.12-11.36c12.08-1.54,18.28,3.72,18.28,3.72
				c-10.06-13.46-29.05-5.2-41.16-2.13c9.9-5.29,18.35-14.06,28.03-13.68c15.28,0.61,21.13,17.45,51.46,16.16
				c-29.44-4.02-46.23-20.79-49.15-36.55c3.92,9.25,12.98,15.22,23.6,18.63c-10.62-14.01-7.19-31.87-21.11-41.7
				c10.37,11.04,7.21,24.46,14.9,36.73c-12.26-6.89-14.13-16.67-17.02-27.15c-4.38-15.85-11.55-20.09-17.22-22.18
				c11.7-0.45,28.66,4.53,36.78,20.1c8.61,16.51,1.45,34.41,22.48,43.77c-9.6-8.06-14.73-19.52-8.7-34.42
				c-2.25,21.92,20.63,25.5,24.31,40.45c0.63-11.53-7.18-21.22-14.55-25.9c10.29,3.37,19.22,8.99,23.42,21.82
				c6.93-21.39-5.31-38.46-12.9-38.46c-2.63,0-4.54,1.67-4.54,4.16c0,6.45,11.64,6.45,14.6,18.85
				c-5.32-10.82-25.55-8.87-25.55-20.76c0-9.74,13.64-14.04,22.36-7.99c-6.39-8.34-21.26-8.62-25.55,1.42
				c-0.66-4.31,1.31-10.76,7.45-13.13c6.98-2.7,13.48,2.48,13.48,2.48c-7.64-11.01-20.94-3.67-34.07-3.9
				c-10.87-0.19-18.11-5.82-21.29-11.18c2.97,1.48,4.64,1.88,7.63,1.95c-6.29-3.88-10.85-12.8-9.05-21.47
				c1.3,6.25,8.57,10.68,22.36,11.63c15.56,1.08,23.81,3.57,29.1,9.3c-11.2-4.96-28.94,1.91-40.99-6.03
				c7.45,8.54,23.93,6.09,35.72,7.98c20.71,3.32,33.32,38.29,31.71,53.63c5.65-23.42-9.46-36.2-12.79-49.13
				c-3.63-14.13,3.37-23.83,9.95-28.8c-10.28,15.4,7.42,24.63,4.61,44.36c5.23-19.19-4.44-24.66-4.44-34.6
				c0-9.76,8.59-13,10.29-25.55c1.71,12.55,10.29,15.79,10.29,25.55c0,9.94-9.66,15.41-4.44,34.6c-2.8-19.73,14.89-28.96,4.61-44.36
				c6.58,4.98,13.58,14.67,9.95,28.8c-3.33,12.93-18.44,25.71-12.79,49.13c-1.62-15.35,11-50.31,31.71-53.63
				c11.78-1.89,28.26,0.56,35.71-7.98c-12.05,7.94-29.79,1.07-40.99,6.03c5.29-5.74,13.54-8.23,29.1-9.3
				c13.78-0.95,21.06-5.38,22.36-11.63c1.8,8.67-2.76,17.59-9.05,21.47c2.99-0.07,4.66-0.47,7.63-1.95
				c-3.19,5.36-10.42,10.99-21.29,11.18c-13.13,0.23-26.43-7.11-34.07,3.9c0,0,6.5-5.18,13.48-2.48c6.14,2.37,8.12,8.82,7.45,13.13
				c-4.29-10.04-19.16-9.76-25.55-1.42c8.72-6.05,22.36-1.75,22.36,7.99c0,11.89-20.23,9.94-25.55,20.76
				c2.96-12.4,14.6-12.4,14.6-18.85c0-2.49-1.91-4.16-4.54-4.16c-7.59,0-19.82,17.06-12.9,38.46c4.21-12.83,13.13-18.45,23.42-21.82
				c-7.37,4.68-15.18,14.37-14.55,25.9c3.68-14.95,26.56-18.53,24.31-40.45c6.03,14.9,0.91,26.37-8.69,34.42
				c21.03-9.36,13.87-27.26,22.48-43.77c8.12-15.57,25.08-20.55,36.78-20.1c-5.68,2.09-12.84,6.33-17.22,22.18
				c-2.9,10.48-4.77,20.25-17.02,27.15c7.69-12.26,4.54-25.69,14.9-36.73c-13.92,9.83-10.5,27.68-21.12,41.7
				c10.62-3.41,19.68-9.38,23.6-18.63c-2.92,15.76-19.71,32.53-49.15,36.55c30.33,1.29,36.17-15.55,51.45-16.16
				c9.68-0.38,18.14,8.39,28.04,13.68c-12.11-3.07-31.11-11.33-41.16,2.13c0,0,6.19-5.26,18.28-3.72
				c12.27,1.56,23.46,9.4,54.12,11.36c-30.65,1.96-41.84,9.8-54.12,11.36c-12.08,1.53-18.28-3.73-18.28-3.73
				c10.06,13.46,29.05,5.2,41.16,2.13c-9.9,5.29-18.35,14.06-28.04,13.68C218.57-96.05,212.72-112.89,182.4-111.6z M215.75-118.88
				c4.61,1.24,8.63,3.77,14.49,3.77c7.11,0,11.07-2.75,16.74-3.77c-5.67-1.02-9.63-3.77-16.74-3.77
				C224.39-122.65,220.37-120.12,215.75-118.88z M143.54-209.19c0,5.12,3.02,8.4,3.02,12.12c0-3.73,3.02-7,3.02-12.12
				c0-4.57-2.25-6.65-3.02-11.43C145.79-215.84,143.54-213.76,143.54-209.19z M77.36-118.88c-4.61-1.24-8.63-3.77-14.49-3.77
				c-7.11,0-11.07,2.75-16.74,3.77c5.67,1.02,9.63,3.77,16.74,3.77C68.73-115.11,72.75-117.63,77.36-118.88z M149.57-28.57
				c0-5.12-3.02-8.4-3.02-12.12c0,3.72-3.02,7-3.02,12.12c0,4.57,2.25,6.65,3.02,11.43C147.32-21.91,149.57-24,149.57-28.57z
				 M191.63-118.88c-9.94,0-24.09-4.98-34.95-3.02c3.45-2.1,4.98-3.67,7.45-6.74c-4.41,0.43-6.76,0.8-10.11,2.31
				c2.66-6.02,3.19-9.4,3.72-15.44c-3.07,3.57-4.64,5.74-6.56,10.65c0.71-12.42-4.26-15.25-4.61-31.76
				c-0.36,16.51-5.32,19.34-4.61,31.76c-1.92-4.91-3.49-7.08-6.56-10.65c0.53,6.04,1.06,9.42,3.73,15.44
				c-3.36-1.51-5.71-1.87-10.12-2.31c2.47,3.07,4,4.64,7.45,6.74c-10.87-1.97-25.02,3.02-34.95,3.02c9.94,0,24.09,4.98,34.95,3.02
				c-3.45,2.1-4.98,3.67-7.45,6.74c4.41-0.43,6.76-0.8,10.12-2.31c-2.66,6.02-3.2,9.4-3.73,15.44c3.07-3.57,4.64-5.74,6.56-10.65
				c-0.71,12.42,4.26,15.25,4.61,31.76c0.36-16.51,5.32-19.34,4.61-31.76c1.93,4.91,3.5,7.08,6.56,10.65
				c-0.53-6.04-1.06-9.42-3.72-15.44c3.36,1.51,5.71,1.87,10.11,2.31c-2.47-3.07-4-4.64-7.45-6.74
				C167.54-113.9,181.69-118.88,191.63-118.88z"/>
			<path class="st5" d="M164.78-118.88c-4.26-0.66-9.39-3.2-14.13-1.22c2.32-1.8,1.14-3.51,2.53-5.2c-1.92,1.39-3.51,0.5-4.99,2.75
				c1.54-5.31-0.53-8.14-1.63-14.12c-1.1,5.98-3.17,8.81-1.63,14.12c-1.47-2.24-3.07-1.36-4.98-2.75c1.38,1.68,0.21,3.39,2.53,5.2
				c-4.74-1.98-9.88,0.56-14.13,1.22c4.26,0.67,9.39,3.2,14.13,1.22c-2.32,1.8-1.14,3.52-2.53,5.2c1.92-1.39,3.51-0.5,4.98-2.74
				c-1.54,5.31,0.53,8.14,1.63,14.12c1.1-5.98,3.17-8.81,1.63-14.12c1.48,2.24,3.07,1.36,4.99,2.74c-1.38-1.68-0.21-3.39-2.53-5.2
				C155.39-115.68,160.52-118.21,164.78-118.88z"/>
		</g>
		<g>
			
				<linearGradient id="SVGID_7_" gradientUnits="userSpaceOnUse" x1="55202.75" y1="36770.8789" x2="55202.75" y2="36798.9844" gradientTransform="matrix(-1 0 0 1 55766.9844 -37062.6875)">
				<stop  offset="0.2331" style="stop-color:#E2A900"/>
				<stop  offset="0.7607" style="stop-color:#EDC500"/>
			</linearGradient>
			<path class="st9" d="M538.32-256.8c2.64-13.83,25.37-16.26,30.29-34.06c3.77,19.12,21.29,19.87,21.54,33.12
				c-3.18-7.8-10.84-5.79-15.88-12.12c0.85,6.15,4.63,11.89,12.38,15.08c-7.67,1.08-15.63-1.83-19.12-9.56
				c-2.56,4.17-2.81,8.45-0.67,13.87c-4.71-3.63-7.49-9.3-5.65-16.56C553.94-259.76,543.3-263.8,538.32-256.8z"/>
			<path class="st1" d="M525.4-309.57c5.52-4.58,10.66-12.46,11.44-22.75c1.08,10.23,3.2,18.13,8.21,23.96c0,0-6.33-3.1-8.62-9.15
				C533.47-312.26,525.4-309.57,525.4-309.57z"/>
			<path class="st1" d="M511.4-258.68c1.22-5.97,6.31-11.18,12.92-13.73c-2.71,6.99-1.7,13.8,2.15,19.79
				c-0.9-7.77,1.47-13.21,5.79-18.04c-1.36,4.83-1.24,9.27,1.08,13.87c-0.94-8.48,6.17-12.79,15.62-18.44
				c12.66-7.58,17.28-16.04,19.25-27.23c-3.45,6.87-9.9,13.14-27.86,17.29C518.05-280.01,509.95-272.76,511.4-258.68z"/>
			
				<radialGradient id="SVGID_8_" cx="-38813.3633" cy="-53170.3828" r="133.4365" gradientTransform="matrix(1 0 0 -1 39406.5586 -53548.4453)" gradientUnits="userSpaceOnUse">
				<stop  offset="0.3479" style="stop-color:#7CA535"/>
				<stop  offset="0.7607" style="stop-color:#99B833"/>
			</radialGradient>
			<path class="st10" d="M629.04-370.79c29.44,4.02,46.23,20.79,49.15,36.55c-3.92-9.25-12.98-15.22-23.6-18.63
				c10.62,14.01,7.19,31.87,21.12,41.7c-10.37-11.04-7.21-24.46-14.9-36.73c12.26,6.9,14.12,16.67,17.02,27.15
				c4.38,15.84,11.54,20.09,17.22,22.18c-11.7,0.45-28.66-4.53-36.78-20.1c-8.61-16.51-1.45-34.41-22.48-43.77
				c9.6,8.06,14.73,19.52,8.69,34.42c2.26-21.92-20.63-25.51-24.31-40.45c-0.63,11.53,7.18,21.22,14.55,25.9
				c-10.29-3.37-19.21-8.99-23.42-21.82c-6.92,21.39,5.31,38.46,12.9,38.46c2.63,0,4.54-1.67,4.54-4.16
				c0-6.45-11.64-6.45-14.6-18.86c5.32,10.82,25.55,8.87,25.55,20.76c0,9.74-13.64,14.04-22.36,7.98
				c6.39,8.34,21.26,8.62,25.55-1.42c0.66,4.31-1.31,10.76-7.45,13.13c-6.99,2.7-13.48-2.48-13.48-2.48
				c7.64,11.01,20.94,3.67,34.07,3.9c10.87,0.19,18.11,5.82,21.29,11.18c-2.97-1.49-4.64-1.89-7.63-1.95
				c6.29,3.88,10.85,12.79,9.05,21.47c-1.3-6.25-8.57-10.68-22.36-11.63c-15.56-1.08-23.81-3.57-29.1-9.3
				c11.2,4.96,28.94-1.91,40.99,6.03c-7.45-8.54-23.93-6.09-35.71-7.98c-20.71-3.32-33.32-38.29-31.71-53.63
				c-5.66,23.42,9.46,36.2,12.79,49.13c3.63,14.13-3.37,23.83-9.95,28.8c10.28-15.4-7.42-24.63-4.61-44.36
				c-5.23,19.19,4.44,24.66,4.44,34.6c0,9.76-8.58,12.99-10.29,25.55c-1.71-12.55-10.29-15.79-10.29-25.55
				c0-9.94,9.66-15.41,4.44-34.6c2.8,19.73-14.89,28.96-4.61,44.36c-6.58-4.98-13.58-14.67-9.95-28.8
				c3.32-12.93,18.44-25.71,12.79-49.13c1.62,15.35-11,50.31-31.71,53.63c-11.78,1.89-28.26-0.56-35.72,7.98
				c12.05-7.94,29.78-1.08,40.99-6.03c-5.29,5.73-13.54,8.23-29.1,9.3c-13.79,0.96-21.06,5.38-22.36,11.63
				c-1.8-8.67,2.75-17.59,9.05-21.47c-2.99,0.06-4.66,0.46-7.63,1.95c3.19-5.36,10.42-10.99,21.29-11.18
				c13.13-0.23,26.42,7.11,34.07-3.9c0,0-6.5,5.18-13.48,2.48c-6.15-2.37-8.12-8.82-7.45-13.13c4.29,10.04,19.16,9.76,25.55,1.42
				c-8.72,6.05-22.36,1.75-22.36-7.98c0-11.89,20.23-9.94,25.55-20.76c-2.96,12.41-14.6,12.41-14.6,18.86
				c0,2.49,1.91,4.16,4.54,4.16c7.58,0,19.82-17.06,12.9-38.46c-4.2,12.83-13.13,18.45-23.42,21.82
				c7.37-4.68,15.18-14.38,14.55-25.9c-3.68,14.95-26.56,18.53-24.31,40.45c-6.03-14.9-0.91-26.37,8.7-34.42
				c-21.03,9.37-13.87,27.26-22.48,43.77c-8.12,15.57-25.08,20.55-36.78,20.1c5.67-2.09,12.84-6.33,17.22-22.18
				c2.9-10.48,4.77-20.25,17.02-27.15c-7.69,12.27-4.54,25.69-14.9,36.73c13.92-9.83,10.5-27.68,21.11-41.7
				c-10.62,3.41-19.68,9.38-23.6,18.63c2.91-15.76,19.71-32.53,49.15-36.55c-30.33-1.29-36.17,15.55-51.46,16.16
				c-9.68,0.38-18.14-8.39-28.03-13.68c12.11,3.07,31.11,11.33,41.16-2.13c0,0-6.19,5.26-18.28,3.73
				c-12.27-1.56-23.46-9.4-54.12-11.36c30.65-1.96,41.84-9.8,54.12-11.36c12.08-1.54,18.28,3.72,18.28,3.72
				c-10.06-13.46-29.05-5.2-41.16-2.13c9.9-5.29,18.35-14.06,28.03-13.68c15.28,0.61,21.13,17.45,51.46,16.16
				c-29.44-4.02-46.23-20.79-49.15-36.55c3.92,9.25,12.98,15.22,23.6,18.63c-10.62-14.01-7.19-31.87-21.11-41.7
				c10.37,11.04,7.21,24.46,14.9,36.73c-12.26-6.89-14.13-16.67-17.02-27.14c-4.38-15.85-11.55-20.09-17.22-22.18
				c11.7-0.45,28.66,4.53,36.78,20.1c8.61,16.51,1.45,34.41,22.48,43.77c-9.6-8.05-14.73-19.52-8.7-34.42
				c-2.25,21.92,20.63,25.5,24.31,40.45c0.63-11.53-7.18-21.22-14.55-25.9c10.29,3.37,19.22,8.99,23.42,21.82
				c6.93-21.39-5.31-38.46-12.9-38.46c-2.63,0-4.54,1.67-4.54,4.16c0,6.45,11.64,6.45,14.6,18.85
				c-5.32-10.82-25.55-8.87-25.55-20.76c0-9.74,13.64-14.04,22.36-7.98c-6.39-8.34-21.26-8.62-25.55,1.42
				c-0.66-4.31,1.31-10.76,7.45-13.13c6.98-2.7,13.48,2.48,13.48,2.48c-7.64-11.01-20.94-3.67-34.07-3.9
				c-10.87-0.19-18.11-5.82-21.29-11.18c2.97,1.48,4.64,1.88,7.63,1.95c-6.29-3.88-10.85-12.8-9.05-21.47
				c1.3,6.25,8.57,10.68,22.36,11.63c15.56,1.08,23.81,3.57,29.1,9.3c-11.2-4.96-28.94,1.91-40.99-6.03
				c7.45,8.54,23.93,6.09,35.72,7.98c20.71,3.32,33.32,38.29,31.71,53.63c5.65-23.42-9.46-36.2-12.79-49.13
				c-3.63-14.13,3.37-23.83,9.95-28.8c-10.28,15.4,7.42,24.63,4.61,44.36c5.23-19.19-4.44-24.66-4.44-34.6
				c0-9.76,8.59-12.99,10.29-25.55c1.71,12.55,10.29,15.79,10.29,25.55c0,9.94-9.66,15.41-4.44,34.6
				c-2.8-19.73,14.89-28.96,4.61-44.36c6.58,4.97,13.58,14.67,9.95,28.8c-3.33,12.93-18.44,25.71-12.79,49.13
				c-1.62-15.35,11-50.31,31.71-53.63c11.78-1.89,28.26,0.56,35.71-7.98c-12.05,7.94-29.79,1.07-40.99,6.03
				c5.29-5.74,13.54-8.23,29.1-9.3c13.78-0.96,21.06-5.38,22.36-11.63c1.8,8.67-2.76,17.59-9.05,21.47
				c2.99-0.07,4.66-0.47,7.63-1.95c-3.19,5.36-10.42,10.98-21.29,11.18c-13.13,0.23-26.43-7.11-34.07,3.9c0,0,6.5-5.18,13.48-2.48
				c6.14,2.37,8.12,8.82,7.45,13.13c-4.29-10.04-19.16-9.76-25.55-1.42c8.72-6.05,22.36-1.75,22.36,7.98
				c0,11.89-20.23,9.94-25.55,20.76c2.96-12.4,14.6-12.4,14.6-18.85c0-2.49-1.91-4.16-4.54-4.16c-7.59,0-19.82,17.06-12.9,38.46
				c4.21-12.84,13.13-18.45,23.42-21.82c-7.37,4.68-15.18,14.37-14.55,25.9c3.68-14.95,26.56-18.53,24.31-40.45
				c6.03,14.9,0.91,26.37-8.69,34.42c21.03-9.36,13.87-27.26,22.48-43.77c8.12-15.57,25.08-20.55,36.78-20.1
				c-5.68,2.09-12.84,6.33-17.22,22.18c-2.9,10.48-4.77,20.25-17.02,27.14c7.69-12.26,4.54-25.69,14.9-36.73
				c-13.92,9.83-10.5,27.68-21.12,41.7c10.62-3.41,19.68-9.38,23.6-18.63c-2.92,15.76-19.71,32.53-49.15,36.55
				c30.33,1.29,36.17-15.55,51.45-16.16c9.68-0.38,18.14,8.39,28.04,13.68c-12.11-3.07-31.11-11.33-41.16,2.13
				c0,0,6.19-5.26,18.28-3.72c12.27,1.56,23.46,9.4,54.12,11.36c-30.65,1.96-41.84,9.8-54.12,11.36
				c-12.08,1.53-18.28-3.73-18.28-3.73c10.06,13.46,29.05,5.2,41.16,2.13c-9.9,5.29-18.35,14.06-28.04,13.68
				C665.21-355.23,659.37-372.08,629.04-370.79z M662.39-378.06c4.61,1.24,8.63,3.77,14.49,3.77c7.11,0,11.07-2.75,16.74-3.77
				c-5.67-1.02-9.63-3.77-16.74-3.77C671.03-381.83,667.01-379.3,662.39-378.06z M590.18-468.37c0,5.12,3.02,8.4,3.02,12.12
				c0-3.73,3.02-7,3.02-12.12c0-4.57-2.25-6.65-3.02-11.44C592.43-475.02,590.18-472.94,590.18-468.37z M524-378.06
				c-4.61-1.24-8.63-3.77-14.49-3.77c-7.11,0-11.07,2.75-16.74,3.77c5.67,1.02,9.63,3.77,16.74,3.77
				C515.37-374.29,519.39-376.82,524-378.06z M596.21-287.75c0-5.12-3.02-8.4-3.02-12.12c0,3.72-3.02,7-3.02,12.12
				c0,4.57,2.25,6.65,3.02,11.43C593.96-281.1,596.21-283.18,596.21-287.75z M638.27-378.06c-9.94,0-24.09-4.98-34.95-3.02
				c3.45-2.1,4.98-3.67,7.45-6.74c-4.41,0.43-6.76,0.8-10.11,2.31c2.66-6.02,3.19-9.4,3.72-15.44c-3.07,3.57-4.64,5.74-6.56,10.65
				c0.71-12.42-4.26-15.25-4.61-31.76c-0.36,16.51-5.32,19.34-4.61,31.76c-1.92-4.91-3.49-7.08-6.56-10.65
				c0.53,6.04,1.06,9.42,3.73,15.44c-3.36-1.51-5.71-1.88-10.12-2.31c2.47,3.07,4,4.64,7.45,6.74c-10.87-1.97-25.02,3.02-34.95,3.02
				c9.94,0,24.09,4.98,34.95,3.02c-3.45,2.1-4.98,3.67-7.45,6.74c4.41-0.43,6.76-0.79,10.12-2.3c-2.66,6.02-3.2,9.4-3.73,15.44
				c3.07-3.56,4.64-5.74,6.56-10.65c-0.71,12.42,4.26,15.25,4.61,31.76c0.36-16.51,5.32-19.34,4.61-31.76
				c1.93,4.9,3.5,7.08,6.56,10.65c-0.53-6.04-1.06-9.42-3.72-15.44c3.36,1.51,5.71,1.87,10.11,2.3c-2.47-3.07-4-4.64-7.45-6.74
				C614.18-373.08,628.33-378.06,638.27-378.06z"/>
			
				<linearGradient id="SVGID_9_" gradientUnits="userSpaceOnUse" x1="-38891.8867" y1="36729.5977" x2="-38915.1875" y2="36737.5352" gradientTransform="matrix(1 0 0 1 39406.5586 -37077.2266)">
				<stop  offset="0.2331" style="stop-color:#E2A900"/>
				<stop  offset="0.7607" style="stop-color:#EDC500"/>
			</linearGradient>
			<path class="st11" d="M511.67-350.89c-4.69,4.6-6.91,12.19-7.27,21.72c-0.47,12.53-5.41,17.66-13.33,18.53
				c11.8-4.58,4.44-17.11,7.94-25.85c-6.44,4.79-4.38,20.68-17.63,21.4c9.78-3.2,2.83-16.68,9.29-24.5
				c-7.81,0.11-11.4-6.13-21.54-3.23c4.71-3.63,9.96-5.92,18.85-5.92c-6.25-3.86-9-8.63-11.31-15.35
				C486.79-353.49,501.52-349.42,511.67-350.89z"/>
			<path class="st5" d="M611.42-378.06c-4.26-0.66-9.39-3.2-14.13-1.22c2.32-1.8,1.14-3.52,2.53-5.2c-1.92,1.39-3.51,0.5-4.99,2.74
				c1.54-5.31-0.53-8.14-1.63-14.12c-1.1,5.97-3.17,8.81-1.63,14.12c-1.47-2.24-3.07-1.36-4.98-2.74c1.38,1.68,0.21,3.39,2.53,5.2
				c-4.74-1.98-9.88,0.55-14.13,1.22c4.26,0.67,9.39,3.2,14.13,1.22c-2.32,1.8-1.14,3.52-2.53,5.2c1.92-1.39,3.51-0.5,4.98-2.74
				c-1.54,5.31,0.53,8.14,1.63,14.12c1.1-5.98,3.17-8.81,1.63-14.12c1.48,2.24,3.07,1.36,4.99,2.74c-1.38-1.68-0.21-3.39-2.53-5.2
				C602.03-374.86,607.16-377.4,611.42-378.06z"/>
		</g>
		<g>
			
				<linearGradient id="SVGID_10_" gradientUnits="userSpaceOnUse" x1="55426.0703" y1="36900.4688" x2="55426.0703" y2="36928.5781" gradientTransform="matrix(-1 0 0 1 55766.9844 -37062.6875)">
				<stop  offset="0.2331" style="stop-color:#E2A900"/>
				<stop  offset="0.7607" style="stop-color:#EDC500"/>
			</linearGradient>
			<path class="st12" d="M315-127.21c2.64-13.83,25.37-16.26,30.29-34.06c3.77,19.12,21.29,19.87,21.54,33.12
				c-3.18-7.8-10.84-5.79-15.88-12.12c0.85,6.15,4.63,11.89,12.38,15.08c-7.67,1.08-15.63-1.83-19.12-9.56
				c-2.56,4.17-2.81,8.45-0.67,13.87c-4.71-3.63-7.49-9.3-5.65-16.56C330.62-130.17,319.98-134.21,315-127.21z"/>
			
				<linearGradient id="SVGID_11_" gradientUnits="userSpaceOnUse" x1="-38943.7148" y1="36900.4688" x2="-38943.7148" y2="36928.5781" gradientTransform="matrix(1 0 0 1 39342.5586 -37062.6875)">
				<stop  offset="0.2331" style="stop-color:#E2A900"/>
				<stop  offset="0.7607" style="stop-color:#EDC500"/>
			</linearGradient>
			<path class="st13" d="M424.76-127.21c-2.64-13.83-25.37-16.26-30.29-34.06c-3.77,19.12-21.29,19.87-21.54,33.12
				c3.18-7.8,10.84-5.79,15.88-12.12c-0.85,6.15-4.63,11.89-12.38,15.08c7.67,1.08,15.63-1.83,19.12-9.56
				c2.56,4.17,2.81,8.45,0.67,13.87c4.71-3.63,7.49-9.3,5.65-16.56C409.14-130.17,419.78-134.21,424.76-127.21z"/>
			
				<linearGradient id="SVGID_12_" gradientUnits="userSpaceOnUse" x1="55382.582" y1="-53269.543" x2="55359.2813" y2="-53261.6055" gradientTransform="matrix(-1 0 0 -1 55830.9844 -53548.4453)">
				<stop  offset="0.2331" style="stop-color:#E2A900"/>
				<stop  offset="0.7607" style="stop-color:#EDC500"/>
			</linearGradient>
			<path class="st14" d="M451.41-275.64c4.69-4.6,6.91-12.18,7.27-21.72c0.47-12.53,5.41-17.66,13.33-18.53
				c-11.8,4.58-4.44,17.12-7.94,25.85c6.44-4.79,4.38-20.68,17.63-21.4c-9.78,3.2-2.84,16.68-9.29,24.5
				c7.81-0.11,11.4,6.13,21.54,3.23c-4.72,3.64-9.96,5.92-18.85,5.92c6.25,3.86,9,8.63,11.31,15.35
				C476.28-273.04,461.56-277.11,451.41-275.64z"/>
			<path class="st1" d="M302.08-316.97c5.52,4.58,10.66,12.46,11.44,22.75c1.08-10.23,3.2-18.13,8.21-23.96c0,0-6.33,3.1-8.62,9.15
				C310.15-314.27,302.08-316.97,302.08-316.97z"/>
			<path class="st1" d="M288.08-367.85c1.22,5.97,6.31,11.18,12.92,13.73c-2.71-6.99-1.7-13.8,2.15-19.79
				c-0.9,7.77,1.47,13.21,5.79,18.04c-1.36-4.83-1.24-9.27,1.08-13.87c-0.94,8.48,6.17,12.79,15.62,18.44
				c12.66,7.58,17.28,16.04,19.25,27.23c-3.45-6.87-9.9-13.14-27.86-17.29C294.73-346.52,286.63-353.77,288.08-367.85z"/>
			
				<linearGradient id="SVGID_13_" gradientUnits="userSpaceOnUse" x1="-39115.207" y1="-53269.543" x2="-39138.5039" y2="-53261.6055" gradientTransform="matrix(1 0 0 -1 39406.5586 -53548.4453)">
				<stop  offset="0.2331" style="stop-color:#E2A900"/>
				<stop  offset="0.7607" style="stop-color:#EDC500"/>
			</linearGradient>
			<path class="st15" d="M288.35-275.64c-4.69-4.6-6.91-12.18-7.27-21.72c-0.47-12.53-5.41-17.66-13.33-18.53
				c11.8,4.58,4.44,17.12,7.94,25.85c-6.44-4.79-4.38-20.68-17.63-21.4c9.78,3.2,2.84,16.68,9.29,24.5
				c-7.81-0.11-11.4,6.13-21.54,3.23c4.71,3.64,9.96,5.92,18.85,5.92c-6.25,3.86-9,8.63-11.31,15.35
				C263.47-273.04,278.2-277.11,288.35-275.64z"/>
			<path class="st1" d="M437.68-316.97c-5.52,4.58-10.66,12.46-11.44,22.75c-1.08-10.23-3.2-18.13-8.21-23.96
				c0,0,6.33,3.1,8.62,9.15C429.6-314.27,437.68-316.97,437.68-316.97z"/>
			<path class="st1" d="M451.68-367.85c-1.22,5.97-6.31,11.18-12.92,13.73c2.71-6.99,1.7-13.8-2.15-19.79
				c0.9,7.77-1.47,13.21-5.79,18.04c1.36-4.83,1.24-9.27-1.08-13.87c0.94,8.48-6.17,12.79-15.62,18.44
				c-12.66,7.58-17.28,16.04-19.25,27.23c3.45-6.87,9.9-13.14,27.86-17.29C445.03-346.52,453.12-353.77,451.68-367.85z"/>
			
				<linearGradient id="SVGID_14_" gradientUnits="userSpaceOnUse" x1="-39007.7148" y1="-53213.7227" x2="-39007.7148" y2="-53185.6172" gradientTransform="matrix(1 0 0 -1 39406.5586 -53548.4453)">
				<stop  offset="0.2331" style="stop-color:#E2A900"/>
				<stop  offset="0.7607" style="stop-color:#EDC500"/>
			</linearGradient>
			<path class="st16" d="M424.76-369.73c-2.64,13.83-25.37,16.26-30.29,34.06c-3.77-19.12-21.29-19.87-21.54-33.11
				c3.18,7.8,10.84,5.79,15.88,12.12c-0.85-6.15-4.63-11.89-12.38-15.08c7.67-1.08,15.63,1.83,19.12,9.56
				c2.56-4.17,2.81-8.45,0.67-13.87c4.71,3.63,7.49,9.3,5.65,16.56C409.14-366.77,419.78-362.73,424.76-369.73z"/>
			<path class="st1" d="M302.08-179.97c5.52-4.58,10.66-12.46,11.44-22.75c1.08,10.23,3.2,18.14,8.21,23.96c0,0-6.33-3.1-8.62-9.15
				C310.15-182.67,302.08-179.97,302.08-179.97z"/>
			<path class="st1" d="M288.08-129.09c1.22-5.97,6.31-11.18,12.92-13.73c-2.71,6.99-1.7,13.8,2.15,19.79
				c-0.9-7.77,1.47-13.21,5.79-18.04c-1.36,4.83-1.24,9.27,1.08,13.87c-0.94-8.48,6.17-12.79,15.62-18.44
				c12.66-7.58,17.28-16.04,19.25-27.23c-3.45,6.87-9.9,13.14-27.86,17.29C294.73-150.42,286.63-143.16,288.08-129.09z"/>
			
				<radialGradient id="SVGID_15_" cx="-39036.6836" cy="-53299.9766" r="133.4365" gradientTransform="matrix(1 0 0 -1 39406.5586 -53548.4453)" gradientUnits="userSpaceOnUse">
				<stop  offset="0.3479" style="stop-color:#7CA535"/>
				<stop  offset="0.7607" style="stop-color:#99B833"/>
			</radialGradient>
			<path class="st17" d="M405.72-241.2c29.44,4.02,46.23,20.79,49.15,36.55c-3.92-9.25-12.98-15.22-23.6-18.63
				c10.62,14.01,7.19,31.87,21.12,41.7c-10.37-11.04-7.21-24.46-14.9-36.73c12.26,6.9,14.12,16.67,17.02,27.15
				c4.38,15.84,11.54,20.09,17.22,22.18c-11.7,0.45-28.66-4.53-36.78-20.1c-8.61-16.51-1.45-34.41-22.48-43.77
				c9.6,8.06,14.73,19.52,8.69,34.42c2.26-21.92-20.63-25.5-24.31-40.45c-0.63,11.53,7.18,21.22,14.55,25.9
				c-10.29-3.37-19.21-8.99-23.42-21.82c-6.92,21.39,5.31,38.46,12.9,38.46c2.63,0,4.54-1.67,4.54-4.16
				c0-6.45-11.64-6.45-14.6-18.85c5.32,10.82,25.55,8.87,25.55,20.76c0,9.74-13.64,14.04-22.36,7.98
				c6.39,8.34,21.26,8.62,25.55-1.42c0.66,4.31-1.31,10.76-7.45,13.13c-6.99,2.7-13.48-2.48-13.48-2.48
				c7.64,11.01,20.94,3.67,34.07,3.9c10.87,0.19,18.11,5.82,21.29,11.18c-2.97-1.49-4.64-1.89-7.63-1.95
				c6.29,3.88,10.85,12.8,9.05,21.47c-1.3-6.25-8.57-10.68-22.36-11.63c-15.56-1.08-23.81-3.57-29.1-9.3
				c11.2,4.96,28.94-1.91,40.99,6.03c-7.45-8.54-23.93-6.09-35.71-7.98c-20.71-3.32-33.32-38.29-31.71-53.63
				c-5.66,23.42,9.46,36.2,12.79,49.13c3.63,14.13-3.37,23.83-9.95,28.8c10.28-15.4-7.42-24.63-4.61-44.36
				c-5.23,19.19,4.44,24.66,4.44,34.6c0,9.76-8.58,12.99-10.29,25.55c-1.71-12.55-10.29-15.79-10.29-25.55
				c0-9.94,9.66-15.41,4.44-34.6c2.8,19.73-14.89,28.96-4.61,44.36c-6.58-4.98-13.58-14.67-9.95-28.8
				c3.32-12.93,18.44-25.71,12.79-49.13c1.62,15.35-11,50.31-31.71,53.63c-11.78,1.89-28.26-0.56-35.72,7.98
				c12.05-7.94,29.78-1.08,40.99-6.03c-5.29,5.73-13.54,8.23-29.1,9.3c-13.79,0.96-21.06,5.38-22.36,11.63
				c-1.8-8.67,2.75-17.59,9.05-21.47c-2.99,0.07-4.66,0.46-7.63,1.95c3.19-5.36,10.42-10.99,21.29-11.18
				c13.13-0.23,26.42,7.11,34.07-3.9c0,0-6.5,5.18-13.48,2.48c-6.15-2.37-8.12-8.82-7.45-13.13c4.29,10.04,19.16,9.76,25.55,1.42
				c-8.72,6.05-22.36,1.75-22.36-7.98c0-11.89,20.23-9.94,25.55-20.76c-2.96,12.41-14.6,12.41-14.6,18.85
				c0,2.49,1.91,4.16,4.54,4.16c7.58,0,19.82-17.06,12.9-38.46c-4.2,12.83-13.13,18.45-23.42,21.82
				c7.37-4.68,15.18-14.37,14.55-25.9c-3.68,14.95-26.56,18.53-24.31,40.45c-6.03-14.9-0.91-26.37,8.7-34.42
				c-21.03,9.36-13.87,27.26-22.48,43.77c-8.12,15.57-25.08,20.55-36.78,20.1c5.67-2.09,12.84-6.33,17.22-22.18
				c2.9-10.48,4.77-20.25,17.02-27.15c-7.69,12.27-4.54,25.69-14.9,36.73c13.92-9.83,10.5-27.68,21.11-41.7
				c-10.62,3.41-19.68,9.38-23.6,18.63c2.91-15.76,19.71-32.53,49.15-36.55c-30.33-1.29-36.17,15.55-51.46,16.16
				c-9.68,0.38-18.14-8.39-28.03-13.68c12.11,3.07,31.11,11.33,41.16-2.13c0,0-6.19,5.26-18.28,3.73
				c-12.27-1.56-23.46-9.4-54.12-11.36c30.65-1.96,41.84-9.8,54.12-11.36c12.08-1.54,18.28,3.72,18.28,3.72
				c-10.06-13.46-29.05-5.2-41.16-2.13c9.9-5.29,18.35-14.06,28.03-13.68c15.28,0.61,21.13,17.45,51.46,16.16
				c-29.44-4.02-46.23-20.79-49.15-36.55c3.92,9.25,12.98,15.22,23.6,18.63c-10.62-14.01-7.19-31.87-21.11-41.7
				c10.37,11.04,7.21,24.46,14.9,36.73c-12.26-6.89-14.13-16.67-17.02-27.15c-4.38-15.85-11.55-20.09-17.22-22.18
				c11.7-0.45,28.66,4.53,36.78,20.1c8.61,16.51,1.45,34.41,22.48,43.77c-9.6-8.06-14.73-19.52-8.7-34.42
				c-2.25,21.92,20.63,25.5,24.31,40.45c0.63-11.53-7.18-21.22-14.55-25.9c10.29,3.37,19.22,8.99,23.42,21.82
				c6.93-21.39-5.31-38.46-12.9-38.46c-2.63,0-4.54,1.67-4.54,4.16c0,6.45,11.64,6.45,14.6,18.85
				c-5.32-10.82-25.55-8.87-25.55-20.76c0-9.74,13.64-14.04,22.36-7.99c-6.39-8.34-21.26-8.62-25.55,1.42
				c-0.66-4.31,1.31-10.76,7.45-13.13c6.98-2.7,13.48,2.48,13.48,2.48c-7.64-11.01-20.94-3.67-34.07-3.9
				c-10.87-0.19-18.11-5.82-21.29-11.18c2.97,1.48,4.64,1.88,7.63,1.95c-6.29-3.88-10.85-12.8-9.05-21.47
				c1.3,6.25,8.57,10.68,22.36,11.63c15.56,1.08,23.81,3.57,29.1,9.3c-11.2-4.96-28.94,1.91-40.99-6.03
				c7.45,8.54,23.93,6.09,35.72,7.98c20.71,3.32,33.32,38.29,31.71,53.63c5.65-23.42-9.46-36.2-12.79-49.13
				c-3.63-14.13,3.37-23.83,9.95-28.8c-10.28,15.4,7.42,24.63,4.61,44.36c5.23-19.19-4.44-24.66-4.44-34.6
				c0-9.76,8.59-13,10.29-25.55c1.71,12.55,10.29,15.79,10.29,25.55c0,9.94-9.66,15.41-4.44,34.6c-2.8-19.73,14.89-28.96,4.61-44.36
				c6.58,4.98,13.58,14.67,9.95,28.8c-3.33,12.93-18.44,25.71-12.79,49.13c-1.62-15.35,11-50.31,31.71-53.63
				c11.78-1.89,28.26,0.56,35.71-7.98c-12.05,7.94-29.79,1.07-40.99,6.03c5.29-5.74,13.54-8.23,29.1-9.3
				c13.78-0.96,21.06-5.38,22.36-11.63c1.8,8.67-2.76,17.59-9.05,21.47c2.99-0.07,4.66-0.47,7.63-1.95
				c-3.19,5.36-10.42,10.99-21.29,11.18c-13.13,0.23-26.43-7.11-34.07,3.9c0,0,6.5-5.18,13.48-2.48c6.14,2.37,8.12,8.82,7.45,13.13
				c-4.29-10.04-19.16-9.76-25.55-1.42c8.72-6.05,22.36-1.75,22.36,7.99c0,11.89-20.23,9.94-25.55,20.76
				c2.96-12.4,14.6-12.4,14.6-18.85c0-2.49-1.91-4.16-4.54-4.16c-7.59,0-19.82,17.06-12.9,38.46c4.21-12.83,13.13-18.45,23.42-21.82
				c-7.37,4.68-15.18,14.37-14.55,25.9c3.68-14.95,26.56-18.53,24.31-40.45c6.03,14.9,0.91,26.37-8.69,34.42
				c21.03-9.36,13.87-27.26,22.48-43.77c8.12-15.57,25.08-20.55,36.78-20.1c-5.68,2.09-12.84,6.33-17.22,22.18
				c-2.9,10.48-4.77,20.25-17.02,27.15c7.69-12.26,4.54-25.69,14.9-36.73c-13.92,9.83-10.5,27.68-21.12,41.7
				c10.62-3.41,19.68-9.38,23.6-18.63c-2.92,15.76-19.71,32.53-49.15,36.55c30.33,1.29,36.17-15.55,51.45-16.16
				c9.68-0.38,18.14,8.39,28.04,13.68c-12.11-3.07-31.11-11.33-41.16,2.13c0,0,6.19-5.26,18.28-3.72
				c12.27,1.56,23.46,9.4,54.12,11.36c-30.65,1.96-41.84,9.8-54.12,11.36c-12.08,1.53-18.28-3.73-18.28-3.73
				c10.06,13.46,29.05,5.2,41.16,2.13c-9.9,5.29-18.35,14.06-28.04,13.68C441.89-225.64,436.04-242.48,405.72-241.2z M439.07-248.47
				c4.61,1.24,8.63,3.77,14.49,3.77c7.11,0,11.07-2.75,16.74-3.77c-5.67-1.02-9.63-3.77-16.74-3.77
				C447.71-252.24,443.69-249.71,439.07-248.47z M366.86-338.78c0,5.12,3.02,8.4,3.02,12.12c0-3.73,3.02-7,3.02-12.12
				c0-4.57-2.25-6.65-3.02-11.43C369.11-345.43,366.86-343.35,366.86-338.78z M300.68-248.47c-4.61-1.24-8.63-3.77-14.49-3.77
				c-7.11,0-11.07,2.75-16.74,3.77c5.67,1.02,9.63,3.77,16.74,3.77C292.05-244.7,296.07-247.23,300.68-248.47z M372.89-158.16
				c0-5.12-3.02-8.4-3.02-12.12c0,3.72-3.02,7-3.02,12.12c0,4.57,2.25,6.65,3.02,11.43C370.64-151.5,372.89-153.59,372.89-158.16z
				 M414.95-248.47c-9.94,0-24.09-4.98-34.95-3.02c3.45-2.1,4.98-3.67,7.45-6.74c-4.41,0.43-6.76,0.8-10.11,2.31
				c2.66-6.02,3.19-9.4,3.72-15.44c-3.07,3.57-4.64,5.74-6.56,10.65c0.71-12.42-4.26-15.25-4.61-31.76
				c-0.36,16.51-5.32,19.34-4.61,31.76c-1.92-4.91-3.49-7.08-6.56-10.65c0.53,6.04,1.06,9.42,3.73,15.44
				c-3.36-1.51-5.71-1.87-10.12-2.31c2.47,3.07,4,4.64,7.45,6.74c-10.87-1.97-25.02,3.02-34.95,3.02c9.94,0,24.09,4.98,34.95,3.02
				c-3.45,2.1-4.98,3.67-7.45,6.74c4.41-0.43,6.76-0.8,10.12-2.31c-2.66,6.02-3.2,9.4-3.73,15.44c3.07-3.57,4.64-5.74,6.56-10.65
				c-0.71,12.42,4.26,15.25,4.61,31.76c0.36-16.51,5.32-19.34,4.61-31.76c1.93,4.91,3.5,7.08,6.56,10.65
				c-0.53-6.04-1.06-9.42-3.72-15.44c3.36,1.51,5.71,1.87,10.11,2.31c-2.47-3.07-4-4.64-7.45-6.74
				C390.86-243.49,405.01-248.47,414.95-248.47z"/>
			<path class="st1" d="M437.68-179.97c-5.52-4.58-10.66-12.46-11.44-22.75c-1.08,10.23-3.2,18.14-8.21,23.96
				c0,0,6.33-3.1,8.62-9.15C429.6-182.67,437.68-179.97,437.68-179.97z"/>
			<path class="st1" d="M451.68-129.09c-1.22-5.97-6.31-11.18-12.92-13.73c2.71,6.99,1.7,13.8-2.15,19.79
				c0.9-7.77-1.47-13.21-5.79-18.04c1.36,4.83,1.24,9.27-1.08,13.87c0.94-8.48-6.17-12.79-15.62-18.44
				c-12.66-7.58-17.28-16.04-19.25-27.23c3.45,6.87,9.9,13.14,27.86,17.29C445.03-150.42,453.12-143.16,451.68-129.09z"/>
			
				<linearGradient id="SVGID_16_" gradientUnits="userSpaceOnUse" x1="55382.582" y1="36859.1914" x2="55359.2813" y2="36867.125" gradientTransform="matrix(-1 0 0 1 55830.9844 -37077.2266)">
				<stop  offset="0.2331" style="stop-color:#E2A900"/>
				<stop  offset="0.7607" style="stop-color:#EDC500"/>
			</linearGradient>
			<path class="st18" d="M451.41-221.3c4.69,4.6,6.91,12.19,7.27,21.72c0.47,12.53,5.41,17.66,13.33,18.53
				c-11.8-4.58-4.44-17.11-7.94-25.85c6.44,4.79,4.38,20.68,17.63,21.4c-9.78-3.2-2.84-16.67-9.29-24.5
				c7.81,0.11,11.4-6.13,21.54-3.23c-4.72-3.63-9.96-5.92-18.85-5.92c6.25-3.86,9-8.63,11.31-15.35
				C476.28-223.9,461.56-219.83,451.41-221.3z"/>
			
				<linearGradient id="SVGID_17_" gradientUnits="userSpaceOnUse" x1="-39115.207" y1="36859.1914" x2="-39138.5039" y2="36867.125" gradientTransform="matrix(1 0 0 1 39406.5586 -37077.2266)">
				<stop  offset="0.2331" style="stop-color:#E2A900"/>
				<stop  offset="0.7607" style="stop-color:#EDC500"/>
			</linearGradient>
			<path class="st19" d="M288.35-221.3c-4.69,4.6-6.91,12.19-7.27,21.72c-0.47,12.53-5.41,17.66-13.33,18.53
				c11.8-4.58,4.44-17.11,7.94-25.85c-6.44,4.79-4.38,20.68-17.63,21.4c9.78-3.2,2.84-16.67,9.29-24.5
				c-7.81,0.11-11.4-6.13-21.54-3.23c4.71-3.63,9.96-5.92,18.85-5.92c-6.25-3.86-9-8.63-11.31-15.35
				C263.47-223.9,278.2-219.83,288.35-221.3z"/>
			
				<linearGradient id="SVGID_18_" gradientUnits="userSpaceOnUse" x1="55490.0703" y1="-53213.7227" x2="55490.0703" y2="-53185.6172" gradientTransform="matrix(-1 0 0 -1 55830.9844 -53548.4453)">
				<stop  offset="0.2331" style="stop-color:#E2A900"/>
				<stop  offset="0.7607" style="stop-color:#EDC500"/>
			</linearGradient>
			<path class="st20" d="M315-369.73c2.64,13.83,25.37,16.26,30.29,34.06c3.77-19.12,21.29-19.87,21.54-33.11
				c-3.18,7.8-10.84,5.79-15.88,12.12c0.85-6.15,4.63-11.89,12.38-15.08c-7.67-1.08-15.63,1.83-19.12,9.56
				c-2.56-4.17-2.81-8.45-0.67-13.87c-4.71,3.63-7.49,9.3-5.65,16.56C330.62-366.77,319.98-362.73,315-369.73z"/>
			<path class="st5" d="M388.1-248.47c-4.26-0.66-9.39-3.2-14.13-1.22c2.32-1.8,1.14-3.51,2.53-5.2c-1.92,1.39-3.51,0.5-4.99,2.75
				c1.54-5.31-0.53-8.14-1.63-14.12c-1.1,5.98-3.17,8.81-1.63,14.12c-1.47-2.24-3.07-1.36-4.98-2.75c1.38,1.68,0.2,3.39,2.53,5.2
				c-4.74-1.98-9.88,0.56-14.13,1.22c4.26,0.67,9.39,3.2,14.13,1.22c-2.32,1.8-1.14,3.52-2.53,5.2c1.92-1.39,3.51-0.5,4.98-2.74
				c-1.54,5.31,0.53,8.14,1.63,14.12c1.1-5.98,3.17-8.81,1.63-14.12c1.48,2.24,3.07,1.36,4.99,2.74c-1.38-1.68-0.21-3.39-2.53-5.2
				C378.71-245.27,383.84-247.8,388.1-248.47z"/>
		</g>
		<g>
			
				<linearGradient id="SVGID_19_" gradientUnits="userSpaceOnUse" x1="-39167.0352" y1="36770.8789" x2="-39167.0352" y2="36798.9844" gradientTransform="matrix(1 0 0 1 39342.5586 -37062.6875)">
				<stop  offset="0.2331" style="stop-color:#E2A900"/>
				<stop  offset="0.7607" style="stop-color:#EDC500"/>
			</linearGradient>
			<path class="st21" d="M201.44-256.8c-2.64-13.83-25.37-16.26-30.29-34.06c-3.77,19.12-21.29,19.87-21.54,33.12
				c3.18-7.8,10.84-5.79,15.88-12.12c-0.85,6.15-4.63,11.89-12.38,15.08c7.67,1.08,15.63-1.83,19.12-9.56
				c2.56,4.17,2.81,8.45,0.67,13.87c4.71-3.63,7.49-9.3,5.65-16.56C185.82-259.76,196.46-263.8,201.44-256.8z"/>
			
				<radialGradient id="SVGID_20_" cx="-39260.0039" cy="-53170.3828" r="133.4365" gradientTransform="matrix(1 0 0 -1 39406.5586 -53548.4453)" gradientUnits="userSpaceOnUse">
				<stop  offset="0.3479" style="stop-color:#7CA535"/>
				<stop  offset="0.7607" style="stop-color:#99B833"/>
			</radialGradient>
			<path class="st22" d="M182.4-370.79c29.44,4.02,46.23,20.79,49.15,36.55c-3.92-9.25-12.98-15.22-23.6-18.63
				c10.62,14.01,7.19,31.87,21.12,41.7c-10.37-11.04-7.21-24.46-14.9-36.73c12.26,6.9,14.12,16.67,17.02,27.15
				c4.38,15.84,11.54,20.09,17.22,22.18c-11.7,0.45-28.66-4.53-36.78-20.1c-8.61-16.51-1.45-34.41-22.48-43.77
				c9.6,8.06,14.73,19.52,8.69,34.42c2.26-21.92-20.63-25.51-24.31-40.45c-0.63,11.53,7.18,21.22,14.55,25.9
				c-10.29-3.37-19.21-8.99-23.42-21.82c-6.92,21.39,5.31,38.46,12.9,38.46c2.63,0,4.54-1.67,4.54-4.16
				c0-6.45-11.64-6.45-14.6-18.86c5.32,10.82,25.55,8.87,25.55,20.76c0,9.74-13.64,14.04-22.36,7.98
				c6.39,8.34,21.26,8.62,25.55-1.42c0.66,4.31-1.31,10.76-7.45,13.13c-6.99,2.7-13.48-2.48-13.48-2.48
				c7.64,11.01,20.94,3.67,34.07,3.9c10.87,0.19,18.11,5.82,21.29,11.18c-2.97-1.49-4.64-1.89-7.63-1.95
				c6.29,3.88,10.85,12.79,9.05,21.47c-1.3-6.25-8.57-10.68-22.36-11.63c-15.56-1.08-23.81-3.57-29.1-9.3
				c11.2,4.96,28.94-1.91,40.99,6.03c-7.45-8.54-23.93-6.09-35.71-7.98c-20.71-3.32-33.32-38.29-31.71-53.63
				c-5.66,23.42,9.46,36.2,12.79,49.13c3.63,14.13-3.37,23.83-9.95,28.8c10.28-15.4-7.42-24.63-4.61-44.36
				c-5.23,19.19,4.44,24.66,4.44,34.6c0,9.76-8.58,12.99-10.29,25.55c-1.71-12.55-10.29-15.79-10.29-25.55
				c0-9.94,9.66-15.41,4.44-34.6c2.8,19.73-14.89,28.96-4.61,44.36c-6.58-4.98-13.58-14.67-9.95-28.8
				c3.32-12.93,18.44-25.71,12.79-49.13c1.62,15.35-11,50.31-31.71,53.63c-11.78,1.89-28.26-0.56-35.72,7.98
				c12.05-7.94,29.78-1.08,40.99-6.03c-5.29,5.73-13.54,8.23-29.1,9.3c-13.79,0.96-21.06,5.38-22.36,11.63
				c-1.8-8.67,2.75-17.59,9.05-21.47c-2.99,0.06-4.66,0.46-7.63,1.95c3.19-5.36,10.42-10.99,21.29-11.18
				c13.13-0.23,26.42,7.11,34.07-3.9c0,0-6.5,5.18-13.48,2.48c-6.15-2.37-8.12-8.82-7.45-13.13c4.29,10.04,19.16,9.76,25.55,1.42
				c-8.72,6.05-22.36,1.75-22.36-7.98c0-11.89,20.23-9.94,25.55-20.76c-2.96,12.41-14.6,12.41-14.6,18.86
				c0,2.49,1.91,4.16,4.54,4.16c7.58,0,19.82-17.06,12.9-38.46c-4.2,12.83-13.13,18.45-23.42,21.82
				c7.37-4.68,15.18-14.38,14.55-25.9c-3.68,14.95-26.56,18.53-24.31,40.45c-6.03-14.9-0.91-26.37,8.7-34.42
				c-21.03,9.37-13.87,27.26-22.48,43.77c-8.12,15.57-25.08,20.55-36.78,20.1c5.67-2.09,12.84-6.33,17.22-22.18
				c2.9-10.48,4.77-20.25,17.02-27.15c-7.69,12.27-4.54,25.69-14.9,36.73c13.92-9.83,10.5-27.68,21.11-41.7
				c-10.62,3.41-19.68,9.38-23.6,18.63c2.91-15.76,19.71-32.53,49.15-36.55c-30.33-1.29-36.17,15.55-51.46,16.16
				c-9.68,0.38-18.14-8.39-28.03-13.68c12.11,3.07,31.11,11.33,41.16-2.13c0,0-6.19,5.26-18.28,3.73
				c-12.27-1.56-23.46-9.4-54.12-11.36c30.65-1.96,41.84-9.8,54.12-11.36c12.08-1.54,18.28,3.72,18.28,3.72
				c-10.06-13.46-29.05-5.2-41.16-2.13c9.9-5.29,18.35-14.06,28.03-13.68c15.28,0.61,21.13,17.45,51.46,16.16
				c-29.44-4.02-46.23-20.79-49.15-36.55c3.92,9.25,12.98,15.22,23.6,18.63c-10.62-14.01-7.19-31.87-21.11-41.7
				c10.37,11.04,7.21,24.46,14.9,36.73c-12.26-6.89-14.13-16.67-17.02-27.14c-4.38-15.85-11.55-20.09-17.22-22.18
				c11.7-0.45,28.66,4.53,36.78,20.1c8.61,16.51,1.45,34.41,22.48,43.77c-9.6-8.05-14.73-19.52-8.7-34.42
				c-2.25,21.92,20.63,25.5,24.31,40.45c0.63-11.53-7.18-21.22-14.55-25.9c10.29,3.37,19.22,8.99,23.42,21.82
				c6.93-21.39-5.31-38.46-12.9-38.46c-2.63,0-4.54,1.67-4.54,4.16c0,6.45,11.64,6.45,14.6,18.85
				c-5.32-10.82-25.55-8.87-25.55-20.76c0-9.74,13.64-14.04,22.36-7.98c-6.39-8.34-21.26-8.62-25.55,1.42
				c-0.66-4.31,1.31-10.76,7.45-13.13c6.98-2.7,13.48,2.48,13.48,2.48c-7.64-11.01-20.94-3.67-34.07-3.9
				c-10.87-0.19-18.11-5.82-21.29-11.18c2.97,1.48,4.64,1.88,7.63,1.95c-6.29-3.88-10.85-12.8-9.05-21.47
				c1.3,6.25,8.57,10.68,22.36,11.63c15.56,1.08,23.81,3.57,29.1,9.3c-11.2-4.96-28.94,1.91-40.99-6.03
				c7.45,8.54,23.93,6.09,35.72,7.98c20.71,3.32,33.32,38.29,31.71,53.63c5.65-23.42-9.46-36.2-12.79-49.13
				c-3.63-14.13,3.37-23.83,9.95-28.8c-10.28,15.4,7.42,24.63,4.61,44.36c5.23-19.19-4.44-24.66-4.44-34.6
				c0-9.76,8.59-12.99,10.29-25.55c1.71,12.55,10.29,15.79,10.29,25.55c0,9.94-9.66,15.41-4.44,34.6
				c-2.8-19.73,14.89-28.96,4.61-44.36c6.58,4.97,13.58,14.67,9.95,28.8c-3.33,12.93-18.44,25.71-12.79,49.13
				c-1.62-15.35,11-50.31,31.71-53.63c11.78-1.89,28.26,0.56,35.71-7.98c-12.05,7.94-29.79,1.07-40.99,6.03
				c5.29-5.74,13.54-8.23,29.1-9.3c13.78-0.96,21.06-5.38,22.36-11.63c1.8,8.67-2.76,17.59-9.05,21.47
				c2.99-0.07,4.66-0.47,7.63-1.95c-3.19,5.36-10.42,10.98-21.29,11.18c-13.13,0.23-26.43-7.11-34.07,3.9c0,0,6.5-5.18,13.48-2.48
				c6.14,2.37,8.12,8.82,7.45,13.13c-4.29-10.04-19.16-9.76-25.55-1.42c8.72-6.05,22.36-1.75,22.36,7.98
				c0,11.89-20.23,9.94-25.55,20.76c2.96-12.4,14.6-12.4,14.6-18.85c0-2.49-1.91-4.16-4.54-4.16c-7.59,0-19.82,17.06-12.9,38.46
				c4.21-12.84,13.13-18.45,23.42-21.82c-7.37,4.68-15.18,14.37-14.55,25.9c3.68-14.95,26.56-18.53,24.31-40.45
				c6.03,14.9,0.91,26.37-8.69,34.42c21.03-9.36,13.87-27.26,22.48-43.77c8.12-15.57,25.08-20.55,36.78-20.1
				c-5.68,2.09-12.84,6.33-17.22,22.18c-2.9,10.48-4.77,20.25-17.02,27.14c7.69-12.26,4.54-25.69,14.9-36.73
				c-13.92,9.83-10.5,27.68-21.12,41.7c10.62-3.41,19.68-9.38,23.6-18.63c-2.92,15.76-19.71,32.53-49.15,36.55
				c30.33,1.29,36.17-15.55,51.45-16.16c9.68-0.38,18.14,8.39,28.04,13.68c-12.11-3.07-31.11-11.33-41.16,2.13
				c0,0,6.19-5.26,18.28-3.72c12.27,1.56,23.46,9.4,54.12,11.36c-30.65,1.96-41.84,9.8-54.12,11.36
				c-12.08,1.53-18.28-3.73-18.28-3.73c10.06,13.46,29.05,5.2,41.16,2.13c-9.9,5.29-18.35,14.06-28.04,13.68
				C218.57-355.23,212.72-372.08,182.4-370.79z M215.75-378.06c4.61,1.24,8.63,3.77,14.49,3.77c7.11,0,11.07-2.75,16.74-3.77
				c-5.67-1.02-9.63-3.77-16.74-3.77C224.39-381.83,220.37-379.3,215.75-378.06z M143.54-468.37c0,5.12,3.02,8.4,3.02,12.12
				c0-3.73,3.02-7,3.02-12.12c0-4.57-2.25-6.65-3.02-11.44C145.79-475.02,143.54-472.94,143.54-468.37z M77.36-378.06
				c-4.61-1.24-8.63-3.77-14.49-3.77c-7.11,0-11.07,2.75-16.74,3.77c5.67,1.02,9.63,3.77,16.74,3.77
				C68.73-374.29,72.75-376.82,77.36-378.06z M149.57-287.75c0-5.12-3.02-8.4-3.02-12.12c0,3.72-3.02,7-3.02,12.12
				c0,4.57,2.25,6.65,3.02,11.43C147.32-281.1,149.57-283.18,149.57-287.75z M191.63-378.06c-9.94,0-24.09-4.98-34.95-3.02
				c3.45-2.1,4.98-3.67,7.45-6.74c-4.41,0.43-6.76,0.8-10.11,2.31c2.66-6.02,3.19-9.4,3.72-15.44c-3.07,3.57-4.64,5.74-6.56,10.65
				c0.71-12.42-4.26-15.25-4.61-31.76c-0.36,16.51-5.32,19.34-4.61,31.76c-1.92-4.91-3.49-7.08-6.56-10.65
				c0.53,6.04,1.06,9.42,3.73,15.44c-3.36-1.51-5.71-1.88-10.12-2.31c2.47,3.07,4,4.64,7.45,6.74c-10.87-1.97-25.02,3.02-34.95,3.02
				c9.94,0,24.09,4.98,34.95,3.02c-3.45,2.1-4.98,3.67-7.45,6.74c4.41-0.43,6.76-0.79,10.12-2.3c-2.66,6.02-3.2,9.4-3.73,15.44
				c3.07-3.56,4.64-5.74,6.56-10.65c-0.71,12.42,4.26,15.25,4.61,31.76c0.36-16.51,5.32-19.34,4.61-31.76
				c1.93,4.9,3.5,7.08,6.56,10.65c-0.53-6.04-1.06-9.42-3.72-15.44c3.36,1.51,5.71,1.87,10.11,2.3c-2.47-3.07-4-4.64-7.45-6.74
				C167.54-373.08,181.69-378.06,191.63-378.06z"/>
			<path class="st1" d="M214.36-309.57c-5.52-4.58-10.66-12.46-11.44-22.75c-1.08,10.23-3.2,18.13-8.21,23.96
				c0,0,6.33-3.1,8.62-9.15C206.28-312.26,214.36-309.57,214.36-309.57z"/>
			<path class="st1" d="M228.36-258.68c-1.22-5.97-6.31-11.18-12.92-13.73c2.71,6.99,1.7,13.8-2.15,19.79
				c0.9-7.77-1.47-13.21-5.79-18.04c1.36,4.83,1.24,9.27-1.08,13.87c0.94-8.48-6.17-12.79-15.62-18.44
				c-12.66-7.58-17.28-16.04-19.25-27.23c3.45,6.87,9.9,13.14,27.86,17.29C221.71-280.01,229.8-272.76,228.36-258.68z"/>
			
				<linearGradient id="SVGID_21_" gradientUnits="userSpaceOnUse" x1="55605.9023" y1="36729.5977" x2="55582.6016" y2="36737.5352" gradientTransform="matrix(-1 0 0 1 55830.9844 -37077.2266)">
				<stop  offset="0.2331" style="stop-color:#E2A900"/>
				<stop  offset="0.7607" style="stop-color:#EDC500"/>
			</linearGradient>
			<path class="st23" d="M228.09-350.89c4.69,4.6,6.91,12.19,7.27,21.72c0.47,12.53,5.41,17.66,13.33,18.53
				c-11.8-4.58-4.44-17.11-7.94-25.85c6.44,4.79,4.38,20.68,17.63,21.4c-9.78-3.2-2.84-16.68-9.29-24.5
				c7.81,0.11,11.4-6.13,21.54-3.23c-4.72-3.63-9.96-5.92-18.85-5.92c6.25-3.86,9-8.63,11.31-15.35
				C252.96-353.49,238.24-349.42,228.09-350.89z"/>
			<path class="st5" d="M164.78-378.06c-4.26-0.66-9.39-3.2-14.13-1.22c2.32-1.8,1.14-3.52,2.53-5.2c-1.92,1.39-3.51,0.5-4.99,2.74
				c1.54-5.31-0.53-8.14-1.63-14.12c-1.1,5.97-3.17,8.81-1.63,14.12c-1.47-2.24-3.07-1.36-4.98-2.74c1.38,1.68,0.21,3.39,2.53,5.2
				c-4.74-1.98-9.88,0.55-14.13,1.22c4.26,0.67,9.39,3.2,14.13,1.22c-2.32,1.8-1.14,3.52-2.53,5.2c1.92-1.39,3.51-0.5,4.98-2.74
				c-1.54,5.31,0.53,8.14,1.63,14.12c1.1-5.98,3.17-8.81,1.63-14.12c1.48,2.24,3.07,1.36,4.99,2.74c-1.38-1.68-0.21-3.39-2.53-5.2
				C155.39-374.86,160.52-377.4,164.78-378.06z"/>
		</g>
	</g>
</pattern>
<path class="st24" d="M10.1,29.58c-0.01,0.98,6.22,1.89,11.68,2.68c37.8,5.49,77.65-2.97,76.45-5.6
	C96.54,22.92,10.13,25.92,10.1,29.58z"/>
<rect x="35.86" y="-24.7" transform="matrix(0.0288 -0.9996 0.9996 0.0288 28.775 83.8644)" class="st0" width="43.37" height="103.65"/>
<text transform="matrix(0.9932 -0.1163 0.1163 0.9932 7.7513 32.2744)" class="st25 st26 st27 st28">VeggieDay</text>
<rect x="34.91" y="-24.46" transform="matrix(0.0288 -0.9996 0.9996 0.0288 27.6086 83.1512)" class="st0" width="43.37" height="103.65"/>
<text transform="matrix(0.9932 -0.1163 0.1163 0.9932 6.6846 31.5232)" class="st29 st26 st27 st28">VeggieDay</text>
</svg>
