<?xml version="1.0" encoding="utf-8"?>
<!-- Generator: Adobe Illustrator 23.0.5, SVG Export Plug-In . SVG Version: 6.00 Build 0)  -->
<svg version="1.1" id="Capa_1" xmlns="http://www.w3.org/2000/svg" xmlns:xlink="http://www.w3.org/1999/xlink" x="0px" y="0px"
	 viewBox="0 0 150 150" style="enable-background:new 0 0 150 150;" xml:space="preserve">
<style type="text/css">
	.st0{fill:none;stroke:#FFFFFF;stroke-width:3;stroke-miterlimit:10;}
</style>
<path class="st0" d="M119.35,129.49H33.06c-6.6,0-12-5.4-12-12V26.64c0-6.6,5.4-12,12-12h86.29c6.6,0,12,5.4,12,12v90.85
	C131.35,124.09,125.95,129.49,119.35,129.49z"/>
<path class="st0" d="M36.57,83.29c-0.6-0.89-1.75-2.89-1.72-5.54c0.04-3.54,2.16-5.94,3.45-7.39c0.69-0.78,2.36-2.63,5.17-3.7
	c4.09-1.56,7.64-0.35,8.62,0c1.13,0.4,4.67,1.73,6.89,5.54c1.89,3.24,1.8,6.49,1.72,9.24c-0.13,4.66-1.37,4.75-1.72,9.24
	c-0.32,4.07,0.43,7.34,1.72,12.94c1.35,5.85,2.19,6.69,1.72,9.24c-0.49,2.67-2.14,5.78-5.17,7.39c-2.77,1.48-6.11,1.39-8.62,0
	c-2.03-1.13-3.73-3.23-6.89-14.79c-1.02-3.74-2.28-8.75-3.45-14.79"/>
<path class="st0" d="M102.05,44.48c0.46-0.88,1.07-2.14,1.72-3.7c1.25-2.99,1.88-4.49,1.72-5.54c-0.27-1.87-2.31-3.33-8.62-5.54
	c-3.42-1.2-8.07-2.61-13.79-3.7c-6.28-0.37-11.57-0.24-15.51,0c0,0-7.05,0.55-17.23,3.7c-1.74,0.54-4.54,1.46-5.17,3.7
	c-0.34,1.2,0.07,2.31,1.72,5.54c2.54,4.97,4.67,8.42,5.17,9.24c4.13,6.7,4.31,7.12,5.17,7.39c2.75,0.88,3.64-2.11,10.34-3.7
	c3.79-0.9,10.16-0.42,12.06,0c8.37,1.87,10.56,4.63,13.79,3.7c2.76-0.8,4.31-3.67,5.17-5.54"/>
<line class="st0" x1="74.48" y1="33.39" x2="74.48" y2="51.38"/>
<path class="st0" d="M88.27,112.86c0.01,0.88,0.14,3.28,1.72,5.54c0.15,0.22,2.7,3.73,6.89,3.7c3.35-0.03,5.55-2.3,6.89-3.7
	c2.09-2.17,3.03-4.49,3.45-5.54c5.02-12.74,5.19-18.65,8.62-31.42c0.61-2.27,1.66-6.01,0-9.24c-0.8-1.55-1.98-2.51-3.45-3.7
	c-1.49-1.21-3.68-2.98-6.89-3.7c-1.09-0.24-5.86-1.31-10.34,1.85c-0.72,0.51-4,2.93-5.17,7.39c-0.64,2.45-0.38,4.47,0,7.39
	c0.51,3.89,1.49,6.66,1.72,7.39c1.12,3.44,1.27,9.4-3.45,20.33"/>
</svg>
