<?xml version="1.0" encoding="utf-8"?>
<!-- Generator: Adobe Illustrator 23.0.5, SVG Export Plug-In . SVG Version: 6.00 Build 0)  -->
<svg version="1.1" id="Capa_1" xmlns="http://www.w3.org/2000/svg" xmlns:xlink="http://www.w3.org/1999/xlink" x="0px" y="0px"
	 viewBox="0 0 300 215" style="enable-background:new 0 0 300 215;" xml:space="preserve">
<style type="text/css">
	.st0{fill:#1B855F;}
	.st1{fill:#1B855F;stroke:#1B855F;stroke-width:10;stroke-miterlimit:10;}
	.st2{fill:#FF817B;}
	.st3{fill:#FFFFFF;}
	.st4{fill:#0071BA;}
	.st5{fill:#22B373;}
	.st6{fill:#FFB799;}
	.st7{opacity:0.27;}
</style>
<g>
	<path class="st0" d="M20.44,196.77c-2.29,0.74-4.59,1.61-6.92,2.17c1.35-8.7,1.74-17.14,5.24-25.37
		c5.19-12.18,10.48-24.33,15.72-36.5c3.72-8.65,7.53-17.42,13.55-24.71c5.21-6.31,12.05-11.48,15.69-18.77
		c5.79-11.58,2.68-26.88,11.29-36.62c6.29-7.11,16.78-8.76,24.87-13.84c8.86-5.56,14.54-15.06,23.29-20.78
		c9.76-6.38,22.55-7.31,33.84-4.18c11.29,3.14,21.2,9.98,29.58,18.04c10.82,10.4,19.44,22.99,25.16,36.75
		c4.05,9.73,6.79,20.27,13.48,28.48c5.95,7.3,14.93,12.66,17.91,21.54c2.37,7.07,0.36,14.93,2.23,22.14
		c1.86,7.16,7.27,12.82,12.49,18.14c9.28,9.47,18.57,18.93,27.85,28.4"/>
	<g>
		<path class="st0" d="M18.85,190.99c-2.3,0.75-4.57,1.59-6.92,2.17c2.46,2.46,4.92,4.92,7.38,7.38c0.37-2.44,0.69-4.88,1.01-7.33
			c0.06-0.49,0.13-0.99,0.19-1.48c0.09-0.71-0.04,0.3-0.05,0.36c0.03-0.25,0.07-0.49,0.1-0.74c0.15-1.06,0.3-2.12,0.47-3.18
			c0.68-4.22,1.72-8.28,3.22-12.28c0.24-0.64-0.06,0.14-0.1,0.23c0.1-0.25,0.21-0.49,0.32-0.74c0.21-0.49,0.42-0.99,0.63-1.48
			c0.46-1.07,0.92-2.14,1.37-3.21c0.88-2.06,1.77-4.11,2.65-6.17c1.81-4.19,3.62-8.38,5.43-12.57c3.38-7.82,6.55-15.79,10.37-23.41
			c1.79-3.56,3.77-7.04,6.09-10.28c0.28-0.39,0.57-0.77,0.85-1.16c0.41-0.55-0.18,0.22-0.2,0.27c0.09-0.19,0.32-0.39,0.45-0.56
			c0.61-0.74,1.23-1.47,1.88-2.18c1.28-1.42,2.62-2.79,3.95-4.16c2.82-2.89,5.54-5.82,7.96-9.05c2.37-3.16,4.1-6.71,5.32-10.47
			c2.1-6.52,2.35-13.43,3.86-20.08c0.36-1.6,0.8-3.18,1.36-4.72c0.08-0.21,0.57-1.41,0.19-0.55c-0.38,0.86,0.15-0.32,0.25-0.52
			c0.36-0.76,0.76-1.5,1.2-2.21c0.21-0.33,0.42-0.66,0.64-0.98c0.11-0.16,0.23-0.32,0.34-0.48c0.37-0.53-0.32,0.43-0.33,0.43
			c0.63-0.36,1.24-1.4,1.78-1.92c0.29-0.28,0.59-0.54,0.9-0.8c0.13-0.11,0.37-0.24,0.46-0.38c-0.01,0.01-0.96,0.7-0.42,0.33
			c0.71-0.5,1.42-1,2.16-1.45c1.5-0.92,3.08-1.72,4.68-2.45c0.75-0.35,1.51-0.68,2.27-1c0.19-0.08,0.38-0.16,0.57-0.24
			c0.62-0.27-0.47,0.2-0.48,0.2c0.45-0.18,0.9-0.38,1.34-0.56c3.53-1.48,7.1-2.92,10.39-4.9c6.65-4.01,11.64-9.93,17.07-15.35
			c1.33-1.33,2.7-2.62,4.14-3.84c0.12-0.1,1.02-0.7,1.01-0.82c0,0.02-0.91,0.68-0.36,0.28c0.18-0.13,0.35-0.26,0.52-0.39
			c0.77-0.56,1.56-1.08,2.37-1.58c0.75-0.46,1.53-0.89,2.31-1.28c0.39-0.2,0.79-0.39,1.19-0.57c0.06-0.03,0.59-0.22,0.6-0.27
			c-0.02,0.14-1.11,0.44-0.21,0.1c1.73-0.65,3.47-1.21,5.27-1.63c0.86-0.2,1.73-0.37,2.61-0.51c0.15-0.02,0.53-0.02,0.66-0.1
			c-0.02,0.01-1.19,0.14-0.49,0.07c0.59-0.06,1.18-0.13,1.77-0.18c1.86-0.15,3.72-0.17,5.58-0.09c0.9,0.04,1.79,0.11,2.68,0.2
			c0.22,0.02,0.45,0.05,0.67,0.07c0.69,0.06-0.46-0.06-0.48-0.07c0.41,0.19,1.1,0.17,1.55,0.25c1.84,0.32,3.66,0.75,5.45,1.28
			c0.87,0.26,1.74,0.54,2.6,0.84c0.43,0.15,0.85,0.31,1.28,0.47c0.21,0.08,0.42,0.16,0.63,0.25c0.14,0.06,1.07,0.46,0.33,0.13
			c-0.74-0.34,0.78,0.34,0.95,0.42c0.41,0.19,0.82,0.38,1.23,0.58c0.89,0.43,1.76,0.87,2.63,1.34c3.34,1.81,6.48,3.92,9.52,6.19
			c0.55,0.41-0.28-0.23-0.31-0.24c0.18,0.09,0.38,0.3,0.54,0.42c0.36,0.28,0.71,0.57,1.06,0.86c0.76,0.63,1.51,1.26,2.26,1.92
			c1.49,1.3,2.93,2.65,4.34,4.04c2.75,2.71,5.36,5.57,7.81,8.56c0.58,0.71,1.23,1.41,1.73,2.17c-0.57-0.86-0.13-0.17,0.19,0.26
			c0.32,0.43,0.65,0.87,0.96,1.3c1.18,1.62,2.32,3.27,3.41,4.95c2.09,3.23,4.02,6.57,5.76,10c0.87,1.71,1.69,3.45,2.47,5.21
			c0.18,0.41,0.42,0.84,0.55,1.27c-0.31-0.98-0.11-0.26,0.1,0.26c0.38,0.92,0.74,1.85,1.1,2.78c1.41,3.66,2.72,7.35,4.21,10.97
			c1.59,3.86,3.28,7.68,5.5,11.22c2.14,3.41,4.73,6.51,7.57,9.35c2.42,2.41,4.98,4.68,7.35,7.15c0.56,0.58,1.11,1.17,1.64,1.78
			c0.26,0.3,0.52,0.61,0.78,0.91c0.12,0.15,0.24,0.33,0.38,0.46c-0.98-0.91-0.37-0.48-0.1-0.11c0.46,0.64,0.9,1.29,1.3,1.97
			c0.41,0.68,0.69,1.67,1.19,2.26c-0.01-0.01-0.44-1.14-0.22-0.52c0.07,0.19,0.14,0.37,0.21,0.56c0.15,0.43,0.29,0.87,0.42,1.31
			c0.13,0.46,0.24,0.93,0.34,1.41c0.05,0.24,0.09,0.47,0.14,0.71c0.03,0.15,0.19,1.2,0.07,0.39c-0.11-0.78,0.05,0.65,0.07,0.88
			c0.04,0.48,0.07,0.97,0.09,1.45c0.05,1.06,0.07,2.11,0.08,3.17c0.04,4.49,0.02,9.06,1.2,13.42c2.18,8.07,7.96,14.43,13.66,20.25
			c6.31,6.44,12.63,12.88,18.94,19.32c3.07,3.13,6.15,6.27,9.22,9.4c2.2,2.24,6.31,2.37,8.49,0c2.22-2.41,2.35-6.09,0-8.49
			c-6.46-6.59-12.92-13.18-19.38-19.76c-3.14-3.2-6.28-6.39-9.41-9.6c-1.31-1.35-2.61-2.71-3.86-4.12
			c-0.65-0.73-1.27-1.48-1.89-2.24c-0.72-0.89,0.51,0.73-0.15-0.21c-0.3-0.42-0.61-0.84-0.9-1.27c-0.5-0.73-0.96-1.48-1.4-2.25
			c-0.22-0.38-0.42-0.77-0.62-1.16c-0.13-0.26-0.24-0.53-0.38-0.79c-0.39-0.73,0.37,1,0.08,0.23c-0.31-0.83-0.61-1.65-0.84-2.5
			c-0.12-0.46-0.23-0.93-0.33-1.4c-0.05-0.24-0.09-0.48-0.13-0.71c-0.15-0.76-0.17-0.22,0.01,0.16c-0.36-0.78-0.2-2.3-0.24-3.15
			c-0.04-1.06-0.06-2.12-0.06-3.18c-0.02-2.11-0.01-4.23-0.16-6.33c-0.35-4.59-1.37-8.94-3.68-12.96c-1.87-3.26-4.42-6.15-7.06-8.8
			c-2.47-2.47-5.08-4.78-7.5-7.3c-0.61-0.64-1.21-1.28-1.79-1.95c-0.26-0.31-0.52-0.62-0.78-0.93c-0.08-0.1-0.57-0.71-0.1-0.11
			c0.48,0.61-0.14-0.19-0.22-0.31c-1.12-1.53-2.13-3.15-3.05-4.81c-0.96-1.73-1.82-3.52-2.61-5.32c-0.23-0.52-0.61-1.16-0.12-0.25
			c-0.21-0.4-0.36-0.86-0.52-1.27c-0.4-1-0.79-2-1.18-3c-1.4-3.66-2.71-7.34-4.22-10.96c-6.37-15.26-15.79-29.16-27.94-40.43
			c-12.13-11.25-27.3-19.92-44.2-20.28c-8.24-0.18-16.72,1.71-23.86,5.91c-6.84,4.03-11.93,10.12-17.48,15.64
			c-1.33,1.33-2.7,2.62-4.15,3.82c-0.18,0.15-0.97,0.61-1.01,0.82c0.01-0.03,0.9-0.67,0.35-0.28c-0.18,0.12-0.35,0.26-0.52,0.38
			c-0.75,0.54-1.53,1.05-2.33,1.53c-1.53,0.92-3.13,1.73-4.75,2.47c-0.76,0.35-1.52,0.68-2.28,1.01c-0.19,0.08-0.39,0.15-0.57,0.25
			c0,0,1.1-0.46,0.47-0.2c-0.45,0.19-0.9,0.38-1.34,0.56c-3.62,1.52-7.3,2.99-10.64,5.08c-3.57,2.24-6.58,5.04-8.97,8.53
			c-4.07,5.96-5.18,13.28-6.22,20.25c-0.52,3.48-1.06,6.97-2.03,10.36c-0.22,0.77-0.47,1.53-0.74,2.29
			c-0.14,0.38-0.29,0.75-0.43,1.12c-0.24,0.62,0.22-0.51,0.22-0.51c-0.15,0.19-0.23,0.51-0.34,0.73C57.9,91.9,56.89,93.47,55.8,95
			c-0.66,0.93,0.6-0.72-0.12,0.16c-0.28,0.34-0.55,0.68-0.83,1.01c-0.61,0.73-1.24,1.43-1.89,2.13c-1.29,1.41-2.63,2.77-3.97,4.14
			c-2.94,3.02-5.73,6.13-8.2,9.55c-4.84,6.68-8.15,14.3-11.4,21.84c-3.61,8.38-7.24,16.74-10.84,25.12
			c-1.97,4.57-4.01,9.13-5.87,13.74c-1.59,3.94-2.54,8.1-3.22,12.28c-0.38,2.33-0.68,4.66-0.99,7c-0.08,0.58-0.15,1.15-0.23,1.73
			c-0.03,0.23-0.22,1.67-0.12,0.94c0.09-0.73-0.1,0.72-0.13,0.95c-0.08,0.58-0.17,1.17-0.26,1.75c-0.33,2.19-0.1,4.19,1.54,5.84
			c1.54,1.54,3.75,2.06,5.84,1.54c2.35-0.59,4.62-1.42,6.92-2.17c2.98-0.97,5.22-4.2,4.19-7.38
			C25.26,192.2,22.04,189.94,18.85,190.99L18.85,190.99z"/>
	</g>
</g>
<line class="st1" x1="12.79" y1="199.6" x2="285.8" y2="198.94"/>
<g>
	<path class="st0" d="M70.57,194.68c4.55-0.15,9.1-0.31,13.65-0.46"/>
	<g>
		<path class="st0" d="M70.57,200.68c4.55-0.15,9.1-0.31,13.65-0.46c1.57-0.05,3.12-0.63,4.24-1.76c1.04-1.04,1.82-2.75,1.76-4.24
			c-0.14-3.16-2.64-6.11-6-6c-4.55,0.15-9.1,0.31-13.65,0.46c-1.57,0.05-3.12,0.63-4.24,1.76c-1.04,1.04-1.82,2.75-1.76,4.24
			C64.71,197.84,67.21,200.79,70.57,200.68L70.57,200.68z"/>
	</g>
</g>
<g>
	<g>
		<path class="st0" d="M188.94,199.61c11.91,0.91,23.84,1.47,35.78,1.93c11.71,0.45,23.48,1.15,35.19,0.72
			c6.95-0.25,13.91-0.99,20.71-2.48c2.92-0.64,4.67-3.79,4.3-6.58c-0.4-2.97-2.88-5.13-5.89-5.2c-8.09-0.19-16.19-0.37-24.28-0.56
			c-3.14-0.07-6.14,2.81-6,6c0.15,3.31,2.64,5.92,6,6c8.09,0.19,16.19,0.37,24.28,0.56c-0.53-3.93-1.06-7.86-1.6-11.79
			c-1.41,0.31-2.83,0.59-4.26,0.83c-0.63,0.11-1.27,0.21-1.9,0.3c-0.32,0.05-0.64,0.1-0.95,0.14c1.56-0.18-0.09,0-0.31,0.03
			c-2.87,0.34-5.75,0.56-8.64,0.69c-5.72,0.26-11.45,0.18-17.17,0.02c-11.71-0.34-23.43-0.78-35.13-1.36
			c-6.71-0.33-13.42-0.74-20.12-1.25c-3.14-0.24-6.14,2.93-6,6C183.09,197.06,185.58,199.35,188.94,199.61L188.94,199.61z"/>
	</g>
</g>
<path class="st2" d="M86.35,199.31c2.68,6.53,17.13,3.47,52.7,3.66c30.83,0.17,47.55,2.61,49.77-3.66
	c1.47-4.14-5.37-6.51-9.52-19.76c-3.09-9.86-1.85-16.74-5.86-18.3c-2.33-0.91-3.94,0.89-9.52,2.93c-7.36,2.69-13.55,2.82-18.3,2.93
	c-7.9,0.17-14.07-1.35-20.49-2.93c-5.34-1.32-11.24-1.08-16.1-3.66c-0.72-0.38-2.77-1.52-4.39-0.73c-1.8,0.88-2.09,3.65-2.2,4.39
	C101.11,173.81,82.95,191.04,86.35,199.31z"/>
<g>
	<g>
		<path class="st3" d="M95.22,104.3c1.93,0,1.93-3,0-3C93.29,101.3,93.28,104.3,95.22,104.3L95.22,104.3z"/>
	</g>
</g>
<ellipse class="st4" cx="143.44" cy="117.33" rx="39.16" ry="39.89"/>
<g>
	<g>
		<path class="st5" d="M105.23,109.51c-1.7,1.57-1.67,4.56,0.29,5.93c1.84,1.28,4.45,0.56,5.53-1.34c-0.56,0.23-1.13,0.46-1.69,0.69
			c0.08,0.03,0.15,0.06,0.23,0.1c-0.3-0.23-0.6-0.46-0.9-0.69c-0.1-0.13-0.04,0.03-0.14,0.28c-0.12,0.29-0.2,0.54-0.24,0.85
			c-0.08,0.56-0.02,1.09,0.28,1.58c0.28,0.46,0.72,0.79,1.23,0.94c0.21,0.06,0.65,0.18,0.83,0.1c0.25-0.11-0.18-0.27-0.24-0.2
			c-0.18,0.23,0.22,1.43,0.32,1.67c0.21,0.5,0.53,0.94,0.93,1.3c0.94,0.86,2.25,1.17,3.49,1.15c2.94-0.05,5.76-0.91,8.72-0.31
			c2.69,0.55,4.94,2.17,7.14,3.73c1.58,1.12,3.08-1.48,1.51-2.59c-2.16-1.53-4.38-3.06-6.95-3.81c-2.85-0.83-5.83-0.59-8.72-0.2
			c-0.94,0.12-2.98,0.64-3.41-0.59c-0.38-1.07-0.04-2.04-1.2-2.76c-0.23-0.15-0.48-0.25-0.75-0.32c-0.51-0.12-0.77-0.28-0.47,0.35
			c0.31,0.66,0.32,0.24,0.48-0.24c0.06-0.19,0.11-0.37,0.15-0.57c0.22-1.27-0.34-2.19-1.5-2.67c-0.6-0.25-1.39,0.17-1.69,0.69
			c-0.67,1.17-2.16,0.02-1.11-0.95C108.77,110.31,106.64,108.19,105.23,109.51L105.23,109.51z"/>
	</g>
</g>
<g>
	<g>
		<path class="st5" d="M138.67,135.61c0.04,1.43-0.34,2.81-1.23,3.95c-0.5,0.64-1.13,1.17-1.64,1.8c-0.52,0.64-0.93,1.33-1.29,2.07
			c-1.62,3.36-3.04,6.82-4.55,10.23c-0.33,0.74-0.22,1.61,0.54,2.05c0.64,0.37,1.72,0.21,2.05-0.54c0.81-1.82,1.62-3.64,2.42-5.46
			c0.79-1.78,1.49-3.63,2.42-5.34c0.79-1.46,2.16-2.44,3.01-3.85c0.89-1.47,1.31-3.2,1.27-4.91
			C141.61,133.68,138.61,133.68,138.67,135.61L138.67,135.61z"/>
	</g>
</g>
<g>
	<g>
		<path class="st5" d="M126.56,150.77c-0.31-1.21-0.62-2.42-0.94-3.63c-0.15-0.59-0.31-1.19-0.46-1.78c-0.07-0.27-0.14-0.53-0.2-0.8
			c-0.03-0.12-0.04-0.39-0.03-0.12c0-0.08,0.03-0.61-0.03-0.25c0.12-0.77-0.2-1.65-1.05-1.85c-0.72-0.16-1.72,0.22-1.85,1.05
			c-0.13,0.82-0.05,1.56,0.15,2.35c0.16,0.64,0.33,1.27,0.49,1.91c0.34,1.3,0.67,2.61,1.01,3.91c0.2,0.76,1.08,1.29,1.85,1.05
			C126.29,152.36,126.77,151.59,126.56,150.77L126.56,150.77z"/>
	</g>
</g>
<g>
	<g>
		<path class="st5" d="M117.38,123.5c-1.33-2.25-4.21-2.6-6.4-3.63c-1.23-0.58-2.42-1.24-3.55-1.99c-0.6-0.39-0.64-0.74-0.75-1.47
			c-0.12-0.76-0.06-1.5,0.12-2.25c-0.91,0.12-1.83,0.24-2.74,0.36c1.39,2.89,3.59,5.26,6.32,6.94c1.29,0.79,2.8-0.77,2.05-2.05
			c-1.1-1.89-2.58-3.42-4.41-4.62c-1.42-0.93-3.06,1.2-1.82,2.36c0.87,0.81,1.73,1.61,2.6,2.42c1.21,1.12,3.3-0.33,2.36-1.82
			c-1.06-1.67-2.88-2.69-4.89-2.49c-1.43,0.14-2.1,1.96-0.76,2.8c2.01,1.25,3.99,2.59,6.07,3.73c1.97,1.07,4.04,1.57,6.26,1.77
			c4.07,0.36,8.54-0.43,12.12,1.99c0.25-0.93,0.5-1.86,0.76-2.8c-4.81-0.34-9.62-0.67-14.43-1.01c-1.18-0.08-1.81,1.32-1.3,2.26
			c2.2,3.99,7.02,3.37,10.7,2.33c1.34-0.38,1.52-2.62,0-2.89c-1.41-0.25-2.48-1.09-2.89-2.49c-0.23,0.56-0.46,1.13-0.69,1.69
			c0.32-0.19,0.72-0.29,1.05-0.03c0.22-0.84,0.44-1.67,0.66-2.51c-1.28,0.35-2.56,0.7-3.84,1.04c-0.92,0.25-1.94,0.42-2.79,0.88
			c-1.49,0.8-2.82,3.64-0.69,4.6c0.96,0.43,2.32,0.43,3.36,0.53c1.17,0.11,2.34,0.16,3.51,0.15c2.4-0.03,4.79-0.35,7.13-0.88
			c1.88-0.43,1.09-3.32-0.8-2.89c-4.02,0.91-8.17,1.02-12.23,0.28c0.3,0.23,0.6,0.46,0.9,0.69c-0.05,0.34,0.04,0.38,0.29,0.14
			c0.22-0.08,0.44-0.14,0.67-0.2c0.56-0.16,1.12-0.3,1.68-0.46c1.2-0.33,2.4-0.65,3.6-0.98c0.99-0.27,1.58-1.79,0.66-2.51
			c-1.41-1.11-3.09-1.37-4.69-0.44c-0.57,0.33-0.87,1.06-0.69,1.69c0.67,2.34,2.57,4.16,4.98,4.59c0-0.96,0-1.93,0-2.89
			c-2.29,0.65-5.86,1.69-7.32-0.95c-0.43,0.75-0.86,1.5-1.3,2.26c4.81,0.34,9.62,0.67,14.43,1.01c1.59,0.11,1.89-2.03,0.76-2.8
			c-3.53-2.38-7.8-2.16-11.87-2.3c-2.28-0.08-4.48-0.35-6.52-1.46c-2.08-1.13-4.06-2.48-6.07-3.73c-0.25,0.93-0.5,1.86-0.76,2.8
			c0.96-0.1,1.76,0.16,2.3,1c0.79-0.61,1.57-1.21,2.36-1.82c-0.87-0.81-1.73-1.61-2.6-2.42c-0.61,0.79-1.21,1.57-1.82,2.36
			c1.4,0.92,2.49,2.1,3.33,3.55c0.68-0.68,1.37-1.37,2.05-2.05c-2.32-1.42-4.07-3.42-5.24-5.86c-0.56-1.17-2.46-0.85-2.74,0.36
			c-0.35,1.47-0.39,2.98,0.01,4.45c0.21,0.78,0.48,1.53,1.11,2.05c0.6,0.49,1.31,0.9,1.97,1.29c1.34,0.8,2.75,1.47,4.2,2.06
			c1.11,0.45,2.93,0.7,3.59,1.8C115.77,126.67,118.37,125.17,117.38,123.5L117.38,123.5z"/>
	</g>
</g>
<g>
	<g>
		<path class="st5" d="M107.24,110.92c0.75-0.91,1.97-2.59,3.36-2.17c1.36,0.42,2.55,2.21,3.49,3.19c0.71-0.71,1.41-1.41,2.12-2.12
			c-1.12-1.12-0.84-2.75,0.39-3.63c0.74-0.53,1.56-0.91,2.29-1.49c0.78-0.62,1.44-1.33,2.1-2.07c0.68-0.77,8.15-9.36,8.39-9.13
			c0.62,0.6,1.96,0.62,2.36-0.3c0.9-2.11,0.8-4.38-0.66-6.22c-1.32-1.66-3.32-2.47-5.24-3.21c-0.13,0.98-0.27,1.96-0.4,2.95
			c1.83,0.21,3.77,0.21,5.24-1.06c1.2-1.04,1.71-2.8,0.96-4.26c-1.87-3.63-6.49-0.49-8.73,0.99c-5.68,3.76-10.32,8.99-13.64,14.92
			c-2.04,3.64-3.91,7.69-4.29,11.89c0.93-0.25,1.86-0.5,2.8-0.76c-0.64-0.98,0.49-3.07,0.82-4.06c0.55-1.65,1.14-3.29,1.9-4.85
			c1.33-2.72,3.15-5.2,5.76-6.79c-0.73-0.56-1.47-1.13-2.2-1.69c-0.4,1.27-0.8,2.54-1.19,3.82c-0.5,1.6,1.99,2.7,2.74,1.16
			c1.32-2.72,5.24-2.89,7.42-4.71c2.33-1.94,2.34-5.66,5.5-6.68c-0.49-0.84-0.97-1.67-1.46-2.51c-3.28,3.25-6.47,7.21-10.64,9.35
			c-1.3,0.67-0.72,2.89,0.76,2.8c3.82-0.25,7.79-1.8,10.41-4.69c1.26-1.39,0.98-3.73-1.21-3.87c-1.89-0.12-2.64,1.95-3.93,2.93
			c-1.68,1.27-3.52,1.15-5.44,1.73c-1.99,0.6-3.26,2.08-4.49,3.67c-2.63,3.41-4.65,7.2-6.1,11.25c-0.49,1.36,1.13,2.19,2.2,1.69
			c1.29-0.59,2.67-0.36,3.82,0.39c1.41,0.92,3.11-1.23,1.82-2.36c-0.99-0.86-1.98-1.72-2.97-2.58c-0.35,0.85-0.71,1.71-1.06,2.56
			c1.17,0.06,2.34,0.11,3.51,0.17c1.45,0.07,2.09-2.14,0.76-2.8c-1.32-0.64-2.64-1.29-3.96-1.93c-0.25,0.93-0.5,1.86-0.76,2.8
			c3.04-0.16,6.03-0.69,8.92-1.64c0.87-0.29,1.45-1.36,0.9-2.2c-0.4-0.61-0.8-1.22-1.2-1.83c-0.3,0.73-0.6,1.47-0.9,2.2
			c3.23-0.65,6.26-2.04,8.86-4.05c1.94-1.5,6.08-4.99,3.47-7.64c-2.7-2.74-5.68,1.24-7.5,2.91c-2.64,2.43-5.65,4.38-8.9,5.91
			c0.61,0.79,1.21,1.57,1.82,2.36c1.47-1.31,2.95-2.63,4.42-3.94c1.17-1.05-0.08-2.83-1.46-2.51c-4.11,0.97-7.43,4.33-8.3,8.47
			c-0.28,1.32,1.49,2.73,2.51,1.46c1.41-1.76,3.22-2.88,5.44-3.32c-0.49-0.84-0.97-1.67-1.46-2.51c-1.49,1.53-3.3,3.03-4.55,4.77
			c-1.09,1.5-0.83,3.64,1.16,4.19c1.57,0.43,3.38-0.36,4.73-1.1c1.64-0.9,2.96-2.19,4.03-3.71c0.74-1.06-0.49-2.61-1.69-2.2
			c-2.19,0.75-4.13,1.96-5.71,3.66c0.71,0.71,1.41,1.41,2.12,2.12c1.69-1.82,3.58-3.35,5.73-4.59c1.67-0.97,0.16-3.56-1.51-2.59
			c-2.32,1.34-4.64,2.67-6.96,4.01c0.5,0.86,1.01,1.73,1.51,2.59c3.13-2.01,6.16-4.14,9.11-6.42c2.4-1.86,5.79-4.11,4.18-7.58
			c-0.34-0.72-1.41-0.93-2.05-0.54c-3.94,2.43-7.63,5.24-11.04,8.36c-1.29,1.19,0.35,3.13,1.82,2.36c4.63-2.44,8.86-5.59,12.53-9.31
			c0.89-0.9,0.26-2.6-1.06-2.56c-2.46,0.08-4.46,1.27-6.33,2.78c-1.86,1.5-3.53,3.31-5.97,3.79c0.27,0.96,0.53,1.93,0.8,2.89
			c2.91-0.78,5.49-2.44,7.34-4.82c0.75-0.97,0.36-2.57-1.06-2.56c-3.31,0.01-6.31,1.72-8.03,4.53c-0.69,1.13,0.45,2.54,1.69,2.2
			c2.55-0.69,4.82-1.95,6.78-3.7c-0.79-0.61-1.57-1.21-2.36-1.82c-1.55,2.41-3.48,4.48-5.74,6.24c-1.52,1.19,0.62,3.3,2.12,2.12
			c2.46-1.92,4.52-4.23,6.21-6.85c0.96-1.49-1.13-2.91-2.36-1.82c-1.58,1.42-3.41,2.38-5.46,2.93c0.56,0.73,1.13,1.47,1.69,2.2
			c1.18-1.92,3.2-3.04,5.44-3.04c-0.35-0.85-0.71-1.71-1.06-2.56c-1.55,2-3.56,3.4-6.01,4.05c-1.88,0.5-1.08,3.26,0.8,2.89
			c2.23-0.43,4.03-1.79,5.73-3.23c1.67-1.42,3.45-3.15,5.77-3.23c-0.35-0.85-0.71-1.71-1.06-2.56c-3.51,3.56-7.51,6.51-11.93,8.84
			c0.61,0.79,1.21,1.57,1.82,2.36c3.23-2.96,6.71-5.59,10.43-7.9c-0.68-0.18-1.37-0.36-2.05-0.54c0.44,0.94-1.38,2.11-1.94,2.56
			c-1.11,0.89-2.23,1.75-3.38,2.6c-2.24,1.66-4.54,3.23-6.88,4.73c-1.62,1.04-0.17,3.56,1.51,2.59c2.32-1.34,4.64-2.67,6.96-4.01
			c-0.5-0.86-1.01-1.73-1.51-2.59c-2.36,1.37-4.49,3.06-6.34,5.06c-1.31,1.42,0.81,3.54,2.12,2.12c1.23-1.32,2.67-2.31,4.38-2.89
			c-0.56-0.73-1.13-1.47-1.69-2.2c-0.58,0.83-1.3,1.56-2.14,2.14c-0.42,0.29-0.86,0.55-1.32,0.76c-0.44,0.2-1.01,0.27-1.43,0.5
			c-0.15,0.05-0.31,0.06-0.47,0.05c0.19,0.65,0.4,0.72,0.66,0.21c0.46-0.22,0.99-1.01,1.35-1.39c0.9-0.92,1.8-1.85,2.69-2.77
			c1.09-1.12-0.03-2.79-1.46-2.51c-2.66,0.53-5.07,1.97-6.76,4.09c0.84,0.49,1.67,0.97,2.51,1.46c0.67-3.18,3.04-5.63,6.21-6.37
			c-0.49-0.84-0.97-1.67-1.46-2.51c-1.47,1.31-2.95,2.63-4.42,3.94c-1.35,1.2,0.37,3.04,1.82,2.36c2.32-1.1,4.53-2.41,6.58-3.96
			c1.01-0.76,1.99-1.57,2.93-2.42c0.9-0.83,1.71-2.01,2.74-2.68c0.46-0.3,0.63-0.37,0.17,0.16c-0.39,0.45-0.76,0.91-1.19,1.33
			c-0.85,0.83-1.76,1.58-2.76,2.23c-2.06,1.34-4.3,2.23-6.71,2.72c-0.92,0.19-1.4,1.43-0.9,2.2c0.4,0.61,0.8,1.22,1.2,1.83
			c0.3-0.73,0.6-1.47,0.9-2.2c-2.64,0.87-5.34,1.39-8.13,1.54c-1.38,0.07-2.18,2.1-0.76,2.8c1.32,0.64,2.64,1.29,3.96,1.93
			c0.25-0.93,0.5-1.86,0.76-2.8c-1.17-0.06-2.34-0.11-3.51-0.17c-1.26-0.06-2.04,1.71-1.06,2.56c0.99,0.86,1.98,1.72,2.97,2.58
			c0.61-0.79,1.21-1.57,1.82-2.36c-2.11-1.37-4.6-1.42-6.85-0.39c0.73,0.56,1.47,1.13,2.2,1.69c1.07-2.98,2.5-5.81,4.27-8.43
			c0.83-1.23,1.71-2.55,2.81-3.56c1.21-1.1,2.76-1.03,4.26-1.38c1.31-0.3,2.55-0.91,3.61-1.73c0.56-0.43,1.08-0.9,1.53-1.45
			c0.18-0.21,0.44-0.47,0.55-0.71c0.4-0.46,0.11-0.92-0.89-1.38c-0.1,0.1-0.19,0.19-0.29,0.29c-1.25,0.87-2.26,1.85-3.69,2.48
			c-1.36,0.61-2.84,0.94-4.32,1.04c0.25,0.93,0.5,1.86,0.76,2.8c4.4-2.26,7.78-6.39,11.24-9.82c1.04-1.03-0.01-2.97-1.46-2.51
			c-1.56,0.5-2.9,1.38-3.89,2.7c-1.03,1.38-1.35,3.32-2.64,4.49c-1.26,1.15-3.06,1.56-4.57,2.28c-1.51,0.72-2.88,1.77-3.62,3.3
			c0.91,0.39,1.83,0.77,2.74,1.16c0.4-1.27,0.8-2.54,1.19-3.82c0.39-1.25-1.1-2.36-2.2-1.69c-3.32,2.03-5.65,5.2-7.23,8.71
			c-0.89,1.97-1.59,4-2.25,6.05c-0.54,1.66-1.12,3.44-0.08,5.04c0.85,1.3,2.66,0.71,2.8-0.76c0.31-3.45,1.96-6.85,3.6-9.86
			c1.57-2.89,3.44-5.6,5.63-8.05c2.14-2.39,4.54-4.53,7.21-6.3c0.69-0.46,1.4-0.9,2.13-1.31c0.55-0.31,1.37-0.96,2.04-0.95
			c0.79,0.01,0.27,0.64-0.19,0.89c-0.84,0.46-2.06,0.21-2.95,0.1c-1.8-0.21-1.85,2.39-0.4,2.95c2.02,0.77,5.29,2.25,4.11,5.02
			c0.79-0.1,1.57-0.2,2.36-0.3c-2.33-2.25-4.7,0.2-6.28,1.97c-2.12,2.38-4.24,4.77-6.35,7.16c-0.95,1.07-1.89,1.95-3.12,2.68
			c-1,0.6-1.97,1.27-2.56,2.31c-1.18,2.09-0.78,4.76,0.9,6.44c1.37,1.37,3.46-0.73,2.12-2.12c-1.53-1.6-3.15-3.81-5.52-4.1
			c-2.35-0.29-4.17,1.41-5.56,3.08C103.89,110.28,106,112.41,107.24,110.92L107.24,110.92z"/>
	</g>
</g>
<g>
	<g>
		<path class="st5" d="M121.32,97.66c0.08-0.04,0.17-0.07,0.25-0.11c-0.12,0.05-0.14,0.06-0.04,0.02c0.13-0.05,0.26-0.1,0.39-0.15
			c0.28-0.11,0.57-0.2,0.86-0.28c0.13-0.03,0.27-0.06,0.4-0.09c0.42-0.08-0.28,0,0.11-0.01c0.13,0,0.25-0.01,0.38,0
			c0.15,0.01,0.36,0.06,0.1,0c0.14,0.03,0.28,0.08,0.42,0.11c0.1,0.04,0.08,0.02-0.07-0.04c0.06,0.03,0.11,0.05,0.17,0.08
			c0.07,0.04,0.45,0.29,0.14,0.07c0.17,0.12,0.32,0.26,0.49,0.38c0.66,0.47,1.48,0.61,2.24,0.29c1.3-0.55,1.55-2.23,1.9-3.43
			c0.37-1.29,0.64-2.59,0.78-3.92c0.08-0.78-0.75-1.53-1.5-1.5c-0.88,0.04-1.42,0.66-1.5,1.5c-0.01,0.15-0.03,0.29-0.05,0.44
			c0.04-0.3-0.03,0.17-0.03,0.18c-0.05,0.29-0.11,0.58-0.17,0.86c-0.12,0.53-0.25,1.05-0.4,1.57c-0.16,0.57-0.33,1.13-0.51,1.69
			c-0.01,0.03-0.02,0.07-0.03,0.1c-0.06,0.15-0.04,0.13,0.03-0.06c0.03,0.09-0.25,0.23-0.05,0.11c0.1-0.16,0.25-0.27,0.46-0.32
			c0.21-0.07,0.39-0.05,0.56,0.04c0.11,0.06,0.1,0.05-0.02-0.02c-0.05-0.03-0.1-0.06-0.14-0.1c-0.15-0.09,0.2,0.16-0.02-0.02
			c-0.16-0.12-0.32-0.26-0.5-0.37c-0.28-0.18-0.6-0.31-0.91-0.42c-0.53-0.19-1.13-0.25-1.69-0.23c-1.27,0.06-2.4,0.54-3.55,1.04
			c-0.72,0.31-0.94,1.43-0.54,2.05C119.75,97.87,120.54,97.99,121.32,97.66L121.32,97.66z"/>
	</g>
</g>
<g>
	<g>
		<path class="st5" d="M128.17,84.69c0.64-0.39,1.27-0.78,1.91-1.17c0.33-0.2,0.59-0.53,0.69-0.9c0.06-0.2,0.07-0.4,0.03-0.6
			c-0.01-0.2-0.07-0.39-0.18-0.56c-0.21-0.32-0.51-0.6-0.9-0.69c-0.39-0.09-0.81-0.06-1.16,0.15c-0.64,0.39-1.27,0.78-1.91,1.17
			c-0.33,0.2-0.59,0.53-0.69,0.9c-0.06,0.2-0.07,0.4-0.03,0.6c0.01,0.2,0.07,0.39,0.18,0.56c0.21,0.32,0.51,0.6,0.9,0.69
			C127.4,84.93,127.82,84.9,128.17,84.69L128.17,84.69z"/>
	</g>
</g>
<g>
	<g>
		<path class="st5" d="M140.11,134.14c-1.54-0.27-3.17-0.46-4.53,0.48c-1.24,0.86-1.88,2.31-3.13,3.21
			c-1.22,0.88-2.59,1.61-3.99,2.16c-1.37,0.53-2.95,0.67-4.26,1.34c-1.53,0.78-1.69,2.37-1.49,3.9c0.23,1.69,0.46,3.38,0.69,5.07
			c0.22,1.61,0.32,3.05,1.71,4.11c1.32,1.01,3.04,1.6,4.66,1.9c1.71,0.32,2.53-1.73,1.16-2.74c-1.53-1.12-3.05-2.24-4.58-3.36
			c-0.12,0.91-0.24,1.83-0.36,2.74c0.99-0.22,1.98,0.06,2.71,0.75c0.74,0.69,2.33,0.52,2.51-0.66c0.18-1.16-0.06-2.23-0.94-3.06
			c-0.36-0.34-0.84-0.62-1.32-0.74c-0.33-0.08-0.67-0.09-1-0.08c-0.12,0.01-0.24,0.03-0.35,0.04c-0.5-0.04-0.48,0.05,0.07,0.27
			c0.07,0.25,0.14,0.5,0.2,0.76c0,0,0,0,0-0.01c-0.13,0.22-0.26,0.44-0.39,0.66c0,0,0.01,0,0.01,0c-0.39,0.05-0.77,0.1-1.16,0.15
			c0.06,0.01,0.13,0.02,0.19,0.04c1.89,0.37,2.69-2.52,0.8-2.89c-1.68-0.33-3.18,1.42-2.15,2.98c0.42,0.63,1.11,0.97,1.85,1.04
			c0.22,0.02,1.33-0.12,1.3,0.06c0.84-0.22,1.67-0.44,2.51-0.66c-1.55-1.44-3.57-1.98-5.63-1.52c-1.38,0.3-1.31,2.04-0.36,2.74
			c1.53,1.12,3.05,2.24,4.58,3.36c0.39-0.91,0.77-1.83,1.16-2.74c-1.21-0.23-2.6-0.59-3.6-1.36c-0.75-0.58-0.63-2.24-0.74-3.11
			c-0.19-1.39-0.41-2.78-0.57-4.17c-0.03-0.24-0.1-0.77-0.05-0.83c0.28-0.29,1.37-0.35,1.76-0.46c2.33-0.65,4.62-1.68,6.59-3.09
			c1-0.71,1.83-1.49,2.56-2.47c0.32-0.43,0.59-0.9,1.14-1.02c0.52-0.12,1.12,0.01,1.64,0.11
			C141.2,137.37,142.01,134.48,140.11,134.14L140.11,134.14z"/>
	</g>
</g>
<g>
	<g>
		<path class="st5" d="M127.48,143.13c-0.23,0.43-0.46,0.85-0.76,1.24c0.23-0.3,0.47-0.61,0.7-0.91c-0.13,0.16-0.27,0.29-0.42,0.43
			c0.3-0.23,0.61-0.47,0.91-0.7c-0.21,0.16-0.41,0.28-0.65,0.38c0.36-0.15,0.72-0.3,1.07-0.45c-0.12,0.04-0.24,0.07-0.36,0.09
			c0.4-0.05,0.8-0.11,1.2-0.16c-0.12,0.02-0.24,0.02-0.37,0.01c0.4,0.05,0.8,0.11,1.2,0.16c-0.12-0.01-0.23-0.03-0.35-0.07
			c0.36,0.15,0.72,0.3,1.07,0.45c-0.17-0.07-0.29-0.15-0.43-0.26c0.3,0.23,0.61,0.47,0.91,0.7c-0.09-0.07-0.16-0.16-0.23-0.25
			c0.23,0.3,0.47,0.61,0.7,0.91c-0.07-0.09-0.12-0.19-0.17-0.29c0.15,0.36,0.3,0.72,0.45,1.07c-0.05-0.1-0.08-0.21-0.1-0.32
			c0.05,0.4,0.11,0.8,0.16,1.2c-0.02-0.18-0.02-0.32,0-0.51c0.13-1.02-0.59-2.51-1.32-3.18c-0.83-0.76-2.01-1.43-3.18-1.32
			c-0.21,0.02-0.41,0.04-0.61,0.06c0.76,2.8,1.51,5.59,2.27,8.39c4.22-2.58,8.38-5.38,11.05-9.66c1.25-2,0.49-5.04-1.61-6.16
			c-2.25-1.19-4.77-0.49-6.16,1.61c-1.38,2.1-2.76,4.2-4.13,6.29c-1.36,2.06-2.85,4.09-4.04,6.26c-1.13,2.06-0.58,5,1.61,6.16
			c2.11,1.11,4.95,0.59,6.16-1.61c1.19-2.17,2.68-4.2,4.04-6.26c1.38-2.1,2.76-4.2,4.13-6.29c-2.59-1.51-5.18-3.03-7.77-4.54
			c-0.28,0.45-0.59,0.89-0.92,1.32c0.23-0.3,0.47-0.61,0.7-0.91c-1,1.26-2.18,2.35-3.44,3.35c0.3-0.23,0.61-0.47,0.91-0.7
			c-1.61,1.24-3.34,2.32-5.07,3.38c-1.64,1-2.69,3.17-2.07,5.08c0.24,0.74,0.63,1.41,1.16,1.99c0.69,0.76,2.14,1.41,3.18,1.32
			c0.2-0.02,0.41-0.04,0.61-0.06c-1.5-1.5-3-3-4.5-4.5c-0.08,0.6,0.04,1.3,0.2,1.87c0.27,0.94,0.78,1.79,1.44,2.5
			c1.11,1.2,2.71,1.81,4.32,1.84c2.83,0.05,5.03-2.05,6.25-4.39c1.09-2.08,0.6-4.99-1.61-6.16
			C131.56,140.42,128.65,140.9,127.48,143.13L127.48,143.13z"/>
	</g>
</g>
<g>
	<g>
		<path class="st3" d="M98.89,92.14c1.93,0,1.93-3,0-3C96.96,89.14,96.96,92.14,98.89,92.14L98.89,92.14z"/>
	</g>
</g>
<g>
	<g>
		<path class="st3" d="M125.77,65.67c-8.69,3.93-17.42,7.93-25.36,13.28c-8.69,5.85-16.98,13.38-21.69,22.9
			c-2.65,5.37-4.38,11.29-4.13,17.33c0.27,6.46,2.43,12.28,6.45,17.32c6.61,8.28,18.18,11.95,28.47,11.25
			c6.5-0.44,12.75-2.11,18.76-4.58c2.24-0.92,4.29-1.67,6.13-3.27c2.47-2.16,3.54-5.68,2.74-8.86c-0.8-3.15-3.32-5.71-6.42-6.66
			c-2.51-0.77-4.76-0.36-7.29-0.01c0.66-0.09,1.33-0.18,1.99-0.27c-2.79,0.35-5.59,0.38-8.38,0.03c0.66,0.09,1.33,0.18,1.99,0.27
			c-2.19-0.31-4.31-0.86-6.37-1.69c0.6,0.25,1.19,0.5,1.79,0.76c-1.19-0.51-2.33-1.09-3.42-1.79c-0.21-0.13-0.42-0.27-0.62-0.41
			c-0.19-0.13-1.23-0.91-0.14-0.08c1.05,0.81,0.12,0.08-0.11-0.12c-0.23-0.2-0.46-0.41-0.69-0.62c-0.41-0.38-0.8-0.78-1.17-1.2
			c-0.21-0.23-0.4-0.47-0.6-0.71c-0.58-0.67,1.05,1.51,0.39,0.49c-0.68-1.04-1.3-2.07-1.8-3.21c0.25,0.6,0.5,1.19,0.76,1.79
			c-0.57-1.37-0.96-2.78-1.19-4.25c0.09,0.66,0.18,1.33,0.27,1.99c-0.24-1.85-0.22-3.68,0-5.53c-0.09,0.66-0.18,1.33-0.27,1.99
			c0.37-2.6,1.12-5.09,2.12-7.51c-0.25,0.6-0.5,1.19-0.76,1.79c1.23-2.88,2.78-5.61,4.56-8.18c0.38-0.55,2.07-2.6,0.46-0.7
			c0.46-0.55,0.9-1.13,1.37-1.68c0.98-1.15,2.01-2.25,3.08-3.31c1.03-1.01,2.1-1.98,3.21-2.89c0.3-0.25,0.63-0.48,0.92-0.74
			c-1.66,1.49-0.71,0.55-0.27,0.22c0.63-0.47,1.28-0.92,1.93-1.36c2.59-1.73,5.35-3.2,8.22-4.42c-0.6,0.25-1.19,0.5-1.79,0.76
			c4.11-1.7,8.39-2.85,12.79-3.45c-0.66,0.09-1.33,0.18-1.99,0.27c4.41-0.56,8.84-0.57,13.25,0.01c-0.66-0.09-1.33-0.18-1.99-0.27
			c0.73,0.1,1.46,0.22,2.19,0.35c1.33-4.82,2.66-9.64,3.99-14.46c-10.13-1.68-20.4-1.3-30.29,1.63c-3.76,1.11-6.5,5.32-5.24,9.23
			c1.31,4.04,5.11,6.13,9.23,5.24c1.32-0.29,2.64-0.52,3.98-0.7c-0.66,0.09-1.33,0.18-1.99,0.27c4.37-0.56,8.78-0.52,13.15,0.06
			c-0.66-0.09-1.33-0.18-1.99-0.27c4.62,0.65,9.11,1.89,13.41,3.7c-0.6-0.25-1.19-0.5-1.79-0.76c2.65,1.13,5.2,2.45,7.64,3.99
			c1.19,0.75,2.34,1.56,3.47,2.39c1.11,0.82-1.36-1.09-0.36-0.27c0.28,0.23,0.57,0.46,0.85,0.7c0.56,0.47,1.11,0.95,1.66,1.45
			c1.04,0.95,2.03,1.94,2.98,2.97c0.46,0.49,0.9,1,1.33,1.51c0.24,0.28,0.47,0.56,0.7,0.85c0.15,0.19,0.31,0.38,0.46,0.57
			c-0.24-0.31-0.48-0.62-0.73-0.94c1.1,1.1,1.95,2.73,2.74,4.06c0.88,1.48,1.65,3.01,2.32,4.59c-0.25-0.6-0.5-1.19-0.76-1.79
			c0.91,2.24,1.58,4.55,1.91,6.95c-0.09-0.66-0.18-1.33-0.27-1.99c0.23,1.95,0.24,3.88-0.01,5.82c0.09-0.66,0.18-1.33,0.27-1.99
			c-0.31,2.16-0.91,4.23-1.74,6.25c0.25-0.6,0.5-1.19,0.76-1.79c-0.95,2.2-2.15,4.28-3.57,6.22c-0.76,1.03,0.17,0.02,0.3-0.37
			c-0.06,0.2-0.38,0.47-0.52,0.64c-0.4,0.47-0.81,0.94-1.23,1.39c-0.89,0.96-1.82,1.87-2.79,2.74c-0.91,0.82-1.84,1.66-2.84,2.37
			c0.48-0.34,1.24-0.95,0.3-0.25c-0.23,0.17-0.47,0.34-0.7,0.51c-0.53,0.38-1.07,0.76-1.61,1.13c-2.17,1.48-4.4,2.85-6.66,4.18
			c-3.37,2-4.9,6.84-2.69,10.26c2.19,3.4,6.65,4.83,10.26,2.69c8.39-4.98,16.46-10.67,21.96-18.89c5.63-8.4,7.33-19.08,3.81-28.65
			c-6.06-16.48-21.21-28.59-37.87-33.24c-9.16-2.56-18.83-2.83-28.12-0.82c1.33,4.82,2.66,9.64,3.99,14.46
			c2.99-0.89,6.02-1.53,9.11-1.95c-0.66,0.09-1.33,0.18-1.99,0.27c5.1-0.65,10.25-0.64,15.34,0.03c-0.66-0.09-1.33-0.18-1.99-0.27
			c0.62,0.09,1.23,0.18,1.84,0.28c2.05,0.34,3.92,0.33,5.78-0.76c1.56-0.91,3.04-2.69,3.45-4.48c0.83-3.66-1.11-8.49-5.24-9.23
			c-9.34-1.66-18.98-1.32-28.06,1.57c-8.38,2.67-16.05,7.2-22.43,13.27c-6.25,5.95-11.33,13.48-14.06,21.69
			c-1.64,4.92-2.01,10.11-1.09,15.2c0.83,4.55,3.33,8.79,6.45,12.15c3.48,3.74,8.14,6.39,13,7.86c5.7,1.72,11.51,1.57,17.32,0.73
			c-0.66,0.09-1.33,0.18-1.99,0.27c0.58-0.07,1.13-0.11,1.72-0.06c-0.66-0.09-1.33-0.18-1.99-0.27c0.25,0.03,0.49,0.1,0.72,0.2
			c-0.6-0.25-1.19-0.5-1.79-0.76c0.69,0.41,0.45,0.12-0.71-0.85c-0.95-1.17-1.24-1.41-0.87-0.72c-0.25-0.6-0.5-1.19-0.76-1.79
			c0.02,0.1,0.05,0.2,0.07,0.3c-0.09-0.66-0.18-1.33-0.27-1.99c0,0.11,0,0.21,0,0.32c0.09-0.66,0.18-1.33,0.27-1.99
			c-0.02,0.1-0.04,0.2-0.06,0.3c0.25-0.6,0.5-1.19,0.76-1.79c-0.38,0.84,0.62-0.72,0.67-0.77c0.33-0.26,0.67-0.53,1-0.79
			c-0.14,0.09-0.28,0.17-0.43,0.24c-0.57,0.23-1.13,0.51-1.7,0.75c0.6-0.25,1.19-0.5,1.79-0.76c-4.66,1.94-9.47,3.5-14.48,4.21
			c0.66-0.09,1.33-0.18,1.99-0.27c-3.06,0.4-6.14,0.49-9.2,0.11c0.66,0.09,1.33,0.18,1.99,0.27c-2.49-0.34-4.91-0.98-7.24-1.93
			c0.6,0.25,1.19,0.5,1.79,0.76c-1.26-0.54-2.49-1.15-3.66-1.87c-0.53-0.32-1.03-0.68-1.54-1.03c-1.16-0.8,1.4,1.2,0.35,0.27
			c-0.23-0.2-0.47-0.4-0.7-0.6c-0.45-0.41-0.89-0.84-1.31-1.29c-0.21-0.22-0.4-0.46-0.61-0.69c-0.95-1.02,1.05,1.52,0.26,0.36
			c-0.81-1.19-1.52-2.38-2.11-3.7c0.25,0.6,0.5,1.19,0.76,1.79c-0.76-1.81-1.25-3.69-1.52-5.63c0.09,0.66,0.18,1.33,0.27,1.99
			c-0.25-2.1-0.24-4.19,0.01-6.29c-0.09,0.66-0.18,1.33-0.27,1.99c0.35-2.55,1.05-5.01,2.02-7.39c-0.25,0.6-0.5,1.19-0.76,1.79
			c0.79-1.85,1.72-3.63,2.79-5.34c0.5-0.79,1.02-1.57,1.57-2.32c0.17-0.23,1.08-1.43,0.32-0.45c-0.78,1.02,0.38-0.45,0.59-0.7
			c2.37-2.84,5.05-5.42,7.92-7.75c0.31-0.25,0.63-0.5,0.94-0.76c0.96-0.77-1.38,1.04-0.08,0.07c0.76-0.56,1.52-1.11,2.3-1.65
			c1.56-1.08,3.16-2.1,4.78-3.08c3.22-1.94,6.54-3.71,9.9-5.38c3.8-1.88,7.65-3.64,11.51-5.39c1.61-0.73,3-2.85,3.45-4.48
			c0.49-1.8,0.27-4.19-0.76-5.78c-1.03-1.6-2.57-3.01-4.48-3.45C129.47,64.44,127.71,64.79,125.77,65.67L125.77,65.67z"/>
	</g>
</g>
<g>
	<g>
		<path class="st3" d="M156.48,144.04c0.07,3.72,1.41,7.47,4.79,9.44c4.1,2.4,8.97,0.94,11.96-2.46c3.15-3.59,6.26-7.21,9.4-10.82
			c2.47-2.84,2.97-6.76,0.59-9.85c-2.23-2.89-6.45-3.88-9.68-1.93c-3.54,2.14-6.58,5.3-8.29,9.09c-1.14,2.53-1.69,4.72-2,7.49
			c-0.2,1.82-0.19,3.66-0.43,5.48c0.09-0.66,0.18-1.33,0.27-1.99c-0.13,0.82-0.32,1.61-0.61,2.39c0.25-0.6,0.5-1.19,0.76-1.79
			c-0.16,0.38-0.35,0.72-0.53,1.08c-0.55,1.07,1-1.09,0.42-0.47c-0.21,0.22-0.41,0.46-0.63,0.67c-0.13,0.13-0.27,0.25-0.41,0.37
			c-0.44,0.37-0.18,0.17,0.78-0.6c-1.25,0.59-2.38,1.43-3.67,1.98c0.6-0.25,1.19-0.5,1.79-0.76c-3.84,1.6-7.86,2.67-11.97,3.24
			c0.66-0.09,1.33-0.18,1.99-0.27c-4.3,0.56-8.62,0.56-12.92-0.01c0.66,0.09,1.33,0.18,1.99,0.27c-4.03-0.57-7.94-1.64-11.7-3.19
			c0.6,0.25,1.19,0.5,1.79,0.76c-3.56-1.51-6.95-3.41-10.06-5.71c-0.21-0.16-0.43-0.32-0.64-0.48c0.94,0.73,1.18,0.91,0.73,0.56
			c-0.36-0.3-0.72-0.59-1.08-0.89c-0.71-0.6-1.41-1.23-2.08-1.87c-1.45-1.38-2.8-2.86-4.06-4.41c-1.64-2.01-4.92-2.58-7.3-1.93
			c-2.27,0.62-4.89,2.75-5.24,5.24c-0.5,3.54-0.99,7.08-1.49,10.61c-0.28,1.99-0.4,3.98,0.76,5.78c1.12,1.74,2.57,2.7,4.48,3.45
			c17.82,6.96,37.53,8.36,56.27,4.83c5.08-0.96,10.08-2.34,14.94-4.12c1.78-0.65,3.55-1.69,4.48-3.45c1.01-1.91,1.04-3.66,0.76-5.78
			c-0.36-2.69-0.73-5.39-1.09-8.08c-0.23-1.72-2.03-3.65-3.45-4.48c-1.61-0.94-3.98-1.34-5.78-0.76c-1.81,0.59-3.57,1.71-4.48,3.45
			c-1.01,1.91-1.04,3.66-0.76,5.78c0.36,2.69,0.73,5.39,1.09,8.08c1.75-3.08,3.49-6.15,5.24-9.23c-6.39,2.34-13.01,3.97-19.75,4.9
			c0.66-0.09,1.33-0.18,1.99-0.27c-8.51,1.13-17.12,1.14-25.64,0.03c0.66,0.09,1.33,0.18,1.99,0.27c-7.48-1.02-14.8-2.89-21.83-5.63
			c1.75,3.08,3.49,6.15,5.24,9.23c0.5-3.54,0.99-7.08,1.49-10.61c-4.18,1.1-8.36,2.21-12.54,3.31c7.09,8.69,17.24,15.09,28.07,17.97
			c12.35,3.28,26.21,2.2,37.7-3.49c3.33-1.65,6.51-4.35,8.05-7.79c1.1-2.45,1.55-4.74,1.77-7.43c0.13-1.55,0.14-3.11,0.35-4.65
			c-0.09,0.66-0.18,1.33-0.27,1.99c0.18-1.14,0.49-2.22,0.92-3.29c-0.25,0.6-0.5,1.19-0.76,1.79c0.25-0.57,0.53-1.14,0.85-1.67
			c0.03-0.05,0.63-0.93,0.62-0.94c0.06,0.09-1.31,1.59-0.36,0.49c0.41-0.47,0.85-0.92,1.33-1.33c0.98-0.85-0.34,0.09-0.49,0.36
			c0.13-0.24,0.73-0.48,0.95-0.61c-3.03-3.93-6.06-7.85-9.09-11.78c-1.8,2.08-3.61,4.16-5.41,6.23c-0.85,0.98-1.7,1.96-2.55,2.93
			c-0.48,0.55-0.95,1.1-1.43,1.65c-0.17,0.2-0.4,0.4-0.55,0.61c-0.28,0.27-0.17,0.2,0.32-0.21c0.57-0.39,0.62-0.46,0.13-0.19
			c0.6-0.25,1.19-0.5,1.79-0.76c-0.12,0.03-0.23,0.06-0.35,0.09c0.66-0.09,1.33-0.18,1.99-0.27c-0.12,0-0.24,0-0.37,0
			c0.66,0.09,1.33,0.18,1.99,0.27c-0.09-0.02-0.19-0.04-0.28-0.06c0.6,0.25,1.19,0.5,1.79,0.76c-0.68-0.35-0.41-0.03,0.82,0.94
			c1.01,1.21,1.32,1.48,0.93,0.8c0.25,0.6,0.5,1.19,0.76,1.79c-0.16-0.39-0.25-0.78-0.32-1.2c0.09,0.66,0.18,1.33,0.27,1.99
			c-0.03-0.31-0.05-0.62-0.06-0.93c-0.08-3.92-3.39-7.68-7.5-7.5C159.98,136.72,156.4,139.84,156.48,144.04L156.48,144.04z"/>
	</g>
</g>
<g>
	<g>
		<path class="st3" d="M176.71,152.91c11.51-4.05,23.46-8.87,30.34-19.57c8.12-12.64,5.26-28.94-1.95-41.24
			c-12.18-20.78-36.62-33.8-60.72-31.32c-14.42,1.48-27.96,7.32-38.59,17.25c-2.87,2.68-2.92,7.93,0,10.61
			c3.08,2.83,7.54,2.86,10.61,0c1.16-1.09,2.43-2.05,3.62-3.11c-1.65,1.48-0.71,0.54-0.25,0.21c0.32-0.24,0.64-0.47,0.97-0.7
			c0.7-0.5,1.42-0.98,2.14-1.44c2.74-1.75,5.62-3.26,8.61-4.53c-0.6,0.25-1.19,0.5-1.79,0.76c4.78-2,9.78-3.38,14.92-4.09
			c-0.66,0.09-1.33,0.18-1.99,0.27c4.87-0.64,9.79-0.67,14.67-0.04c-0.66-0.09-1.33-0.18-1.99-0.27c4.91,0.67,9.69,1.99,14.26,3.9
			c-0.6-0.25-1.19-0.5-1.79-0.76c3.15,1.34,6.18,2.94,9.05,4.8c0.74,0.48,1.48,0.98,2.2,1.5c0.36,0.26,0.72,0.52,1.07,0.79
			c1.37,1.03-1.24-1.01-0.17-0.13c1.32,1.08,2.62,2.19,3.86,3.37c1.24,1.18,2.42,2.41,3.54,3.7c0.58,0.67,1.14,1.35,1.7,2.04
			c0.83,1.02-1.07-1.45-0.25-0.32c0.26,0.36,0.53,0.71,0.78,1.07c2.21,3.1,4.09,6.43,5.58,9.94c-0.25-0.6-0.5-1.19-0.76-1.79
			c1.23,2.99,2.13,6.08,2.61,9.29c-0.09-0.66-0.18-1.33-0.27-1.99c0.36,2.72,0.4,5.45,0.06,8.17c0.09-0.66,0.18-1.33,0.27-1.99
			c-0.32,2.28-0.89,4.48-1.75,6.61c0.25-0.6,0.5-1.19,0.76-1.79c-0.47,1.11-1.01,2.19-1.63,3.22c-0.26,0.42-0.53,0.84-0.81,1.24
			c-0.14,0.2-0.29,0.4-0.43,0.6c-0.51,0.73,1.08-1.31,0.49-0.65c-0.69,0.78-1.36,1.56-2.1,2.28c-0.35,0.34-0.71,0.67-1.08,0.99
			c-0.28,0.24-1.75,1.42-0.66,0.58c1.08-0.83-0.29,0.2-0.57,0.4c-0.4,0.28-0.81,0.56-1.23,0.83c-0.89,0.57-1.8,1.11-2.73,1.62
			c-1.89,1.04-3.84,1.94-5.82,2.79c0.6-0.25,1.19-0.5,1.79-0.76c-2.8,1.18-5.66,2.22-8.53,3.23c-1.86,0.66-3.46,1.7-4.48,3.45
			c-0.94,1.61-1.34,3.98-0.76,5.78C168.66,151.32,172.74,154.31,176.71,152.91L176.71,152.91z"/>
	</g>
</g>
<g>
	<path class="st6" d="M134.11,126.19c0.5,2.13,1,4.26,1.5,6.39c0.07,0.3,0.15,0.62,0.34,0.86c0.31,0.4,0.85,0.53,1.35,0.62
		c6.47,1.12,13.37-0.54,18.62-4.48c-0.81-0.28-1.62-0.55-2.42-0.83c0.85-0.67,1.69-1.35,2.54-2.02c-0.87,0.74-1.96,1.21-3.09,1.34
		c-0.44,0.05-0.98-0.01-1.18-0.41c-0.26-0.52,0.31-1.06,0.8-1.38c1.55-0.98,3.1-1.97,4.65-2.95c-1.91,1.98-5.18,2.5-7.61,1.2
		c1.79-0.78,3.58-1.55,5.37-2.33c-3.82,1.4-7.73,2.81-11.8,2.78c-0.46,0-1.01-0.09-1.19-0.51c-0.16-0.39,0.11-0.81,0.37-1.14
		c1.18-1.52,2.35-3.03,3.53-4.55c-0.67,0.13-1.29,0.42-1.91,0.71c-2.68,1.26-5.36,2.52-8.04,3.77c-1.01,0.47-2.13,1.07-2.43,2.14
		c-0.21,0.75,0.04,1.54,0.28,2.27c0.67,2.03,1.34,4.05,2.02,6.08"/>
	<g>
		<path class="st6" d="M133.38,126.39c0.36,1.52,0.71,3.04,1.07,4.56c0.24,1.02,0.31,2.49,1.17,3.23c0.74,0.64,1.89,0.68,2.82,0.79
			c1.28,0.15,2.57,0.21,3.85,0.15c5.04-0.2,9.95-1.91,14-4.9c0.52-0.39,0.46-1.15-0.18-1.37c-0.81-0.28-1.62-0.55-2.42-0.83
			c0.11,0.42,0.22,0.84,0.33,1.25c0.85-0.67,1.69-1.35,2.54-2.02c0.76-0.6-0.31-1.65-1.06-1.06c-0.6,0.47-1.27,0.83-2.01,1.01
			c-0.34,0.08-0.84,0.38-0.68-0.08c0.1-0.3,0.68-0.55,0.91-0.69c1.29-0.82,2.58-1.64,3.88-2.46c-0.3-0.39-0.61-0.79-0.91-1.18
			c-1.77,1.73-4.47,2.19-6.7,1.08c0,0.43,0,0.86,0,1.3c1.79-0.78,3.58-1.55,5.37-2.33c0.77-0.34,0.22-1.66-0.58-1.37
			c-2.86,1.04-5.75,2.11-8.78,2.55c-0.79,0.12-1.59,0.2-2.39,0.2c-0.29,0-0.69,0.09-0.8-0.15c-0.1-0.22,0.46-0.72,0.62-0.93
			c0.99-1.29,1.99-2.57,2.99-3.85c0.44-0.57,0.06-1.44-0.73-1.25c-2.05,0.5-3.99,1.68-5.9,2.57c-1.86,0.87-4.06,1.59-5.71,2.83
			c-1.38,1.03-1.59,2.44-1.13,4.04c0.62,2.17,1.43,4.31,2.14,6.45c0.3,0.91,1.75,0.52,1.45-0.4c-0.58-1.74-1.15-3.47-1.73-5.21
			c-0.27-0.8-0.82-1.88-0.57-2.74c0.24-0.79,1.1-1.2,1.78-1.55c1.63-0.82,3.31-1.56,4.96-2.33c1.65-0.77,3.34-1.79,5.12-2.22
			c-0.24-0.42-0.49-0.84-0.73-1.25c-1.26,1.62-2.77,3.21-3.83,4.96c-0.76,1.25,0,2.38,1.37,2.51c4.12,0.39,8.5-1.41,12.28-2.79
			c-0.19-0.46-0.39-0.91-0.58-1.37c-1.79,0.78-3.58,1.55-5.37,2.33c-0.51,0.22-0.47,1.06,0,1.3c2.84,1.41,6.24,0.91,8.52-1.31
			c0.6-0.59-0.18-1.64-0.91-1.18c-1.42,0.9-2.85,1.79-4.26,2.71c-0.8,0.52-1.97,1.33-1.53,2.47c0.85,2.21,4.4,0.29,5.52-0.6
			c-0.35-0.35-0.71-0.71-1.06-1.06c-0.85,0.67-1.69,1.35-2.54,2.02c-0.48,0.38-0.15,1.09,0.33,1.25c0.81,0.28,1.62,0.55,2.42,0.83
			c-0.06-0.46-0.12-0.91-0.18-1.37c-3.53,2.6-7.72,4.24-12.09,4.62c-1.91,0.17-4.41,0.35-6.26-0.28c-1.18-0.4-1.21-2.34-1.46-3.4
			c-0.3-1.29-0.61-2.58-0.91-3.88C134.61,125.05,133.16,125.45,133.38,126.39L133.38,126.39z"/>
	</g>
</g>
<g>
	<path class="st6" d="M158.25,139.8c-4.32-0.21-8.63-0.41-12.95-0.62c1.91,1.34,3.82,2.68,5.73,4.02
		c-3.64,1.51-7.51,2.45-11.43,2.78c1.52,0.63,3.1,1.11,4.71,1.44c-2.27,0.81-4.63,1.39-7.02,1.71c2.23,0.33,4.45,0.66,6.68,0.99
		c-1.51,0.41-3.02,0.82-4.53,1.23c1.06,0.1,2.12,0.2,3.18,0.3c0.28,0.03,0.61,0.09,0.73,0.34c0.13,0.28-0.11,0.61-0.4,0.7
		c-0.29,0.09-0.61,0.01-0.9-0.07c6.15,1.18,12.73-0.01,18.07-3.28c-1.48-2.7-2.13-5.84-1.85-8.91"/>
	<g>
		<path class="st6" d="M158.25,138.3c-4.32-0.21-8.63-0.41-12.95-0.62c-1.6-0.08-1.88,2-0.76,2.8c1.91,1.34,3.82,2.68,5.73,4.02
			c0.12-0.91,0.24-1.83,0.36-2.74c-3.53,1.44-7.23,2.38-11.03,2.73c-1.73,0.16-1.98,2.31-0.4,2.95c1.53,0.62,3.09,1.1,4.71,1.44
			c0-0.96,0-1.93,0-2.89c-2.28,0.8-4.62,1.37-7.02,1.71c-1.44,0.2-1.43,2.68,0,2.89c2.23,0.33,4.45,0.66,6.68,0.99
			c0-0.96,0-1.93,0-2.89c-1.51,0.41-3.02,0.82-4.53,1.23c-1.72,0.47-1.22,2.79,0.4,2.95c0.6,0.06,1.19,0.11,1.79,0.17
			c0.27,0.02,0.53,0.05,0.8,0.07c0.11,0.01,0.23,0.02,0.34,0.03c0.22,0.03,0.19,0.01-0.08-0.07c-0.15-0.35-0.29-0.71-0.44-1.06
			c0.2-0.27,0.4-0.54,0.6-0.81c-0.27,0.96-0.53,1.93-0.8,2.89c6.61,1.22,13.45,0.04,19.22-3.44c0.71-0.43,0.92-1.33,0.54-2.05
			c-1.34-2.53-1.87-5.3-1.65-8.15c0.15-1.93-2.85-1.92-3,0c-0.26,3.37,0.47,6.69,2.06,9.66c0.18-0.68,0.36-1.37,0.54-2.05
			c-5.05,3.04-11.1,4.21-16.91,3.13c-1.87-0.34-2.7,2.43-0.8,2.89c0.9,0.22,1.92,0.24,2.62-0.48c0.6-0.61,0.79-1.59,0.37-2.36
			c-0.42-0.77-1.23-0.99-2.03-1.09c-1.06-0.13-2.12-0.2-3.18-0.3c0.13,0.98,0.27,1.96,0.4,2.95c1.51-0.41,3.02-0.82,4.53-1.23
			c1.33-0.36,1.53-2.67,0-2.89c-2.23-0.33-4.45-0.66-6.68-0.99c0,0.96,0,1.93,0,2.89c2.4-0.34,4.74-0.91,7.02-1.71
			c1.3-0.45,1.55-2.56,0-2.89c-1.61-0.35-3.18-0.83-4.71-1.44c-0.13,0.98-0.27,1.96-0.4,2.95c4.07-0.37,8.04-1.29,11.83-2.83
			c1.22-0.5,1.47-1.96,0.36-2.74c-1.91-1.34-3.82-2.68-5.73-4.02c-0.25,0.93-0.5,1.86-0.76,2.8c4.32,0.21,8.63,0.41,12.95,0.62
			C160.18,141.39,160.18,138.39,158.25,138.3L158.25,138.3z"/>
	</g>
</g>
<g>
	<g>
		<path class="st3" d="M126.86,127.75c1.79-0.35,3.58-0.7,5.37-1.05c-0.47-0.36-0.95-0.72-1.42-1.08c0.07,1.57,0.37,3.12,0.8,4.64
			c0.21,0.74,0.45,1.48,0.7,2.21c0.13,0.36,0.26,0.73,0.38,1.09c0.09,0.25,0.27,0.59,0.21,0.86c-0.01,0.05,0.01,0.01,0.02-0.01
			c-0.04,0.09-0.11,0.11-0.18,0.15c-0.16,0.09-0.32,0.11-0.48,0.1c-0.67-0.02-1.32-0.37-1.94-0.58c-1.47-0.5-3.04-0.74-4.59-0.74
			c-1.45,0-1.45,2.25,0,2.25c1.71,0,3.25,0.4,4.85,0.97c1.47,0.52,3.38,0.52,4.26-1c0.44-0.76,0.34-1.64,0.08-2.44
			c-0.28-0.85-0.6-1.68-0.87-2.54c-0.51-1.62-0.92-3.26-1-4.96c-0.04-0.77-0.69-1.23-1.42-1.08c-1.79,0.35-3.58,0.7-5.37,1.05
			c-0.6,0.12-0.94,0.83-0.79,1.38C125.65,127.59,126.26,127.86,126.86,127.75L126.86,127.75z"/>
	</g>
</g>
<g>
	<g>
		<path class="st3" d="M125.49,69.77c1.49-1.07,2.99-2.14,4.48-3.22c0.57-0.41,1.3-1.16,1.99-1.35c0.65-0.18,1.61,0.26,2.27,0.33
			c1.74,0.21,3.55-0.07,5.29-0.19c1.84-0.12,3.68-0.25,5.51-0.37c-0.32-0.56-0.65-1.13-0.97-1.69c-0.43,0.59-1.4,0.7-2.05,0.86
			c-0.97,0.24-1.94,0.48-2.92,0.65c-1.89,0.34-3.88,0.44-5.73-0.15c-0.82-0.26-1.62-0.74-2.51-0.5c-0.74,0.2-1.31,0.81-1.38,1.58
			c-0.07,0.8,0.46,1.51,1.16,1.84c0.69,0.32,1.65-0.05,2.24,0.33c1.22,0.79,2.35-1.16,1.14-1.94c-0.55-0.35-1.29-0.54-1.95-0.42
			c-0.44-0.08-0.64,0.19-0.6,0.8c0.17,0.05,0.33,0.11,0.49,0.18c0.38,0.14,0.75,0.29,1.15,0.4c1.5,0.41,3.1,0.48,4.64,0.33
			c1.65-0.16,3.27-0.53,4.88-0.93c1.35-0.34,2.54-0.73,3.4-1.9c0.49-0.68-0.17-1.75-0.97-1.69c-1.97,0.13-3.94,0.27-5.91,0.4
			c-1.87,0.13-3.74,0.4-5.59-0.01c-0.72-0.16-1.45-0.29-2.18-0.09c-0.83,0.23-1.53,0.86-2.21,1.35c-1.6,1.15-3.2,2.3-4.8,3.45
			C123.19,68.66,124.31,70.61,125.49,69.77L125.49,69.77z"/>
	</g>
</g>
<g>
	<path class="st6" d="M131.15,63.02c2.78-3.92,4.34-8.69,4.42-13.49c0.06-3.8-0.78-7.66,0.09-11.35c0.88-3.74,3.58-7.01,7.08-8.59
		c1.4-0.63,2.94-1,4.46-0.82c1.81,0.21,3.43,1.18,4.99,2.12c1.5,0.91,3.06,1.87,3.98,3.36c0.73,1.18,0.99,2.59,1.22,3.96
		c0.5,3.04,0.9,6.14,0.52,9.2c-0.38,3.06-1.61,6.11-3.91,8.16c-1.47,1.31-3.48,2.43-3.71,4.38c-0.06,0.52,0.02,1.08-0.2,1.56
		c-0.39,0.87-1.5,1.09-2.44,1.18c-5.48,0.55-10.99,0.76-16.5,0.63c0.11,0,0.3-0.37,0.38-0.45c0.2-0.2,0.44-0.37,0.67-0.54
		c-0.3,0.31-0.6,0.62-0.91,0.93"/>
	<g>
		<path class="st6" d="M131.8,63.4c3.7-5.32,4.78-11.31,4.37-17.68c-0.22-3.37-0.43-6.84,1.16-9.95c1.33-2.6,3.62-4.77,6.38-5.78
			c3.44-1.26,6.29,0.34,9.14,2.18c1.49,0.96,2.7,2.06,3.27,3.78c0.55,1.64,0.73,3.44,0.93,5.15c0.4,3.35,0.43,6.84-0.87,10.01
			c-0.61,1.49-1.52,2.85-2.72,3.93c-0.96,0.87-2.08,1.57-2.9,2.58c-0.36,0.44-0.67,0.93-0.85,1.48c-0.3,0.93,0.05,2.13-0.98,2.63
			c-0.73,0.35-1.75,0.29-2.53,0.36c-0.97,0.09-1.94,0.16-2.91,0.23c-4.04,0.27-8.09,0.35-12.14,0.26c0.13,0.47,0.25,0.93,0.38,1.4
			c0.4-0.3,0.64-0.69,1.05-1c-0.3-0.39-0.61-0.79-0.91-1.18c-0.3,0.31-0.6,0.62-0.91,0.93c-0.67,0.69,0.39,1.75,1.06,1.06
			c0.3-0.31,0.6-0.62,0.91-0.93c0.57-0.58-0.21-1.71-0.91-1.18c-0.38,0.29-0.7,0.73-1.05,1c-0.56,0.43-0.43,1.38,0.38,1.4
			c4.05,0.09,8.1,0.01,12.14-0.26c1.76-0.12,3.64-0.12,5.36-0.51c1.28-0.29,2.16-1.02,2.32-2.35c0.11-0.91,0.12-1.59,0.72-2.33
			c0.49-0.62,1.13-1.11,1.74-1.6c1.22-0.98,2.3-2.02,3.13-3.35c1.84-2.93,2.36-6.48,2.22-9.88c-0.08-1.93-0.35-3.86-0.67-5.76
			c-0.27-1.64-0.62-3.28-1.64-4.64c-0.98-1.3-2.35-2.19-3.73-3.03c-1.42-0.86-2.89-1.76-4.52-2.15c-6.07-1.46-11.98,4.25-13.29,9.78
			c-1.01,4.29,0.15,8.69-0.19,13.03c-0.33,4.19-1.85,8.19-4.24,11.63C129.95,63.44,131.25,64.19,131.8,63.4L131.8,63.4z"/>
	</g>
</g>
<g class="st7">
	<g>
		<path d="M138.62,41.35c2.01,0.86,4.24,1.02,6.33,0.36c0.39-0.12,0.63-0.52,0.52-0.92c-0.1-0.38-0.53-0.65-0.92-0.52
			c-1.68,0.53-3.54,0.49-5.17-0.21c-0.37-0.16-0.8-0.11-1.03,0.27C138.17,40.64,138.25,41.19,138.62,41.35L138.62,41.35z"/>
	</g>
</g>
<g class="st7">
	<g>
		<path d="M147.33,40.49c0.16,1.7,0.89,3.28,2.15,4.44c0.45,0.41,1,0.85,0.52,1.45c-0.47,0.6-1.38,0.63-2.07,0.68
			c-0.4,0.03-0.75,0.32-0.75,0.75c0,0.38,0.34,0.78,0.75,0.75c1.05-0.08,2.15-0.21,2.96-0.95c0.75-0.68,1.04-1.77,0.57-2.69
			c-0.41-0.79-1.25-1.26-1.74-2c-0.49-0.73-0.81-1.57-0.89-2.44c-0.04-0.4-0.32-0.75-0.75-0.75
			C147.7,39.74,147.29,40.09,147.33,40.49L147.33,40.49z"/>
	</g>
</g>
<g class="st7">
	<g>
		<path d="M144.78,51.72c2.12,1.04,4.63,1.01,6.71-0.11c0.36-0.19,0.47-0.69,0.27-1.03c-0.21-0.36-0.67-0.46-1.03-0.27
			c-1.59,0.86-3.57,0.91-5.2,0.11c-0.36-0.18-0.81-0.1-1.03,0.27C144.32,51.02,144.42,51.54,144.78,51.72L144.78,51.72z"/>
	</g>
</g>
<g class="st7">
	<g>
		<path d="M150.91,40.64c1.16,0.51,2.44,0.66,3.67,0.33c1.08-0.29,2.09-0.94,2.79-1.81c0.25-0.32,0.31-0.75,0-1.06
			c-0.26-0.26-0.81-0.32-1.06,0c-0.55,0.68-1.23,1.17-2.04,1.4c-0.85,0.24-1.79,0.2-2.6-0.16c-0.37-0.16-0.81-0.11-1.03,0.27
			C150.45,39.93,150.54,40.47,150.91,40.64L150.91,40.64z"/>
	</g>
</g>
<g class="st7">
	<g>
		<path d="M135.96,54.65c1.42,1.31,3.05,2.35,4.73,3.29c1.63,0.91,3.45,2.17,5.4,1.99c0.4-0.04,0.75-0.32,0.75-0.75
			c0-0.38-0.34-0.79-0.75-0.75c-0.92,0.08-1.74-0.23-2.55-0.64c-0.76-0.39-1.5-0.8-2.24-1.22c-1.52-0.86-2.99-1.79-4.28-2.97
			C136.31,52.94,135.24,53.99,135.96,54.65L135.96,54.65z"/>
	</g>
</g>
<g>
	<g>
		<path class="st3" d="M170.87,86.72c0.95,0.62,1.88,1.25,2.79,1.91c0.23,0.17,0.45,0.34,0.68,0.5c1.22,0.89-1.04-0.83-0.34-0.27
			c0.44,0.35,0.88,0.7,1.32,1.06c1.79,1.49,3.5,3.07,5.11,4.75c0.78,0.81,1.54,1.65,2.28,2.5c0.37,0.43,0.73,0.86,1.09,1.3
			c0.18,0.22,0.35,0.44,0.53,0.66c0.63,0.78-0.22-0.34-0.39-0.51c1.6,1.62,2.88,4.04,3.78,6.11c-0.25-0.6-0.5-1.19-0.76-1.79
			c0.43,1.05,0.74,2.1,0.93,3.22c-0.09-0.66-0.18-1.33-0.27-1.99c0.18,1.39,0.14,2.76-0.04,4.14c0.09-0.66,0.18-1.33,0.27-1.99
			c-0.76,5.06-2.57,10.04-4.54,14.74c0.25-0.6,0.5-1.19,0.76-1.79c-1.83,4.3-3.98,8.45-6.39,12.46c-2.02,3.37-0.86,8.38,2.69,10.26
			c3.8,2.01,7.9,0.78,10.26-2.69c5.09-7.47,10.18-14.94,15.28-22.42c2.22-3.25,0.72-8.46-2.69-10.26c-3.8-2.01-7.9-0.78-10.26,2.69
			c-5.09,7.47-10.18,14.94-15.28,22.42c4.32,2.52,8.63,5.05,12.95,7.57c4.94-8.24,9.13-17.3,11.26-26.7
			c0.62-2.74,1.07-5.62,0.74-8.42c-0.38-3.2-1.3-6.07-2.89-8.9c-2.32-4.14-5.55-7.95-8.85-11.35c-3.72-3.85-7.97-7.24-12.45-10.15
			c-3.3-2.14-8.43-0.77-10.26,2.69C166.21,80.2,167.36,84.43,170.87,86.72L170.87,86.72z"/>
	</g>
</g>
<g>
	<g>
		<path class="st3" d="M110.98,125.35c-2.19-0.54-4.36-1.13-6.44-2c0.6,0.25,1.19,0.5,1.79,0.76c-0.67-0.3-1.34-0.61-1.98-0.99
			c-0.32-0.18-0.61-0.38-0.92-0.58c-1.14-0.73,1.34,1.24,0.38,0.29c-0.26-0.25-0.53-0.49-0.78-0.75c-0.08-0.09-0.16-0.18-0.24-0.27
			c-0.49-0.58-0.32-0.36,0.49,0.66c-0.23-0.72-0.89-1.48-1.2-2.19c0.25,0.6,0.5,1.19,0.76,1.79c-0.69-1.73-1.07-3.53-1.34-5.37
			c0.09,0.66,0.18,1.33,0.27,1.99c-0.39-3.01-0.39-6.02,0-9.03c-0.09,0.66-0.18,1.33-0.27,1.99c0.32-2.25,0.85-4.44,1.6-6.59
			c-4.82-1.33-9.64-2.66-14.46-3.99c-1.45,5.18-2.9,10.35-4.36,15.53c-0.82,2.91-1.79,5.99-1.65,9.05c0.17,3.59,1.43,7.41,4.26,9.8
			c2.88,2.44,6.73,2.99,9.85,0.59c2.73-2.11,4.1-6.61,1.93-9.68c-1-1.4-1.82-2.89-2.49-4.47c0.25,0.6,0.5,1.19,0.76,1.79
			c-0.75-1.84-1.26-3.73-1.56-5.7c0.09,0.66,0.18,1.33,0.27,1.99c-0.28-2.1-0.3-4.2-0.04-6.3c-0.09,0.66-0.18,1.33-0.27,1.99
			c0.2-1.44,0.53-2.84,0.98-4.22c1.23-3.73-1.42-8.36-5.24-9.23c-4.13-0.94-7.91,1.25-9.23,5.24c-2.86,8.67-1.43,19.01,3.87,26.47
			c3.93-3.03,7.85-6.06,11.78-9.09c-0.15-0.11-0.29-0.24-0.42-0.38c-0.4-0.41-0.21-0.15,0.58,0.8c-0.07-0.31-0.4-0.69-0.53-0.99
			c0.25,0.6,0.5,1.19,0.76,1.79c-0.23-0.6-0.38-1.2-0.47-1.84c0.09,0.66,0.18,1.33,0.27,1.99c-0.07-0.74-0.05-1.46,0.02-2.19
			c-0.09,0.66-0.18,1.33-0.27,1.99c0.48-3.53,1.76-7.02,2.72-10.45c0.98-3.5,1.97-7.01,2.95-10.51c1.06-3.77-1.3-8.33-5.24-9.23
			c-4.18-0.95-7.85,1.27-9.23,5.24c-1.37,3.96-2.08,8.23-2.16,12.41c-0.08,4.01,0.32,8.39,1.75,12.17
			c1.67,4.43,4.44,7.99,8.57,10.39c3.14,1.83,6.71,2.87,10.21,3.75c3.8,0.95,8.31-1.22,9.23-5.24
			C117.1,130.7,115.05,126.37,110.98,125.35L110.98,125.35z"/>
	</g>
</g>
<g>
	<g>
		<path class="st0" d="M279.98,192.19c0.12,0.96,0.17,1.86,0.53,2.75c0.34,0.86,0.73,1.7,1.09,2.55c-0.2-0.48-0.4-0.96-0.6-1.43
			c0.18,0.44,0.34,0.88,0.4,1.35c-0.07-0.53-0.14-1.06-0.21-1.6c0.04,0.34,0.04,0.67-0.01,1.01c0.07-0.53,0.14-1.06,0.21-1.6
			c-0.05,0.34-0.14,0.66-0.27,0.97c0.2-0.48,0.4-0.96,0.6-1.43c-0.08,0.19-0.18,0.36-0.28,0.54c-0.44,0.69-0.68,1.43-0.71,2.23
			c-0.18,0.8-0.14,1.6,0.11,2.39c0.19,0.78,0.54,1.46,1.07,2.04c0.42,0.65,0.98,1.17,1.68,1.55c0.48,0.2,0.96,0.4,1.43,0.6
			c1.06,0.29,2.13,0.29,3.19,0c0.48-0.2,0.96-0.4,1.43-0.6c0.9-0.53,1.62-1.25,2.15-2.15c0.37-0.6,0.64-1.35,0.89-1.97
			c0.09-0.22,0.16-0.44,0.22-0.67c0.2-0.88,0.37-1.88,0.29-2.8c-0.08-0.92-0.18-1.89-0.51-2.76c-0.35-0.89-0.75-1.76-1.13-2.65
			c0.2,0.48,0.4,0.96,0.6,1.43c-0.17-0.4-0.31-0.81-0.38-1.25c0.07,0.53,0.14,1.06,0.21,1.6c0-0.03-0.01-0.07-0.01-0.1
			c0.03-0.83-0.14-1.6-0.52-2.31c-0.24-0.74-0.66-1.39-1.24-1.93c-0.54-0.59-1.19-1-1.93-1.24c-0.72-0.38-1.49-0.55-2.31-0.52
			c-0.53,0.07-1.06,0.14-1.6,0.21c-1.02,0.29-1.9,0.8-2.65,1.54c-0.31,0.4-0.63,0.81-0.94,1.21
			C280.26,190.1,279.98,191.11,279.98,192.19L279.98,192.19z"/>
	</g>
</g>
</svg>
