<?xml version="1.0" encoding="utf-8"?>
<!-- Generator: Adobe Illustrator 23.0.5, SVG Export Plug-In . SVG Version: 6.00 Build 0)  -->
<svg version="1.1" id="Capa_1" xmlns="http://www.w3.org/2000/svg" xmlns:xlink="http://www.w3.org/1999/xlink" x="0px" y="0px"
	 viewBox="0 0 300 250" style="enable-background:new 0 0 300 250;" xml:space="preserve">
<style type="text/css">
	.st0{fill:none;stroke:#FFFFFF;stroke-width:11;stroke-miterlimit:10;}
	.st1{fill:#FFFFFF;}
</style>
<circle class="st0" cx="153.26" cy="124.8" r="111.37"/>
<g>
	<g>
		<path class="st1" d="M127.91,158.85c-0.07,7.89-0.13,15.79-0.2,23.68c-0.02,2.02-0.16,4.13,0.43,6.09c1.05,3.51,4,5.51,7.53,5.84
			c3.78,0.36,7.72,0.06,11.51,0.06c3.96,0,7.92,0,11.88,0c3.91,0,7.86,0.18,11.76-0.01c3.52-0.17,6.56-2.21,7.41-5.75
			c0.5-2.1,0.27-4.4,0.27-6.53c-0.01-3.98-0.02-7.96-0.03-11.95c-0.02-8.9-0.04-17.79-0.07-26.69c-0.01-3.14-2.75-6.15-6-6
			c-3.24,0.15-6.01,2.64-6,6c0.02,7.15,0.04,14.31,0.05,21.46c0.01,3.57,0.02,7.13,0.03,10.7c0.01,3.58-0.14,7.2,0.02,10.77
			c0.04,0.95,0.06-0.56,0.08-0.65c0.84-3.66,6.45-3.37,3.36-3.35c-0.82,0-1.65,0-2.47,0c-1.81,0-3.63,0-5.44,0
			c-3.63,0-7.26,0-10.89,0c-3.55,0-7.09,0-10.64,0c-0.91,0-1.81,0-2.72,0c-0.33,0-0.66,0.01-0.99,0c-0.55-0.01-1.47-0.3,0.12,0.07
			c0.58,0.34,1.16,0.68,1.75,1.02c0.93,1.94,1.26,2.49,1.01,1.66c-0.2-0.77,0.03,1.63,0.04,0.41c0.01-0.89,0-1.77,0.01-2.66
			c0.07-8.06,0.13-16.12,0.2-24.17c0.03-3.14-2.78-6.14-6-6C130.64,152.99,127.94,155.48,127.91,158.85L127.91,158.85z"/>
	</g>
</g>
<g>
	<g>
		<path class="st1" d="M172.45,149.66c14.9-0.04,29.8-0.07,44.7-0.11c3.14-0.01,6.15-2.75,6-6c-0.15-3.24-2.64-6.01-6-6
			c-14.9,0.04-29.8,0.07-44.7,0.11c-3.14,0.01-6.15,2.75-6,6C166.59,146.9,169.09,149.67,172.45,149.66L172.45,149.66z"/>
	</g>
</g>
<g>
	<g>
		<path class="st1" d="M223.24,143.2c0.08-12.67-0.03-25.34-0.11-38.01c-0.02-3.14-2.75-6.15-6-6c-3.23,0.14-6.02,2.64-6,6
			c0.08,12.67,0.19,25.34,0.11,38.01c-0.02,3.14,2.77,6.14,6,6C220.51,149.06,223.22,146.57,223.24,143.2L223.24,143.2z"/>
	</g>
</g>
<g>
	<g>
		<path class="st1" d="M216.84,99.43c-14.79,0.04-29.57,0.07-44.36,0.11c-3.14,0.01-6.15,2.75-6,6c0.15,3.24,2.64,6.01,6,6
			c14.79-0.04,29.57-0.07,44.36-0.11c3.14-0.01,6.15-2.75,6-6C222.7,102.18,220.21,99.42,216.84,99.43L216.84,99.43z"/>
	</g>
</g>
<g>
	<g>
		<path class="st1" d="M178.42,102.43c0.19-13.29,0.49-26.57,0.13-39.85c-0.09-3.13-2.7-6.15-6-6c-3.18,0.14-6.09,2.64-6,6
			c0.36,13.29,0.06,26.57-0.13,39.85c-0.04,3.14,2.79,6.14,6,6C175.71,108.29,178.37,105.8,178.42,102.43L178.42,102.43z"/>
	</g>
</g>
<g>
	<g>
		<path class="st1" d="M171.67,56.31c-12.75,0.05-25.5,0.1-38.25,0.16c-3.25,0.01-5.82,3.87-3.89,6.77
			c-0.07-0.15-0.14-0.31-0.22-0.46c0-0.8,0-1.6,0-2.39c-0.03,0.11-0.06,0.21-0.1,0.32c-0.68,2.25,0.81,5,3.14,5.54
			c2.42,0.55,4.81-0.73,5.54-3.14c0.44-1.47,0.26-3.12-0.59-4.4c-1.3,2.26-2.59,4.51-3.89,6.77c12.75-0.05,25.5-0.1,38.25-0.16
			c2.35-0.01,4.61-2.06,4.5-4.5C176.06,58.38,174.19,56.3,171.67,56.31L171.67,56.31z"/>
	</g>
</g>
<g>
	<g>
		<path class="st1" d="M127.65,63.22c-0.44,13.92-0.01,27.89,0.21,41.81c0.05,3.14,2.72,6.15,6,6c3.21-0.14,6.05-2.64,6-6
			c-0.22-13.93-0.65-27.89-0.21-41.81c0.1-3.14-2.83-6.14-6-6C130.31,57.37,127.75,59.86,127.65,63.22L127.65,63.22z"/>
	</g>
</g>
<g>
	<g>
		<path class="st1" d="M89.5,111.14c14.73-0.05,29.45-0.1,44.18-0.15c3.14-0.01,6.15-2.75,6-6c-0.15-3.24-2.64-6.01-6-6
			c-14.73,0.05-29.45,0.1-44.18,0.15c-3.14,0.01-6.15,2.75-6,6C83.64,108.38,86.13,111.15,89.5,111.14L89.5,111.14z"/>
	</g>
</g>
<g>
	<g>
		<path class="st1" d="M83.64,105.16c0.06,12.97,0.13,25.93,0.19,38.9c0.02,3.14,2.75,6.15,6,6c3.24-0.15,6.02-2.64,6-6
			c-0.06-12.97-0.13-25.93-0.19-38.9c-0.02-3.14-2.75-6.15-6-6C86.4,99.31,83.62,101.8,83.64,105.16L83.64,105.16z"/>
	</g>
</g>
<g>
	<g>
		<path class="st1" d="M90.09,149.81c9.73-0.03,19.45-0.07,29.18-0.1c3.14-0.01,6.15-2.75,6-6c-0.15-3.24-2.64-6.01-6-6
			c-9.73,0.03-19.45,0.07-29.18,0.1c-3.14,0.01-6.15,2.75-6,6C84.23,147.05,86.72,149.82,90.09,149.81L90.09,149.81z"/>
	</g>
</g>
</svg>
