<?xml version="1.0" encoding="utf-8"?>
<!-- Generator: Adobe Illustrator 23.0.5, SVG Export Plug-In . SVG Version: 6.00 Build 0)  -->
<svg version="1.1" id="Capa_1" xmlns="http://www.w3.org/2000/svg" xmlns:xlink="http://www.w3.org/1999/xlink" x="0px" y="0px"
	 viewBox="0 0 300 250" style="enable-background:new 0 0 300 250;" xml:space="preserve">
<style type="text/css">
	.st0{fill:#FFFFFF;}
</style>
<g>
	<g>
		<g>
			<path class="st0" d="M148.6,29.12c0.24,8.95,0.38,17.91,0.71,26.85c0.13,3.52,1.19,6.62,4.82,7.78c1.51,0.48,3.17,0.52,4.63,1.16
				c1.07,0.46,1.91,1.29,2.53,2.26c2.83,4.45,2.69,10.57,7.46,13.74c1.56,1.04,3.43,1.49,5.24,1.82c2.16,0.39,4.32,0.73,6.48,1.09
				c4.51,0.76,9.02,1.52,13.53,2.28c10.01,1.68,20.01,3.37,30.02,5.05c1.89,0.32,2.7-2.57,0.8-2.89c-8.61-1.45-17.22-2.9-25.84-4.35
				c-4.26-0.72-8.53-1.43-12.79-2.15c-4.14-0.7-8.33-1.24-12.44-2.12c-1.59-0.34-3.16-0.85-4.33-2.02c-0.85-0.85-1.44-1.91-1.93-3
				c-1.08-2.39-1.66-4.97-2.76-7.36c-1.06-2.32-2.72-4.29-5.14-5.23c-1.45-0.56-3.02-0.67-4.5-1.12c-1.58-0.47-2.37-1.53-2.64-3.14
				c-0.35-2.09-0.21-4.31-0.27-6.42c-0.06-2.42-0.13-4.83-0.19-7.25c-0.13-5-0.26-10-0.39-14.99
				C151.55,27.19,148.55,27.18,148.6,29.12L148.6,29.12z"/>
		</g>
	</g>
	<g>
		<g>
			<path class="st0" d="M149.24,60.41c-4.77-0.75-8.32,2.59-10.96,6.14c-1.33,1.79-2.58,3.74-4.34,5.14
				c-1.86,1.48-4.22,1.95-6.54,1.97c-2.5,0.02-4.99-0.37-7.46-0.68c-2.87-0.37-5.74-0.73-8.62-1.1c-5.66-0.72-11.32-1.45-16.99-2.17
				c-6.4-0.82-12.8-1.64-19.2-2.45c-0.94-0.12-1.75,1.06-1.45,1.9c5.64,15.76,11.27,31.52,16.91,47.28
				c5.64,15.76,11.27,31.52,16.91,47.28c3.2,8.94,6.39,17.88,9.59,26.82c0.48-0.63,0.96-1.27,1.45-1.9
				c-22.58,0.2-45.16,0.39-67.74,0.59c-6.42,0.06-12.83,0.11-19.25,0.17c0.48,0.63,0.96,1.27,1.45,1.9
				c11.15-31.38,22.29-62.75,33.44-94.13c3.12-8.79,6.24-17.57,9.36-26.36c0.65-1.82-2.25-2.61-2.89-0.8
				c-11.15,31.38-22.29,62.75-33.44,94.13c-3.12,8.79-6.24,17.57-9.36,26.36c-0.33,0.93,0.53,1.91,1.45,1.9
				c22.58-0.2,45.16-0.39,67.74-0.59c6.42-0.06,12.83-0.11,19.25-0.17c0.91-0.01,1.78-0.96,1.45-1.9
				c-5.64-15.76-11.27-31.52-16.91-47.28c-5.64-15.76-11.27-31.52-16.91-47.28c-3.2-8.94-6.39-17.88-9.59-26.82
				c-0.48,0.63-0.96,1.27-1.45,1.9c11.16,1.43,22.32,2.85,33.48,4.28c5.4,0.69,10.82,1.58,16.24,2.02
				c4.81,0.39,9.37-0.49,12.72-4.19c1.65-1.83,2.89-3.98,4.52-5.81c1.56-1.76,3.83-3.65,6.36-3.25
				C150.33,63.6,151.14,60.71,149.24,60.41L149.24,60.41z"/>
		</g>
	</g>
	<g>
		<g>
			<path class="st0" d="M30.86,192.18c1.04,16.07,19.66,23.61,33.32,25.77c14.63,2.31,30.02-0.31,42.87-7.76
				c6.81-3.95,15.64-10.54,13.05-19.63c-0.53-1.85-3.42-1.07-2.89,0.8c2.09,7.31-5.64,12.65-10.98,15.84
				c-5.8,3.46-12.17,5.88-18.77,7.26c-13.12,2.74-27.37,1.3-39.41-4.74c-6.91-3.47-13.64-9.3-14.18-17.54
				C33.74,190.26,30.73,190.25,30.86,192.18L30.86,192.18z"/>
		</g>
	</g>
	<g>
		<g>
			<path class="st0" d="M224.03,90.25c-5.54,15.88-11.08,31.77-16.62,47.65c-5.54,15.88-11.08,31.77-16.62,47.65
				c-3.13,8.96-6.25,17.93-9.38,26.89c-0.32,0.92,0.52,1.92,1.45,1.9c14.16-0.3,28.32-0.6,42.49-0.9c7-0.15,14-0.3,20.99-0.44
				c3.5-0.07,7-0.15,10.5-0.22c2.43-0.05,6.47-0.81,8.38,1.14c1.93,1.97,0.71,5.09-0.65,6.97c-1.64,2.26-3.89,4.2-6.04,5.95
				c-4.35,3.54-9.36,6.34-14.63,8.25c-10.44,3.79-21.86,4.17-32.45,0.77c-11.49-3.69-21.56-11.51-27.88-21.79
				c-1.01-1.64-3.61-0.14-2.59,1.51c6.08,9.89,15.35,17.54,26.1,21.87c11.04,4.45,23.41,4.89,34.8,1.46
				c5.68-1.71,11.12-4.34,15.95-7.8c2.47-1.77,4.8-3.73,6.92-5.9c2.05-2.09,3.99-4.52,4.37-7.51c0.35-2.75-0.71-5.66-3.26-7.01
				c-2.82-1.5-6.45-0.97-9.51-0.91c-7.5,0.16-15,0.32-22.49,0.47c-16.99,0.36-33.99,0.72-50.98,1.08c0.48,0.63,0.96,1.27,1.45,1.9
				c5.54-15.88,11.08-31.77,16.62-47.65c5.54-15.88,11.08-31.77,16.62-47.65c3.13-8.96,6.25-17.93,9.38-26.89
				C227.56,89.22,224.66,88.44,224.03,90.25L224.03,90.25z"/>
		</g>
	</g>
	<g>
		<g>
			<path class="st0" d="M224.12,92.27c5.95,16.41,11.9,32.83,17.85,49.24c5.95,16.41,11.9,32.83,17.85,49.24
				c1.63,4.5,3.3,8.99,4.89,13.51c1.54,4.35,2.98,9.02,1.79,13.63c-0.48,1.87,2.41,2.67,2.89,0.8c1.02-3.96,0.45-8.01-0.69-11.88
				c-1.21-4.11-2.83-8.13-4.29-12.16c-3.03-8.36-6.06-16.73-9.1-25.09c-6.04-16.65-12.07-33.3-18.11-49.95
				c-3.4-9.38-6.8-18.76-10.2-28.14C226.36,89.67,223.46,90.45,224.12,92.27L224.12,92.27z"/>
		</g>
	</g>
	<g>
		<g>
			<path class="st0" d="M150.69,20.88c2.35,0,4.61-2.07,4.5-4.5c-0.11-2.44-1.98-4.5-4.5-4.5c-2.35,0-4.61,2.07-4.5,4.5
				C146.3,18.82,148.17,20.88,150.69,20.88L150.69,20.88z"/>
		</g>
	</g>
	<g>
		<g>
			<g>
				<path class="st0" d="M149.74,83.42c3.92,0,7.68-3.45,7.5-7.5c-0.18-4.06-3.3-7.5-7.5-7.5c-3.92,0-7.68,3.45-7.5,7.5
					C142.43,79.99,145.54,83.42,149.74,83.42L149.74,83.42z"/>
			</g>
		</g>
	</g>
</g>
</svg>
